<svg version="1.1" xmlns="http://www.w3.org/2000/svg" xmlns:xlink="http://www.w3.org/1999/xlink" width="757" height="464"><defs></defs><g><g transform="translate(-30,-30) scale(1,1)"><rect fill="#C0C0C0" stroke="none" x="303" y="231" width="49" height="44" opacity="0.2"></rect></g><g transform="translate(-30,-30) scale(1,1)"><rect fill="#ffffff" stroke="none" x="296" y="224" width="49" height="44"></rect></g><g transform="translate(-30,-30) scale(1,1)"><path fill="none" stroke="#000000" d="M 296 224 L 345 224 L 345 268 L 296 268 L 296 224 Z Z" stroke-miterlimit="10"></path></g><g transform="translate(-30,-30) scale(1,1)"><path fill="none" stroke="#000000" d="M 296 249 L 345 249" stroke-miterlimit="10"></path></g><g transform="translate(-30,-30) scale(1,1)"><path fill="none" stroke="#000000" d="M 296 259 L 345 259" stroke-miterlimit="10"></path></g><g transform="translate(-30,-30) scale(1,1)"><g><path fill="none" stroke="none"></path><text fill="#000000" stroke="none" font-family="Arial" font-size="13px" font-style="normal" font-weight="bold" text-decoration="none" x="304.5" y="243.5">Items</text></g></g><g transform="translate(-30,-30) scale(1,1)"><rect fill="#C0C0C0" stroke="none" x="223" y="351" width="69" height="44" opacity="0.2"></rect></g><g transform="translate(-30,-30) scale(1,1)"><rect fill="#ffffff" stroke="none" x="216" y="344" width="69" height="44"></rect></g><g transform="translate(-30,-30) scale(1,1)"><path fill="none" stroke="#000000" d="M 216 344 L 285 344 L 285 388 L 216 388 L 216 344 Z Z" stroke-miterlimit="10"></path></g><g transform="translate(-30,-30) scale(1,1)"><path fill="none" stroke="#000000" d="M 216 369 L 285 369" stroke-miterlimit="10"></path></g><g transform="translate(-30,-30) scale(1,1)"><path fill="none" stroke="#000000" d="M 216 379 L 285 379" stroke-miterlimit="10"></path></g><g transform="translate(-30,-30) scale(1,1)"><g><path fill="none" stroke="none"></path><text fill="#000000" stroke="none" font-family="Arial" font-size="13px" font-style="normal" font-weight="bold" text-decoration="none" x="223.5" y="363.5">Suppliers</text></g></g><g transform="translate(-30,-30) scale(1,1)"><rect fill="#C0C0C0" stroke="none" x="407" y="351" width="49" height="44" opacity="0.2"></rect></g><g transform="translate(-30,-30) scale(1,1)"><rect fill="#ffffff" stroke="none" x="400" y="344" width="49" height="44"></rect></g><g transform="translate(-30,-30) scale(1,1)"><path fill="none" stroke="#000000" d="M 400 344 L 449 344 L 449 388 L 400 388 L 400 344 Z Z" stroke-miterlimit="10"></path></g><g transform="translate(-30,-30) scale(1,1)"><path fill="none" stroke="#000000" d="M 400 369 L 449 369" stroke-miterlimit="10"></path></g><g transform="translate(-30,-30) scale(1,1)"><path fill="none" stroke="#000000" d="M 400 379 L 449 379" stroke-miterlimit="10"></path></g><g transform="translate(-30,-30) scale(1,1)"><g><path fill="none" stroke="none"></path><text fill="#000000" stroke="none" font-family="Arial" font-size="13px" font-style="normal" font-weight="bold" text-decoration="none" x="408" y="363.5">Sales</text></g></g><g transform="translate(-30,-30) scale(1,1)"><path fill="none" stroke="#000000" d="M 263 343 L 307 269" stroke-miterlimit="10"></path></g><g transform="translate(-30,-30) scale(1,1)"><path fill="none" stroke="#000000" d="M 286 366 L 399 366" stroke-miterlimit="10"></path></g><g transform="translate(-30,-30) scale(1,1)"><path fill="none" stroke="#000000" d="M 404 343 L 340 269" stroke-miterlimit="10"></path></g><g transform="translate(-30,-30) scale(1,1)"><path fill="#ffffff" stroke="none" d="M 400 104 L 484 104 L 494 114 L 494 142 L 400 142 L 400 104"></path></g><g transform="translate(-30,-30) scale(1,1)"><path fill="none" stroke="#000000" d="M 400 104 L 484 104 L 494 114 L 494 142 L 400 142 L 400 104 L 400 104" stroke-miterlimit="10"></path></g><g transform="translate(-30,-30) scale(1,1)"><path fill="none" stroke="#000000" d="M 484 104 L 484 114 L 494 114 L 484 104" stroke-miterlimit="10"></path></g><g transform="translate(-30,-30) scale(1,1)"><g><path fill="none" stroke="none"></path><text fill="#000000" stroke="none" font-family="Arial" font-size="13px" font-style="normal" font-weight="normal" text-decoration="none" x="405" y="122">May be</text><text fill="#000000" stroke="none" font-family="Arial" font-size="13px" font-style="normal" font-weight="normal" text-decoration="none" x="405" y="135">categorized</text></g></g><g transform="translate(-30,-30) scale(1,1)"><path fill="none" stroke="#000000" d="M 344 223 L 425 144" stroke-miterlimit="10" stroke-dasharray="3"></path></g><g transform="translate(-30,-30) scale(1,1)"><path fill="#ffffff" stroke="none" d="M 40 152 L 181 152 L 191 162 L 191 240 L 40 240 L 40 152"></path></g><g transform="translate(-30,-30) scale(1,1)"><path fill="none" stroke="#000000" d="M 40 152 L 181 152 L 191 162 L 191 240 L 40 240 L 40 152 L 40 152" stroke-miterlimit="10"></path></g><g transform="translate(-30,-30) scale(1,1)"><path fill="none" stroke="#000000" d="M 181 152 L 181 162 L 191 162 L 181 152" stroke-miterlimit="10"></path></g><g transform="translate(-30,-30) scale(1,1)"><g><path fill="none" stroke="none"></path><text fill="#000000" stroke="none" font-family="Arial" font-size="13px" font-style="normal" font-weight="normal" text-decoration="none" x="45" y="170">Item properties are</text><text fill="#000000" stroke="none" font-family="Arial" font-size="13px" font-style="normal" font-weight="normal" text-decoration="none" x="45" y="183">known formaly as</text><text fill="#000000" stroke="none" font-family="Arial" font-size="13px" font-style="normal" font-weight="normal" text-decoration="none" x="45" y="196">features, whose are</text><text fill="#000000" stroke="none" font-family="Arial" font-size="13px" font-style="normal" font-weight="normal" text-decoration="none" x="45" y="209">"categories, tags, price,</text><text fill="#000000" stroke="none" font-family="Arial" font-size="13px" font-style="normal" font-weight="normal" text-decoration="none" x="45" y="222">colours, name,</text><text fill="#000000" stroke="none" font-family="Arial" font-size="13px" font-style="normal" font-weight="normal" text-decoration="none" x="45" y="235">description"</text></g></g><g transform="translate(-30,-30) scale(1,1)"><path fill="none" stroke="#000000" d="M 295 240 L 193 215" stroke-miterlimit="10" stroke-dasharray="3"></path></g><g transform="translate(-30,-30) scale(1,1)"><path fill="#ffffff" stroke="none" d="M 104 280 L 171 280 L 181 290 L 181 355 L 104 355 L 104 280"></path></g><g transform="translate(-30,-30) scale(1,1)"><path fill="none" stroke="#000000" d="M 104 280 L 171 280 L 181 290 L 181 355 L 104 355 L 104 280 L 104 280" stroke-miterlimit="10"></path></g><g transform="translate(-30,-30) scale(1,1)"><path fill="none" stroke="#000000" d="M 171 280 L 171 290 L 181 290 L 171 280" stroke-miterlimit="10"></path></g><g transform="translate(-30,-30) scale(1,1)"><g><path fill="none" stroke="none"></path><text fill="#000000" stroke="none" font-family="Arial" font-size="13px" font-style="normal" font-weight="normal" text-decoration="none" x="109" y="298">Items are</text><text fill="#000000" stroke="none" font-family="Arial" font-size="13px" font-style="normal" font-weight="normal" text-decoration="none" x="109" y="311">provided by</text><text fill="#000000" stroke="none" font-family="Arial" font-size="13px" font-style="normal" font-weight="normal" text-decoration="none" x="109" y="324">suppliers</text></g></g><g transform="translate(-30,-30) scale(1,1)"><path fill="none" stroke="#000000" d="M 183 315 L 285 306" stroke-miterlimit="10" stroke-dasharray="3"></path></g><g transform="translate(-30,-30) scale(1,1)"><path fill="#ffffff" stroke="none" d="M 424 240 L 503 240 L 513 250 L 513 328 L 424 328 L 424 240"></path></g><g transform="translate(-30,-30) scale(1,1)"><path fill="none" stroke="#000000" d="M 424 240 L 503 240 L 513 250 L 513 328 L 424 328 L 424 240 L 424 240" stroke-miterlimit="10"></path></g><g transform="translate(-30,-30) scale(1,1)"><path fill="none" stroke="#000000" d="M 503 240 L 503 250 L 513 250 L 503 240" stroke-miterlimit="10"></path></g><g transform="translate(-30,-30) scale(1,1)"><g><path fill="none" stroke="none"></path><text fill="#000000" stroke="none" font-family="Arial" font-size="13px" font-style="normal" font-weight="normal" text-decoration="none" x="429" y="258">User buys</text><text fill="#000000" stroke="none" font-family="Arial" font-size="13px" font-style="normal" font-weight="normal" text-decoration="none" x="429" y="271">Items directly</text><text fill="#000000" stroke="none" font-family="Arial" font-size="13px" font-style="normal" font-weight="normal" text-decoration="none" x="429" y="284">to supplier's</text><text fill="#000000" stroke="none" font-family="Arial" font-size="13px" font-style="normal" font-weight="normal" text-decoration="none" x="429" y="297">acquisition</text><text fill="#000000" stroke="none" font-family="Arial" font-size="13px" font-style="normal" font-weight="normal" text-decoration="none" x="429" y="310">page</text></g></g><g transform="translate(-30,-30) scale(1,1)"><path fill="none" stroke="#000000" d="M 372 306 L 423 294" stroke-miterlimit="10" stroke-dasharray="3"></path></g><g transform="translate(-30,-30) scale(1,1)"><path fill="none" stroke="#000000" d="M 286 353 L 423 301" stroke-miterlimit="10" stroke-dasharray="3"></path></g><g transform="translate(-30,-30) scale(1,1)"><path fill="#ffffff" stroke="none" d="M 96 408 L 193 408 L 203 418 L 203 483 L 96 483 L 96 408"></path></g><g transform="translate(-30,-30) scale(1,1)"><path fill="none" stroke="#000000" d="M 96 408 L 193 408 L 203 418 L 203 483 L 96 483 L 96 408 L 96 408" stroke-miterlimit="10"></path></g><g transform="translate(-30,-30) scale(1,1)"><path fill="none" stroke="#000000" d="M 193 408 L 193 418 L 203 418 L 193 408" stroke-miterlimit="10"></path></g><g transform="translate(-30,-30) scale(1,1)"><g><path fill="none" stroke="none"></path><text fill="#000000" stroke="none" font-family="Arial" font-size="13px" font-style="normal" font-weight="normal" text-decoration="none" x="101" y="426">Some of them</text><text fill="#000000" stroke="none" font-family="Arial" font-size="13px" font-style="normal" font-weight="normal" text-decoration="none" x="101" y="439">are considered</text><text fill="#000000" stroke="none" font-family="Arial" font-size="13px" font-style="normal" font-weight="normal" text-decoration="none" x="101" y="452">"Best-sellers"</text></g></g><g transform="translate(-30,-30) scale(1,1)"><path fill="none" stroke="#000000" d="M 199 407 L 221 389" stroke-miterlimit="10" stroke-dasharray="3"></path></g><g transform="translate(-30,-30) scale(1,1)"><rect fill="#C0C0C0" stroke="none" x="319" y="135" width="64" height="44" opacity="0.2"></rect></g><g transform="translate(-30,-30) scale(1,1)"><rect fill="#f73333" stroke="none" x="312" y="128" width="64" height="44"></rect></g><g transform="translate(-30,-30) scale(1,1)"><path fill="none" stroke="#000000" d="M 312 128 L 376 128 L 376 172 L 312 172 L 312 128 Z Z" stroke-miterlimit="10"></path></g><g transform="translate(-30,-30) scale(1,1)"><path fill="none" stroke="#000000" d="M 312 153 L 376 153" stroke-miterlimit="10"></path></g><g transform="translate(-30,-30) scale(1,1)"><path fill="none" stroke="#000000" d="M 312 163 L 376 163" stroke-miterlimit="10"></path></g><g transform="translate(-30,-30) scale(1,1)"><g><path fill="none" stroke="none"></path><text fill="#000000" stroke="none" font-family="Arial" font-size="13px" font-style="normal" font-weight="bold" text-decoration="none" x="320.5" y="147.5">Reviews</text></g></g><g transform="translate(-30,-30) scale(1,1)"><path fill="none" stroke="#000000" d="M 338 173 L 326 223" stroke-miterlimit="10"></path></g><g transform="translate(-30,-30) scale(1,1)"><path fill="#ffffff" stroke="none" d="M 320 40 L 485 40 L 495 50 L 495 87 L 320 87 L 320 40"></path></g><g transform="translate(-30,-30) scale(1,1)"><path fill="none" stroke="#000000" d="M 320 40 L 485 40 L 495 50 L 495 87 L 320 87 L 320 40 L 320 40" stroke-miterlimit="10"></path></g><g transform="translate(-30,-30) scale(1,1)"><path fill="none" stroke="#000000" d="M 485 40 L 485 50 L 495 50 L 485 40" stroke-miterlimit="10"></path></g><g transform="translate(-30,-30) scale(1,1)"><g><path fill="none" stroke="none"></path><text fill="#e73232" stroke="none" font-family="Arial" font-size="13px" font-style="normal" font-weight="normal" text-decoration="none" x="325" y="58">Stored in Supplier item</text><text fill="#e73232" stroke="none" font-family="Arial" font-size="13px" font-style="normal" font-weight="normal" text-decoration="none" x="325" y="71">Webpage (NOT US)</text></g></g><g transform="translate(-30,-30) scale(1,1)"><path fill="none" stroke="#000000" d="M 389 89 L 361 127" stroke-miterlimit="10" stroke-dasharray="3"></path></g><g transform="translate(-30,-30) scale(1,1)"><rect fill="#C0C0C0" stroke="none" x="231" y="71" width="61" height="44" opacity="0.2"></rect></g><g transform="translate(-30,-30) scale(1,1)"><rect fill="#ffffff" stroke="none" x="224" y="64" width="61" height="44"></rect></g><g transform="translate(-30,-30) scale(1,1)"><path fill="none" stroke="#000000" d="M 224 64 L 285 64 L 285 108 L 224 108 L 224 64 Z Z" stroke-miterlimit="10"></path></g><g transform="translate(-30,-30) scale(1,1)"><path fill="none" stroke="#000000" d="M 224 89 L 285 89" stroke-miterlimit="10"></path></g><g transform="translate(-30,-30) scale(1,1)"><path fill="none" stroke="#000000" d="M 224 99 L 285 99" stroke-miterlimit="10"></path></g><g transform="translate(-30,-30) scale(1,1)"><g><path fill="none" stroke="none"></path><text fill="#000000" stroke="none" font-family="Arial" font-size="13px" font-style="normal" font-weight="bold" text-decoration="none" x="230.5" y="83.5">Pictures</text></g></g><g transform="translate(-30,-30) scale(1,1)"><path fill="none" stroke="#000000" d="M 263 109 L 311 223" stroke-miterlimit="10"></path></g><g transform="translate(-30,-30) scale(1,1)"><path fill="#ffffff" stroke="none" d="M 344 416 L 532 416 L 542 426 L 542 479 L 344 479 L 344 416"></path></g><g transform="translate(-30,-30) scale(1,1)"><path fill="none" stroke="#000000" d="M 344 416 L 532 416 L 542 426 L 542 479 L 344 479 L 344 416 L 344 416" stroke-miterlimit="10"></path></g><g transform="translate(-30,-30) scale(1,1)"><path fill="none" stroke="#000000" d="M 532 416 L 532 426 L 542 426 L 532 416" stroke-miterlimit="10"></path></g><g transform="translate(-30,-30) scale(1,1)"><g><path fill="none" stroke="none"></path><text fill="#000000" stroke="none" font-family="Arial" font-size="13px" font-style="normal" font-weight="normal" text-decoration="none" x="349" y="434">Sales must have a token,</text><text fill="#000000" stroke="none" font-family="Arial" font-size="13px" font-style="normal" font-weight="normal" text-decoration="none" x="349" y="447">injected to acquisition page url</text><text fill="#000000" stroke="none" font-family="Arial" font-size="13px" font-style="normal" font-weight="normal" text-decoration="none" x="349" y="460">containing items identifier</text></g></g><g transform="translate(-30,-30) scale(1,1)"><path fill="none" stroke="#000000" d="M 435 415 L 429 389" stroke-miterlimit="10" stroke-dasharray="3"></path></g><g transform="translate(-30,-30) scale(1,1)"><path fill="#ffffff" stroke="none" d="M 80 40 L 152 40 L 162 50 L 162 128 L 80 128 L 80 40"></path></g><g transform="translate(-30,-30) scale(1,1)"><path fill="none" stroke="#000000" d="M 80 40 L 152 40 L 162 50 L 162 128 L 80 128 L 80 40 L 80 40" stroke-miterlimit="10"></path></g><g transform="translate(-30,-30) scale(1,1)"><path fill="none" stroke="#000000" d="M 152 40 L 152 50 L 162 50 L 152 40" stroke-miterlimit="10"></path></g><g transform="translate(-30,-30) scale(1,1)"><g><path fill="none" stroke="none"></path><text fill="#000000" stroke="none" font-family="Arial" font-size="13px" font-style="normal" font-weight="normal" text-decoration="none" x="85" y="58">LowRes and</text><text fill="#000000" stroke="none" font-family="Arial" font-size="13px" font-style="normal" font-weight="normal" text-decoration="none" x="85" y="71">Reduced</text><text fill="#000000" stroke="none" font-family="Arial" font-size="13px" font-style="normal" font-weight="normal" text-decoration="none" x="85" y="84">Bitmap</text><text fill="#000000" stroke="none" font-family="Arial" font-size="13px" font-style="normal" font-weight="normal" text-decoration="none" x="85" y="97">must be</text><text fill="#000000" stroke="none" font-family="Arial" font-size="13px" font-style="normal" font-weight="normal" text-decoration="none" x="85" y="110">produced.</text></g></g><g transform="translate(-30,-30) scale(1,1)"><path fill="none" stroke="#000000" d="M 164 85 L 223 86" stroke-miterlimit="10" stroke-dasharray="3"></path></g><g transform="translate(-30,-30) scale(1,1)"><rect fill="#C0C0C0" stroke="none" x="551" y="175" width="72" height="44" opacity="0.2"></rect></g><g transform="translate(-30,-30) scale(1,1)"><rect fill="#ffffff" stroke="none" x="544" y="168" width="72" height="44"></rect></g><g transform="translate(-30,-30) scale(1,1)"><path fill="none" stroke="#000000" d="M 544 168 L 616 168 L 616 212 L 544 212 L 544 168 Z Z" stroke-miterlimit="10"></path></g><g transform="translate(-30,-30) scale(1,1)"><path fill="none" stroke="#000000" d="M 544 193 L 616 193" stroke-miterlimit="10"></path></g><g transform="translate(-30,-30) scale(1,1)"><path fill="none" stroke="#000000" d="M 544 203 L 616 203" stroke-miterlimit="10"></path></g><g transform="translate(-30,-30) scale(1,1)"><g><path fill="none" stroke="none"></path><text fill="#000000" stroke="none" font-family="Arial" font-size="13px" font-style="normal" font-weight="bold" text-decoration="none" x="552.5" y="187.5">Revisions</text></g></g><g transform="translate(-30,-30) scale(1,1)"><path fill="none" stroke="#000000" d="M 346 240 L 543 198" stroke-miterlimit="10"></path></g><g transform="translate(-30,-30) scale(1,1)"><rect fill="#C0C0C0" stroke="none" x="567" y="63" width="97" height="44" opacity="0.2"></rect></g><g transform="translate(-30,-30) scale(1,1)"><rect fill="#ffffff" stroke="none" x="560" y="56" width="97" height="44"></rect></g><g transform="translate(-30,-30) scale(1,1)"><path fill="none" stroke="#000000" d="M 560 56 L 657 56 L 657 100 L 560 100 L 560 56 Z Z" stroke-miterlimit="10"></path></g><g transform="translate(-30,-30) scale(1,1)"><path fill="none" stroke="#000000" d="M 560 81 L 657 81" stroke-miterlimit="10"></path></g><g transform="translate(-30,-30) scale(1,1)"><path fill="none" stroke="#000000" d="M 560 91 L 657 91" stroke-miterlimit="10"></path></g><g transform="translate(-30,-30) scale(1,1)"><g><path fill="none" stroke="none"></path><text fill="#000000" stroke="none" font-family="Arial" font-size="13px" font-style="normal" font-weight="bold" text-decoration="none" x="568.5" y="75.5">Spreadsheets</text></g></g><g transform="translate(-30,-30) scale(1,1)"><path fill="none" stroke="#000000" d="M 586 167 L 602 101" stroke-miterlimit="10"></path></g><g transform="translate(-30,-30) scale(1,1)"><path fill="none" stroke="#000000" d="M 569 101 L 346 231" stroke-miterlimit="10"></path></g><g transform="translate(-30,-30) scale(1,1)"><path fill="#ffffff" stroke="none" d="M 680 104 L 766 104 L 776 114 L 776 192 L 680 192 L 680 104"></path></g><g transform="translate(-30,-30) scale(1,1)"><path fill="none" stroke="#000000" d="M 680 104 L 766 104 L 776 114 L 776 192 L 680 192 L 680 104 L 680 104" stroke-miterlimit="10"></path></g><g transform="translate(-30,-30) scale(1,1)"><path fill="none" stroke="#000000" d="M 766 104 L 766 114 L 776 114 L 766 104" stroke-miterlimit="10"></path></g><g transform="translate(-30,-30) scale(1,1)"><g><path fill="none" stroke="none"></path><text fill="#000000" stroke="none" font-family="Arial" font-size="13px" font-style="normal" font-weight="normal" text-decoration="none" x="685" y="122">Cambios</text><text fill="#000000" stroke="none" font-family="Arial" font-size="13px" font-style="normal" font-weight="normal" text-decoration="none" x="685" y="135">producidos en</text><text fill="#000000" stroke="none" font-family="Arial" font-size="13px" font-style="normal" font-weight="normal" text-decoration="none" x="685" y="148">una</text><text fill="#000000" stroke="none" font-family="Arial" font-size="13px" font-style="normal" font-weight="normal" text-decoration="none" x="685" y="161">Importación de</text><text fill="#000000" stroke="none" font-family="Arial" font-size="13px" font-style="normal" font-weight="normal" text-decoration="none" x="685" y="174">un excel</text></g></g><g transform="translate(-30,-30) scale(1,1)"><path fill="none" stroke="#000000" d="M 594 134 L 679 143" stroke-miterlimit="10" stroke-dasharray="3"></path></g></g></svg>