<svg version="1.1" xmlns="http://www.w3.org/2000/svg" xmlns:xlink="http://www.w3.org/1999/xlink" width="810" height="409"><defs></defs><g><g transform="translate(-6,-14) scale(1,1)"><rect fill="#C0C0C0" stroke="none" x="31" y="31" width="123" height="87" opacity="0.2"></rect></g><g transform="translate(-6,-14) scale(1,1)"><rect fill="#ffffff" stroke="none" x="24" y="24" width="123" height="87"></rect></g><g transform="translate(-6,-14) scale(1,1)"><path fill="none" stroke="#000000" d="M 24 24 L 147 24 L 147 111 L 24 111 L 24 24 Z Z" stroke-miterlimit="10"></path></g><g transform="translate(-6,-14) scale(1,1)"><path fill="none" stroke="#000000" d="M 24 49 L 147 49" stroke-miterlimit="10"></path></g><g transform="translate(-6,-14) scale(1,1)"><path fill="none" stroke="#000000" d="M 24 87 L 147 87" stroke-miterlimit="10"></path></g><g transform="translate(-6,-14) scale(1,1)"><g><path fill="none" stroke="none"></path><text fill="#000000" stroke="none" font-family="Arial" font-size="13px" font-style="normal" font-weight="bold" text-decoration="none" x="58" y="43.5">Searches</text></g></g><g transform="translate(-6,-14) scale(1,1)"><g><path fill="none" stroke="none"></path><text fill="#000000" stroke="none" font-family="Arial" font-size="13px" font-style="normal" font-weight="normal" text-decoration="none" x="29" y="66.5">+Color</text></g></g><g transform="translate(-6,-14) scale(1,1)"><g><path fill="none" stroke="none"></path><text fill="#000000" stroke="none" font-family="Arial" font-size="13px" font-style="normal" font-weight="normal" text-decoration="none" x="29" y="81.5">+Price</text></g></g><g transform="translate(-6,-14) scale(1,1)"><rect fill="#C0C0C0" stroke="none" x="455" y="335" width="74" height="57" opacity="0.2"></rect></g><g transform="translate(-6,-14) scale(1,1)"><rect fill="#ffffff" stroke="none" x="448" y="328" width="74" height="57"></rect></g><g transform="translate(-6,-14) scale(1,1)"><path fill="none" stroke="#000000" d="M 448 328 L 522 328 L 522 385 L 448 385 L 448 328 Z Z" stroke-miterlimit="10"></path></g><g transform="translate(-6,-14) scale(1,1)"><path fill="none" stroke="#000000" d="M 448 353 L 522 353" stroke-miterlimit="10"></path></g><g transform="translate(-6,-14) scale(1,1)"><path fill="none" stroke="#000000" d="M 448 376 L 522 376" stroke-miterlimit="10"></path></g><g transform="translate(-6,-14) scale(1,1)"><g><path fill="none" stroke="none"></path><text fill="#000000" stroke="none" font-family="Arial" font-size="13px" font-style="normal" font-weight="bold" text-decoration="none" x="459" y="347.5">Compras</text></g></g><g transform="translate(-6,-14) scale(1,1)"><g><path fill="none" stroke="none"></path><text fill="#000000" stroke="none" font-family="Arial" font-size="13px" font-style="normal" font-weight="normal" text-decoration="none" x="453" y="370.5">+quantity</text></g></g><g transform="translate(-6,-14) scale(1,1)"><rect fill="#C0C0C0" stroke="none" x="191" y="31" width="136" height="72" opacity="0.2"></rect></g><g transform="translate(-6,-14) scale(1,1)"><rect fill="#ffffff" stroke="none" x="184" y="24" width="136" height="72"></rect></g><g transform="translate(-6,-14) scale(1,1)"><path fill="none" stroke="#000000" d="M 184 24 L 320 24 L 320 96 L 184 96 L 184 24 Z Z" stroke-miterlimit="10"></path></g><g transform="translate(-6,-14) scale(1,1)"><path fill="none" stroke="#000000" d="M 184 49 L 320 49" stroke-miterlimit="10"></path></g><g transform="translate(-6,-14) scale(1,1)"><path fill="none" stroke="#000000" d="M 184 87 L 320 87" stroke-miterlimit="10"></path></g><g transform="translate(-6,-14) scale(1,1)"><g><path fill="none" stroke="none"></path><text fill="#000000" stroke="none" font-family="Arial" font-size="13px" font-style="normal" font-weight="bold" text-decoration="none" x="221" y="43.5">Categories</text></g></g><g transform="translate(-6,-14) scale(1,1)"><g><path fill="none" stroke="none"></path><text fill="#000000" stroke="none" font-family="Arial" font-size="13px" font-style="normal" font-weight="normal" text-decoration="none" x="189" y="66.5">+ID</text></g></g><g transform="translate(-6,-14) scale(1,1)"><g><path fill="none" stroke="none"></path><text fill="#000000" stroke="none" font-family="Arial" font-size="13px" font-style="normal" font-weight="normal" text-decoration="none" x="189" y="81.5">+Tag or category</text></g></g><g transform="translate(-6,-14) scale(1,1)"><rect fill="#C0C0C0" stroke="none" x="71" y="167" width="89" height="72" opacity="0.2"></rect></g><g transform="translate(-6,-14) scale(1,1)"><rect fill="#ffffff" stroke="none" x="64" y="160" width="89" height="72"></rect></g><g transform="translate(-6,-14) scale(1,1)"><path fill="none" stroke="#000000" d="M 64 160 L 153 160 L 153 232 L 64 232 L 64 160 Z Z" stroke-miterlimit="10"></path></g><g transform="translate(-6,-14) scale(1,1)"><path fill="none" stroke="#000000" d="M 64 185 L 153 185" stroke-miterlimit="10"></path></g><g transform="translate(-6,-14) scale(1,1)"><path fill="none" stroke="#000000" d="M 64 223 L 153 223" stroke-miterlimit="10"></path></g><g transform="translate(-6,-14) scale(1,1)"><g><path fill="none" stroke="none"></path><text fill="#000000" stroke="none" font-family="Arial" font-size="13px" font-style="normal" font-weight="bold" text-decoration="none" x="81.5" y="179.5">Suppliers</text></g></g><g transform="translate(-6,-14) scale(1,1)"><g><path fill="none" stroke="none"></path><text fill="#000000" stroke="none" font-family="Arial" font-size="13px" font-style="normal" font-weight="normal" text-decoration="none" x="69" y="202.5">+Id</text></g></g><g transform="translate(-6,-14) scale(1,1)"><g><path fill="none" stroke="none"></path><text fill="#000000" stroke="none" font-family="Arial" font-size="13px" font-style="normal" font-weight="normal" text-decoration="none" x="69" y="217.5">+URL</text></g></g><g transform="translate(-6,-14) scale(1,1)"><rect fill="#C0C0C0" stroke="none" x="639" y="47" width="118" height="87" opacity="0.2"></rect></g><g transform="translate(-6,-14) scale(1,1)"><rect fill="#ffffff" stroke="none" x="632" y="40" width="118" height="87"></rect></g><g transform="translate(-6,-14) scale(1,1)"><path fill="none" stroke="#000000" d="M 632 40 L 750 40 L 750 127 L 632 127 L 632 40 Z Z" stroke-miterlimit="10"></path></g><g transform="translate(-6,-14) scale(1,1)"><path fill="none" stroke="#000000" d="M 632 65 L 750 65" stroke-miterlimit="10"></path></g><g transform="translate(-6,-14) scale(1,1)"><path fill="none" stroke="#000000" d="M 632 118 L 750 118" stroke-miterlimit="10"></path></g><g transform="translate(-6,-14) scale(1,1)"><g><path fill="none" stroke="none"></path><text fill="#000000" stroke="none" font-family="Arial" font-size="13px" font-style="normal" font-weight="bold" text-decoration="none" x="644" y="59.5">SuggestedItems</text></g></g><g transform="translate(-6,-14) scale(1,1)"><g><path fill="none" stroke="none"></path><text fill="#000000" stroke="none" font-family="Arial" font-size="13px" font-style="normal" font-weight="normal" text-decoration="none" x="637" y="82.5">+by description</text></g></g><g transform="translate(-6,-14) scale(1,1)"><g><path fill="none" stroke="none"></path><text fill="#000000" stroke="none" font-family="Arial" font-size="13px" font-style="normal" font-weight="normal" text-decoration="none" x="637" y="97.5">+same supplier</text></g></g><g transform="translate(-6,-14) scale(1,1)"><g><path fill="none" stroke="none"></path><text fill="#000000" stroke="none" font-family="Arial" font-size="13px" font-style="normal" font-weight="normal" text-decoration="none" x="637" y="112.5">+same category</text></g></g><g transform="translate(-6,-14) scale(1,1)"><path fill="none" stroke="#000000" d="M 148 64 L 183 63" stroke-miterlimit="10"></path></g><g transform="translate(-6,-14) scale(1,1)"><path fill="none" stroke="#000000" d="M 172.96169351038094 67.4980443328709 L 183 63 L 172.7212477597107 59.082443059412185" stroke-miterlimit="10"></path></g><g transform="translate(-6,-14) scale(1,1)"><path fill="none" stroke="#000000" d="M 213 97 L 147 159" stroke-miterlimit="10"></path></g><g transform="translate(-6,-14) scale(1,1)"><path fill="none" stroke="#000000" d="M 151.52489246431415 148.9737669991969 L 147 159 L 157.28919949028065 155.10996480103222" stroke-miterlimit="10"></path></g><g transform="translate(-6,-14) scale(1,1)"><rect fill="#C0C0C0" stroke="none" x="631" y="175" width="182" height="57" opacity="0.2"></rect></g><g transform="translate(-6,-14) scale(1,1)"><rect fill="#ffffff" stroke="none" x="624" y="168" width="182" height="57"></rect></g><g transform="translate(-6,-14) scale(1,1)"><path fill="none" stroke="#000000" d="M 624 168 L 806 168 L 806 225 L 624 225 L 624 168 Z Z" stroke-miterlimit="10"></path></g><g transform="translate(-6,-14) scale(1,1)"><path fill="none" stroke="#000000" d="M 624 193 L 806 193" stroke-miterlimit="10"></path></g><g transform="translate(-6,-14) scale(1,1)"><path fill="none" stroke="#000000" d="M 624 216 L 806 216" stroke-miterlimit="10"></path></g><g transform="translate(-6,-14) scale(1,1)"><g><path fill="none" stroke="none"></path><text fill="#000000" stroke="none" font-family="Arial" font-size="13px" font-style="normal" font-weight="bold" text-decoration="none" x="694" y="187.5">Tokens</text></g></g><g transform="translate(-6,-14) scale(1,1)"><g><path fill="none" stroke="none"></path><text fill="#000000" stroke="none" font-family="Arial" font-size="13px" font-style="normal" font-weight="normal" text-decoration="none" x="629" y="210.5">+ID</text></g></g><g transform="translate(-6,-14) scale(1,1)"><path fill="none" stroke="#000000" d="M 523 330 L 672 226" stroke-miterlimit="10"></path></g><g transform="translate(-6,-14) scale(1,1)"><path fill="none" stroke="#000000" d="M 666.0758706076446 235.26847835098246 L 672 226 L 661.2572040407786 228.36481182729938" stroke-miterlimit="10"></path></g><g transform="translate(-6,-14) scale(1,1)"><rect fill="#C0C0C0" stroke="none" x="175" y="303" width="133" height="117" opacity="0.2"></rect></g><g transform="translate(-6,-14) scale(1,1)"><rect fill="#ffffff" stroke="none" x="168" y="296" width="133" height="117"></rect></g><g transform="translate(-6,-14) scale(1,1)"><path fill="none" stroke="#000000" d="M 168 296 L 301 296 L 301 413 L 168 413 L 168 296 Z Z" stroke-miterlimit="10"></path></g><g transform="translate(-6,-14) scale(1,1)"><path fill="none" stroke="#000000" d="M 168 321 L 301 321" stroke-miterlimit="10"></path></g><g transform="translate(-6,-14) scale(1,1)"><path fill="none" stroke="#000000" d="M 168 404 L 301 404" stroke-miterlimit="10"></path></g><g transform="translate(-6,-14) scale(1,1)"><g><path fill="none" stroke="none"></path><text fill="#000000" stroke="none" font-family="Arial" font-size="13px" font-style="normal" font-weight="bold" text-decoration="none" x="218.5" y="315.5">Items</text></g></g><g transform="translate(-6,-14) scale(1,1)"><g><path fill="none" stroke="none"></path><text fill="#000000" stroke="none" font-family="Arial" font-size="13px" font-style="normal" font-weight="normal" text-decoration="none" x="173" y="338.5">+ID</text></g></g><g transform="translate(-6,-14) scale(1,1)"><g><path fill="none" stroke="none"></path><text fill="#000000" stroke="none" font-family="Arial" font-size="13px" font-style="normal" font-weight="normal" text-decoration="none" x="173" y="353.5">+Image</text></g></g><g transform="translate(-6,-14) scale(1,1)"><g><path fill="none" stroke="none"></path><text fill="#000000" stroke="none" font-family="Arial" font-size="13px" font-style="normal" font-weight="normal" text-decoration="none" x="173" y="368.5">+Short description</text></g></g><g transform="translate(-6,-14) scale(1,1)"><g><path fill="none" stroke="none"></path><text fill="#000000" stroke="none" font-family="Arial" font-size="13px" font-style="normal" font-weight="normal" text-decoration="none" x="173" y="383.5">+Price</text></g></g><g transform="translate(-6,-14) scale(1,1)"><g><path fill="none" stroke="none"></path><text fill="#000000" stroke="none" font-family="Arial" font-size="13px" font-style="normal" font-weight="normal" text-decoration="none" x="173" y="398.5">+Supplier</text></g></g><g transform="translate(-6,-14) scale(1,1)"><path fill="none" stroke="#000000" d="M 302 314 L 631 119" stroke-miterlimit="10"></path></g><g transform="translate(-6,-14) scale(1,1)"><path fill="none" stroke="#000000" d="M 624.4038924452002 127.8029179892529 L 631 119 L 620.1112446141354 120.56045062299499" stroke-miterlimit="10"></path></g><g transform="translate(-6,-14) scale(1,1)"><g><path fill="none" stroke="none"></path><text fill="#000000" stroke="none" font-family="Arial" font-size="13px" font-style="normal" font-weight="normal" text-decoration="none" x="427" y="210">+despliega</text></g></g><g transform="translate(-6,-14) scale(1,1)"><g><path fill="none" stroke="none"></path><text fill="#000000" stroke="none" font-family="Arial" font-size="13px" font-style="normal" font-weight="normal" text-decoration="none" x="323" y="320">1</text></g></g><g transform="translate(-6,-14) scale(1,1)"><g><path fill="none" stroke="none"></path><text fill="#000000" stroke="none" font-family="Arial" font-size="13px" font-style="normal" font-weight="normal" text-decoration="none" x="615" y="147">1</text></g></g><g transform="translate(-6,-14) scale(1,1)"><rect fill="#C0C0C0" stroke="none" x="23" y="279" width="95" height="44" opacity="0.2"></rect></g><g transform="translate(-6,-14) scale(1,1)"><rect fill="#ffffff" stroke="none" x="16" y="272" width="95" height="44"></rect></g><g transform="translate(-6,-14) scale(1,1)"><path fill="none" stroke="#000000" d="M 16 272 L 111 272 L 111 316 L 16 316 L 16 272 Z Z" stroke-miterlimit="10"></path></g><g transform="translate(-6,-14) scale(1,1)"><path fill="none" stroke="#000000" d="M 16 297 L 111 297" stroke-miterlimit="10"></path></g><g transform="translate(-6,-14) scale(1,1)"><path fill="none" stroke="#000000" d="M 16 307 L 111 307" stroke-miterlimit="10"></path></g><g transform="translate(-6,-14) scale(1,1)"><g><path fill="none" stroke="none"></path><text fill="#000000" stroke="none" font-family="Arial" font-size="13px" font-style="normal" font-weight="bold" text-decoration="none" x="23.5" y="291.5">Spreadsheets</text></g></g></g></svg>