<svg version="1.1" xmlns="http://www.w3.org/2000/svg" xmlns:xlink="http://www.w3.org/1999/xlink" width="747" height="524"><defs></defs><g><g transform="translate(-142,-30) scale(1,1)"><rect fill="#C0C0C0" stroke="none" x="423" y="255" width="96" height="117" opacity="0.2"></rect></g><g transform="translate(-142,-30) scale(1,1)"><rect fill="#ffffff" stroke="none" x="416" y="248" width="96" height="117"></rect></g><g transform="translate(-142,-30) scale(1,1)"><path fill="none" stroke="#000000" d="M 416 248 L 512 248 L 512 365 L 416 365 L 416 248 Z Z" stroke-miterlimit="10"></path></g><g transform="translate(-142,-30) scale(1,1)"><path fill="none" stroke="#000000" d="M 416 273 L 512 273" stroke-miterlimit="10"></path></g><g transform="translate(-142,-30) scale(1,1)"><path fill="none" stroke="#000000" d="M 416 341 L 512 341" stroke-miterlimit="10"></path></g><g transform="translate(-142,-30) scale(1,1)"><g><path fill="none" stroke="none"></path><text fill="#000000" stroke="none" font-family="Arial" font-size="13px" font-style="normal" font-weight="bold" text-decoration="none" x="448" y="267.5">Items</text></g></g><g transform="translate(-142,-30) scale(1,1)"><g><path fill="none" stroke="none"></path><text fill="#000000" stroke="none" font-family="Arial" font-size="13px" font-style="normal" font-weight="normal" text-decoration="none" x="421" y="290.5">+Id</text></g></g><g transform="translate(-142,-30) scale(1,1)"><g><path fill="none" stroke="none"></path><text fill="#000000" stroke="none" font-family="Arial" font-size="13px" font-style="normal" font-weight="normal" text-decoration="none" x="421" y="305.5">+Nombre</text></g></g><g transform="translate(-142,-30) scale(1,1)"><g><path fill="none" stroke="none"></path><text fill="#000000" stroke="none" font-family="Arial" font-size="13px" font-style="normal" font-weight="normal" text-decoration="none" x="421" y="320.5">+Descripción</text></g></g><g transform="translate(-142,-30) scale(1,1)"><g><path fill="none" stroke="none"></path><text fill="#000000" stroke="none" font-family="Arial" font-size="13px" font-style="normal" font-weight="normal" text-decoration="none" x="421" y="335.5">+Precio</text></g></g><g transform="translate(-142,-30) scale(1,1)"><rect fill="#C0C0C0" stroke="none" x="599" y="287" width="99" height="72" opacity="0.2"></rect></g><g transform="translate(-142,-30) scale(1,1)"><rect fill="#ffffff" stroke="none" x="592" y="280" width="99" height="72"></rect></g><g transform="translate(-142,-30) scale(1,1)"><path fill="none" stroke="#000000" d="M 592 280 L 691 280 L 691 352 L 592 352 L 592 280 Z Z" stroke-miterlimit="10"></path></g><g transform="translate(-142,-30) scale(1,1)"><path fill="none" stroke="#000000" d="M 592 305 L 691 305" stroke-miterlimit="10"></path></g><g transform="translate(-142,-30) scale(1,1)"><path fill="none" stroke="#000000" d="M 592 343 L 691 343" stroke-miterlimit="10"></path></g><g transform="translate(-142,-30) scale(1,1)"><g><path fill="none" stroke="none"></path><text fill="#000000" stroke="none" font-family="Arial" font-size="13px" font-style="normal" font-weight="bold" text-decoration="none" x="610.5" y="299.5">Categories</text></g></g><g transform="translate(-142,-30) scale(1,1)"><g><path fill="none" stroke="none"></path><text fill="#000000" stroke="none" font-family="Arial" font-size="13px" font-style="normal" font-weight="normal" text-decoration="none" x="597" y="322.5">+Nombre</text></g></g><g transform="translate(-142,-30) scale(1,1)"><g><path fill="none" stroke="none"></path><text fill="#000000" stroke="none" font-family="Arial" font-size="13px" font-style="normal" font-weight="normal" text-decoration="none" x="597" y="337.5">+EsTag</text></g></g><g transform="translate(-142,-30) scale(1,1)"><rect fill="#C0C0C0" stroke="none" x="423" y="47" width="95" height="57" opacity="0.2"></rect></g><g transform="translate(-142,-30) scale(1,1)"><rect fill="#ffffff" stroke="none" x="416" y="40" width="95" height="57"></rect></g><g transform="translate(-142,-30) scale(1,1)"><path fill="none" stroke="#000000" d="M 416 40 L 511 40 L 511 97 L 416 97 L 416 40 Z Z" stroke-miterlimit="10"></path></g><g transform="translate(-142,-30) scale(1,1)"><path fill="none" stroke="#000000" d="M 416 65 L 511 65" stroke-miterlimit="10"></path></g><g transform="translate(-142,-30) scale(1,1)"><path fill="none" stroke="#000000" d="M 416 88 L 511 88" stroke-miterlimit="10"></path></g><g transform="translate(-142,-30) scale(1,1)"><g><path fill="none" stroke="none"></path><text fill="#000000" stroke="none" font-family="Arial" font-size="13px" font-style="normal" font-weight="bold" text-decoration="none" x="436" y="59.5">Database</text></g></g><g transform="translate(-142,-30) scale(1,1)"><g><path fill="none" stroke="none"></path><text fill="#000000" stroke="none" font-family="Arial" font-size="13px" font-style="normal" font-weight="normal" text-decoration="none" x="421" y="82.5">+Nombre</text></g></g><g transform="translate(-142,-30) scale(1,1)"><rect fill="#C0C0C0" stroke="none" x="647" y="47" width="127" height="57" opacity="0.2"></rect></g><g transform="translate(-142,-30) scale(1,1)"><rect fill="#ffffff" stroke="none" x="640" y="40" width="127" height="57"></rect></g><g transform="translate(-142,-30) scale(1,1)"><path fill="none" stroke="#000000" d="M 640 40 L 767 40 L 767 97 L 640 97 L 640 40 Z Z" stroke-miterlimit="10"></path></g><g transform="translate(-142,-30) scale(1,1)"><path fill="none" stroke="#000000" d="M 640 65 L 767 65" stroke-miterlimit="10"></path></g><g transform="translate(-142,-30) scale(1,1)"><path fill="none" stroke="#000000" d="M 640 88 L 767 88" stroke-miterlimit="10"></path></g><g transform="translate(-142,-30) scale(1,1)"><g><path fill="none" stroke="none"></path><text fill="#000000" stroke="none" font-family="Arial" font-size="13px" font-style="normal" font-weight="bold" text-decoration="none" x="667" y="59.5">Spreadsheet</text></g></g><g transform="translate(-142,-30) scale(1,1)"><g><path fill="none" stroke="none"></path><text fill="#000000" stroke="none" font-family="Arial" font-size="13px" font-style="normal" font-weight="normal" text-decoration="none" x="645" y="82.5">+Nombre</text></g></g><g transform="translate(-142,-30) scale(1,1)"><path fill="none" stroke="#000000" d="M 463 98 L 464 247" stroke-miterlimit="10"></path></g><g transform="translate(-142,-30) scale(1,1)"><g><path fill="none" stroke="none"></path><text fill="#000000" stroke="none" font-family="Arial" font-size="13px" font-style="normal" font-weight="normal" text-decoration="none" x="448" y="178">+Contiene</text></g></g><g transform="translate(-142,-30) scale(1,1)"><g><path fill="none" stroke="none"></path><text fill="#000000" stroke="none" font-family="Arial" font-size="13px" font-style="normal" font-weight="normal" text-decoration="none" x="447" y="126">1</text></g></g><g transform="translate(-142,-30) scale(1,1)"><g><path fill="none" stroke="none"></path><text fill="#000000" stroke="none" font-family="Arial" font-size="13px" font-style="normal" font-weight="normal" text-decoration="none" x="449" y="232">*</text></g></g><g transform="translate(-142,-30) scale(1,1)"><path fill="none" stroke="#000000" d="M 513 309 L 591 313" stroke-miterlimit="10"></path></g><g transform="translate(-142,-30) scale(1,1)"><g><path fill="none" stroke="none"></path><text fill="#000000" stroke="none" font-family="Arial" font-size="13px" font-style="normal" font-weight="normal" text-decoration="none" x="523" y="303">+Contiene</text></g></g><g transform="translate(-142,-30) scale(1,1)"><g><path fill="none" stroke="none"></path><text fill="#000000" stroke="none" font-family="Arial" font-size="13px" font-style="normal" font-weight="normal" text-decoration="none" x="531" y="329">*</text></g></g><g transform="translate(-142,-30) scale(1,1)"><g><path fill="none" stroke="none"></path><text fill="#000000" stroke="none" font-family="Arial" font-size="13px" font-style="normal" font-weight="normal" text-decoration="none" x="566" y="331">*</text></g></g><g transform="translate(-142,-30) scale(1,1)"><rect fill="#C0C0C0" stroke="none" x="527" y="479" width="96" height="72" opacity="0.2"></rect></g><g transform="translate(-142,-30) scale(1,1)"><rect fill="#ffffff" stroke="none" x="520" y="472" width="96" height="72"></rect></g><g transform="translate(-142,-30) scale(1,1)"><path fill="none" stroke="#000000" d="M 520 472 L 616 472 L 616 544 L 520 544 L 520 472 Z Z" stroke-miterlimit="10"></path></g><g transform="translate(-142,-30) scale(1,1)"><path fill="none" stroke="#000000" d="M 520 497 L 616 497" stroke-miterlimit="10"></path></g><g transform="translate(-142,-30) scale(1,1)"><path fill="none" stroke="#000000" d="M 520 535 L 616 535" stroke-miterlimit="10"></path></g><g transform="translate(-142,-30) scale(1,1)"><g><path fill="none" stroke="none"></path><text fill="#000000" stroke="none" font-family="Arial" font-size="13px" font-style="normal" font-weight="bold" text-decoration="none" x="541" y="491.5">Suppliers</text></g></g><g transform="translate(-142,-30) scale(1,1)"><g><path fill="none" stroke="none"></path><text fill="#000000" stroke="none" font-family="Arial" font-size="13px" font-style="normal" font-weight="normal" text-decoration="none" x="525" y="514.5">+Id</text></g></g><g transform="translate(-142,-30) scale(1,1)"><g><path fill="none" stroke="none"></path><text fill="#000000" stroke="none" font-family="Arial" font-size="13px" font-style="normal" font-weight="normal" text-decoration="none" x="525" y="529.5">+Nombre</text></g></g><g transform="translate(-142,-30) scale(1,1)"><path fill="none" stroke="#000000" d="M 495 366 L 549 471" stroke-miterlimit="10"></path></g><g transform="translate(-142,-30) scale(1,1)"><g><path fill="none" stroke="none"></path><text fill="#000000" stroke="none" font-family="Arial" font-size="13px" font-style="normal" font-weight="normal" text-decoration="none" x="506" y="418">+Contiene</text></g></g><g transform="translate(-142,-30) scale(1,1)"><g><path fill="none" stroke="none"></path><text fill="#000000" stroke="none" font-family="Arial" font-size="13px" font-style="normal" font-weight="normal" text-decoration="none" x="491" y="397">*</text></g></g><g transform="translate(-142,-30) scale(1,1)"><g><path fill="none" stroke="none"></path><text fill="#000000" stroke="none" font-family="Arial" font-size="13px" font-style="normal" font-weight="normal" text-decoration="none" x="524" y="464">1</text></g></g><g transform="translate(-142,-30) scale(1,1)"><path fill="none" stroke="#000000" d="M 512 68 L 639 68" stroke-miterlimit="10"></path></g><g transform="translate(-142,-30) scale(1,1)"><g><path fill="none" stroke="none"></path><text fill="#000000" stroke="none" font-family="Arial" font-size="13px" font-style="normal" font-weight="normal" text-decoration="none" x="546" y="60">+Contiene</text></g></g><g transform="translate(-142,-30) scale(1,1)"><g><path fill="none" stroke="none"></path><text fill="#000000" stroke="none" font-family="Arial" font-size="13px" font-style="normal" font-weight="normal" text-decoration="none" x="530" y="87">1</text></g></g><g transform="translate(-142,-30) scale(1,1)"><g><path fill="none" stroke="none"></path><text fill="#000000" stroke="none" font-family="Arial" font-size="13px" font-style="normal" font-weight="normal" text-decoration="none" x="614" y="87">1</text></g></g><g transform="translate(-142,-30) scale(1,1)"><rect fill="#C0C0C0" stroke="none" x="159" y="255" width="119" height="119" opacity="0.2"></rect></g><g transform="translate(-142,-30) scale(1,1)"><rect fill="#ffffff" stroke="none" x="152" y="248" width="119" height="119"></rect></g><g transform="translate(-142,-30) scale(1,1)"><path fill="none" stroke="#000000" d="M 152 248 L 271 248 L 271 367 L 152 367 L 152 248 Z Z" stroke-miterlimit="10"></path></g><g transform="translate(-142,-30) scale(1,1)"><path fill="none" stroke="#000000" d="M 152 273 L 271 273" stroke-miterlimit="10"></path></g><g transform="translate(-142,-30) scale(1,1)"><path fill="none" stroke="#000000" d="M 152 296 L 271 296" stroke-miterlimit="10"></path></g><g transform="translate(-142,-30) scale(1,1)"><g><path fill="none" stroke="none"></path><text fill="#000000" stroke="none" font-family="Arial" font-size="13px" font-style="normal" font-weight="bold" text-decoration="none" x="195" y="267.5">Sales</text></g></g><g transform="translate(-142,-30) scale(1,1)"><g><path fill="none" stroke="none"></path><text fill="#000000" stroke="none" font-family="Arial" font-size="13px" font-style="normal" font-weight="normal" text-decoration="none" x="157" y="290.5">+id</text></g></g><g transform="translate(-142,-30) scale(1,1)"><path fill="none" stroke="#000000" d="M 272 307 L 415 306" stroke-miterlimit="10"></path></g><g transform="translate(-142,-30) scale(1,1)"><g><path fill="none" stroke="none"></path><text fill="#000000" stroke="none" font-family="Arial" font-size="13px" font-style="normal" font-weight="normal" text-decoration="none" x="314" y="298">+Contiene</text></g></g><g transform="translate(-142,-30) scale(1,1)"><g><path fill="none" stroke="none"></path><text fill="#000000" stroke="none" font-family="Arial" font-size="13px" font-style="normal" font-weight="normal" text-decoration="none" x="291" y="326">*</text></g></g><g transform="translate(-142,-30) scale(1,1)"><g><path fill="none" stroke="none"></path><text fill="#000000" stroke="none" font-family="Arial" font-size="13px" font-style="normal" font-weight="normal" text-decoration="none" x="391" y="325">*</text></g></g><g transform="translate(-142,-30) scale(1,1)"><rect fill="#C0C0C0" stroke="none" x="767" y="239" width="119" height="95" opacity="0.2"></rect></g><g transform="translate(-142,-30) scale(1,1)"><rect fill="#ffffff" stroke="none" x="760" y="232" width="119" height="95"></rect></g><g transform="translate(-142,-30) scale(1,1)"><path fill="none" stroke="#000000" d="M 760 232 L 879 232 L 879 327 L 760 327 L 760 232 Z Z" stroke-miterlimit="10"></path></g><g transform="translate(-142,-30) scale(1,1)"><path fill="none" stroke="#000000" d="M 760 257 L 879 257" stroke-miterlimit="10"></path></g><g transform="translate(-142,-30) scale(1,1)"><path fill="none" stroke="#000000" d="M 760 295 L 879 295" stroke-miterlimit="10"></path></g><g transform="translate(-142,-30) scale(1,1)"><g><path fill="none" stroke="none"></path><text fill="#000000" stroke="none" font-family="Arial" font-size="13px" font-style="normal" font-weight="bold" text-decoration="none" x="795.5" y="251.5">Pictures</text></g></g><g transform="translate(-142,-30) scale(1,1)"><g><path fill="none" stroke="none"></path><text fill="#000000" stroke="none" font-family="Arial" font-size="13px" font-style="normal" font-weight="normal" text-decoration="none" x="765" y="274.5">+id</text></g></g><g transform="translate(-142,-30) scale(1,1)"><g><path fill="none" stroke="none"></path><text fill="#000000" stroke="none" font-family="Arial" font-size="13px" font-style="normal" font-weight="normal" text-decoration="none" x="765" y="289.5">+URL</text></g></g><g transform="translate(-142,-30) scale(1,1)"><path fill="none" stroke="#000000" d="M 719 98 L 793 231" stroke-miterlimit="10"></path></g><g transform="translate(-142,-30) scale(1,1)"><g><path fill="none" stroke="none"></path><text fill="#000000" stroke="none" font-family="Arial" font-size="13px" font-style="normal" font-weight="normal" text-decoration="none" x="740" y="163">+Contiene</text></g></g><g transform="translate(-142,-30) scale(1,1)"><g><path fill="none" stroke="none"></path><text fill="#000000" stroke="none" font-family="Arial" font-size="13px" font-style="normal" font-weight="normal" text-decoration="none" x="715" y="129">1</text></g></g><g transform="translate(-142,-30) scale(1,1)"><g><path fill="none" stroke="none"></path><text fill="#000000" stroke="none" font-family="Arial" font-size="13px" font-style="normal" font-weight="normal" text-decoration="none" x="769" y="225">*</text></g></g></g></svg>