<svg version="1.1" xmlns="http://www.w3.org/2000/svg" xmlns:xlink="http://www.w3.org/1999/xlink" width="873" height="537"><defs></defs><g><g transform="translate(-62,-86) scale(1,1)"><rect fill="#C0C0C0" stroke="none" x="463" y="191" width="107" height="207" opacity="0.2"></rect></g><g transform="translate(-62,-86) scale(1,1)"><rect fill="#ffffff" stroke="none" x="456" y="184" width="107" height="207"></rect></g><g transform="translate(-62,-86) scale(1,1)"><path fill="none" stroke="#000000" d="M 456 184 L 563 184 L 563 391 L 456 391 L 456 184 Z Z" stroke-miterlimit="10"></path></g><g transform="translate(-62,-86) scale(1,1)"><path fill="none" stroke="#000000" d="M 456 209 L 563 209" stroke-miterlimit="10"></path></g><g transform="translate(-62,-86) scale(1,1)"><path fill="none" stroke="#000000" d="M 456 367 L 563 367" stroke-miterlimit="10"></path></g><g transform="translate(-62,-86) scale(1,1)"><g><path fill="none" stroke="none"></path><text fill="#000000" stroke="none" font-family="Arial" font-size="13px" font-style="normal" font-weight="bold" text-decoration="none" x="493.5" y="203.5">Items</text></g></g><g transform="translate(-62,-86) scale(1,1)"><g><path fill="none" stroke="none"></path><text fill="#000000" stroke="none" font-family="Arial" font-size="13px" font-style="normal" font-weight="normal" text-decoration="none" x="461" y="226.5">+ref_code</text></g></g><g transform="translate(-62,-86) scale(1,1)"><g><path fill="none" stroke="none"></path><text fill="#000000" stroke="none" font-family="Arial" font-size="13px" font-style="normal" font-weight="normal" text-decoration="none" x="461" y="241.5">+description</text></g></g><g transform="translate(-62,-86) scale(1,1)"><g><path fill="none" stroke="none"></path><text fill="#000000" stroke="none" font-family="Arial" font-size="13px" font-style="normal" font-weight="normal" text-decoration="none" x="461" y="256.5">+title</text></g></g><g transform="translate(-62,-86) scale(1,1)"><g><path fill="none" stroke="none"></path><text fill="#000000" stroke="none" font-family="Arial" font-size="13px" font-style="normal" font-weight="normal" text-decoration="none" x="461" y="271.5">+price</text></g></g><g transform="translate(-62,-86) scale(1,1)"><g><path fill="none" stroke="none"></path><text fill="#000000" stroke="none" font-family="Arial" font-size="13px" font-style="normal" font-weight="normal" text-decoration="none" x="461" y="286.5">+sales_url</text></g></g><g transform="translate(-62,-86) scale(1,1)"><g><path fill="none" stroke="none"></path><text fill="#000000" stroke="none" font-family="Arial" font-size="13px" font-style="normal" font-weight="normal" text-decoration="none" x="461" y="301.5">+sales_qty</text></g></g><g transform="translate(-62,-86) scale(1,1)"><g><path fill="none" stroke="none"></path><text fill="#000000" stroke="none" font-family="Arial" font-size="13px" font-style="normal" font-weight="normal" text-decoration="none" x="461" y="316.5">+colours</text></g></g><g transform="translate(-62,-86) scale(1,1)"><g><path fill="none" stroke="none"></path><text fill="#000000" stroke="none" font-family="Arial" font-size="13px" font-style="normal" font-weight="normal" text-decoration="none" x="461" y="331.5">+created</text></g></g><g transform="translate(-62,-86) scale(1,1)"><g><path fill="none" stroke="none"></path><text fill="#000000" stroke="none" font-family="Arial" font-size="13px" font-style="normal" font-weight="normal" text-decoration="none" x="461" y="346.5">+updated</text></g></g><g transform="translate(-62,-86) scale(1,1)"><g><path fill="none" stroke="none"></path><text fill="#000000" stroke="none" font-family="Arial" font-size="13px" font-style="normal" font-weight="normal" text-decoration="none" x="461" y="361.5">+imported</text></g></g><g transform="translate(-62,-86) scale(1,1)"><rect fill="#C0C0C0" stroke="none" x="79" y="199" width="113" height="117" opacity="0.2"></rect></g><g transform="translate(-62,-86) scale(1,1)"><rect fill="#ffffff" stroke="none" x="72" y="192" width="113" height="117"></rect></g><g transform="translate(-62,-86) scale(1,1)"><path fill="none" stroke="#000000" d="M 72 192 L 185 192 L 185 309 L 72 309 L 72 192 Z Z" stroke-miterlimit="10"></path></g><g transform="translate(-62,-86) scale(1,1)"><path fill="none" stroke="#000000" d="M 72 217 L 185 217" stroke-miterlimit="10"></path></g><g transform="translate(-62,-86) scale(1,1)"><path fill="none" stroke="#000000" d="M 72 300 L 185 300" stroke-miterlimit="10"></path></g><g transform="translate(-62,-86) scale(1,1)"><g><path fill="none" stroke="none"></path><text fill="#000000" stroke="none" font-family="Arial" font-size="13px" font-style="normal" font-weight="bold" text-decoration="none" x="101.5" y="211.5">Suppliers</text></g></g><g transform="translate(-62,-86) scale(1,1)"><g><path fill="none" stroke="none"></path><text fill="#000000" stroke="none" font-family="Arial" font-size="13px" font-style="normal" font-weight="normal" text-decoration="none" x="77" y="234.5">+name</text></g></g><g transform="translate(-62,-86) scale(1,1)"><g><path fill="none" stroke="none"></path><text fill="#000000" stroke="none" font-family="Arial" font-size="13px" font-style="normal" font-weight="normal" text-decoration="none" x="77" y="249.5">+created</text></g></g><g transform="translate(-62,-86) scale(1,1)"><g><path fill="none" stroke="none"></path><text fill="#000000" stroke="none" font-family="Arial" font-size="13px" font-style="normal" font-weight="normal" text-decoration="none" x="77" y="264.5">+website_url</text></g></g><g transform="translate(-62,-86) scale(1,1)"><g><path fill="none" stroke="none"></path><text fill="#000000" stroke="none" font-family="Arial" font-size="13px" font-style="normal" font-weight="normal" text-decoration="none" x="77" y="279.5">+supplier_route</text></g></g><g transform="translate(-62,-86) scale(1,1)"><g><path fill="none" stroke="none"></path><text fill="#000000" stroke="none" font-family="Arial" font-size="13px" font-style="normal" font-weight="normal" text-decoration="none" x="77" y="294.5">+active</text></g></g><g transform="translate(-62,-86) scale(1,1)"><rect fill="#C0C0C0" stroke="none" x="671" y="215" width="96" height="111" opacity="0.2"></rect></g><g transform="translate(-62,-86) scale(1,1)"><rect fill="#ffffff" stroke="none" x="664" y="208" width="96" height="111"></rect></g><g transform="translate(-62,-86) scale(1,1)"><path fill="none" stroke="#000000" d="M 664 208 L 760 208 L 760 319 L 664 319 L 664 208 Z Z" stroke-miterlimit="10"></path></g><g transform="translate(-62,-86) scale(1,1)"><path fill="none" stroke="#000000" d="M 664 233 L 760 233" stroke-miterlimit="10"></path></g><g transform="translate(-62,-86) scale(1,1)"><path fill="none" stroke="#000000" d="M 664 271 L 760 271" stroke-miterlimit="10"></path></g><g transform="translate(-62,-86) scale(1,1)"><g><path fill="none" stroke="none"></path><text fill="#000000" stroke="none" font-family="Arial" font-size="13px" font-style="normal" font-weight="bold" text-decoration="none" x="693" y="227.5">Labels</text></g></g><g transform="translate(-62,-86) scale(1,1)"><g><path fill="none" stroke="none"></path><text fill="#000000" stroke="none" font-family="Arial" font-size="13px" font-style="normal" font-weight="normal" text-decoration="none" x="669" y="250.5">+label</text></g></g><g transform="translate(-62,-86) scale(1,1)"><g><path fill="none" stroke="none"></path><text fill="#000000" stroke="none" font-family="Arial" font-size="13px" font-style="normal" font-weight="normal" text-decoration="none" x="669" y="265.5">+description</text></g></g><g transform="translate(-62,-86) scale(1,1)"><rect fill="#C0C0C0" stroke="none" x="79" y="383" width="123" height="237" opacity="0.2"></rect></g><g transform="translate(-62,-86) scale(1,1)"><rect fill="#ffffff" stroke="none" x="72" y="376" width="123" height="237"></rect></g><g transform="translate(-62,-86) scale(1,1)"><path fill="none" stroke="#000000" d="M 72 376 L 195 376 L 195 613 L 72 613 L 72 376 Z Z" stroke-miterlimit="10"></path></g><g transform="translate(-62,-86) scale(1,1)"><path fill="none" stroke="#000000" d="M 72 401 L 195 401" stroke-miterlimit="10"></path></g><g transform="translate(-62,-86) scale(1,1)"><path fill="none" stroke="#000000" d="M 72 604 L 195 604" stroke-miterlimit="10"></path></g><g transform="translate(-62,-86) scale(1,1)"><g><path fill="none" stroke="none"></path><text fill="#000000" stroke="none" font-family="Arial" font-size="13px" font-style="normal" font-weight="bold" text-decoration="none" x="93.5" y="395.5">Spreadsheets</text></g></g><g transform="translate(-62,-86) scale(1,1)"><g><path fill="none" stroke="none"></path><text fill="#000000" stroke="none" font-family="Arial" font-size="13px" font-style="normal" font-weight="normal" text-decoration="none" x="77" y="418.5">+file_url</text></g></g><g transform="translate(-62,-86) scale(1,1)"><g><path fill="none" stroke="none"></path><text fill="#000000" stroke="none" font-family="Arial" font-size="13px" font-style="normal" font-weight="normal" text-decoration="none" x="77" y="433.5">+uploaded</text></g></g><g transform="translate(-62,-86) scale(1,1)"><g><path fill="none" stroke="none"></path><text fill="#000000" stroke="none" font-family="Arial" font-size="13px" font-style="normal" font-weight="normal" text-decoration="none" x="77" y="448.5">+size</text></g></g><g transform="translate(-62,-86) scale(1,1)"><g><path fill="none" stroke="none"></path><text fill="#000000" stroke="none" font-family="Arial" font-size="13px" font-style="normal" font-weight="normal" text-decoration="none" x="77" y="463.5">+volume</text></g></g><g transform="translate(-62,-86) scale(1,1)"><g><path fill="none" stroke="none"></path><text fill="#000000" stroke="none" font-family="Arial" font-size="13px" font-style="normal" font-weight="normal" text-decoration="none" x="77" y="478.5">+imported</text></g></g><g transform="translate(-62,-86) scale(1,1)"><g><path fill="none" stroke="none"></path><text fill="#000000" stroke="none" font-family="Arial" font-size="13px" font-style="normal" font-weight="normal" text-decoration="none" x="77" y="493.5">+imported_qty</text></g></g><g transform="translate(-62,-86) scale(1,1)"><g><path fill="none" stroke="none"></path><text fill="#000000" stroke="none" font-family="Arial" font-size="13px" font-style="normal" font-weight="normal" text-decoration="none" x="77" y="508.5">+errors_qty</text></g></g><g transform="translate(-62,-86) scale(1,1)"><g><path fill="none" stroke="none"></path><text fill="#000000" stroke="none" font-family="Arial" font-size="13px" font-style="normal" font-weight="normal" text-decoration="none" x="77" y="523.5">+overwritten_qty</text></g></g><g transform="translate(-62,-86) scale(1,1)"><g><path fill="none" stroke="none"></path><text fill="#000000" stroke="none" font-family="Arial" font-size="13px" font-style="normal" font-weight="normal" text-decoration="none" x="77" y="538.5">+blanks_qty</text></g></g><g transform="translate(-62,-86) scale(1,1)"><g><path fill="none" stroke="none"></path><text fill="#000000" stroke="none" font-family="Arial" font-size="13px" font-style="normal" font-weight="normal" text-decoration="none" x="77" y="553.5">+incomplete_qty</text></g></g><g transform="translate(-62,-86) scale(1,1)"><g><path fill="none" stroke="none"></path><text fill="#000000" stroke="none" font-family="Arial" font-size="13px" font-style="normal" font-weight="normal" text-decoration="none" x="77" y="568.5">+header</text></g></g><g transform="translate(-62,-86) scale(1,1)"><g><path fill="none" stroke="none"></path><text fill="#000000" stroke="none" font-family="Arial" font-size="13px" font-style="normal" font-weight="normal" text-decoration="none" x="77" y="583.5">+start</text></g></g><g transform="translate(-62,-86) scale(1,1)"><g><path fill="none" stroke="none"></path><text fill="#000000" stroke="none" font-family="Arial" font-size="13px" font-style="normal" font-weight="normal" text-decoration="none" x="77" y="598.5">+end</text></g></g><g transform="translate(-62,-86) scale(1,1)"><rect fill="#C0C0C0" stroke="none" x="231" y="375" width="92" height="147" opacity="0.2"></rect></g><g transform="translate(-62,-86) scale(1,1)"><rect fill="#ffffff" stroke="none" x="224" y="368" width="92" height="147"></rect></g><g transform="translate(-62,-86) scale(1,1)"><path fill="none" stroke="#000000" d="M 224 368 L 316 368 L 316 515 L 224 515 L 224 368 Z Z" stroke-miterlimit="10"></path></g><g transform="translate(-62,-86) scale(1,1)"><path fill="none" stroke="#000000" d="M 224 393 L 316 393" stroke-miterlimit="10"></path></g><g transform="translate(-62,-86) scale(1,1)"><path fill="none" stroke="#000000" d="M 224 506 L 316 506" stroke-miterlimit="10"></path></g><g transform="translate(-62,-86) scale(1,1)"><g><path fill="none" stroke="none"></path><text fill="#000000" stroke="none" font-family="Arial" font-size="13px" font-style="normal" font-weight="bold" text-decoration="none" x="253.5" y="387.5">Sales</text></g></g><g transform="translate(-62,-86) scale(1,1)"><g><path fill="none" stroke="none"></path><text fill="#000000" stroke="none" font-family="Arial" font-size="13px" font-style="normal" font-weight="normal" text-decoration="none" x="229" y="410.5">+quantity</text></g></g><g transform="translate(-62,-86) scale(1,1)"><g><path fill="none" stroke="none"></path><text fill="#000000" stroke="none" font-family="Arial" font-size="13px" font-style="normal" font-weight="normal" text-decoration="none" x="229" y="425.5">+sales_url</text></g></g><g transform="translate(-62,-86) scale(1,1)"><g><path fill="none" stroke="none"></path><text fill="#000000" stroke="none" font-family="Arial" font-size="13px" font-style="normal" font-weight="normal" text-decoration="none" x="229" y="440.5">+timestamp</text></g></g><g transform="translate(-62,-86) scale(1,1)"><g><path fill="none" stroke="none"></path><text fill="#000000" stroke="none" font-family="Arial" font-size="13px" font-style="normal" font-weight="normal" text-decoration="none" x="229" y="455.5">+last_status</text></g></g><g transform="translate(-62,-86) scale(1,1)"><g><path fill="none" stroke="none"></path><text fill="#000000" stroke="none" font-family="Arial" font-size="13px" font-style="normal" font-weight="normal" text-decoration="none" x="229" y="470.5">+IPv4</text></g></g><g transform="translate(-62,-86) scale(1,1)"><g><path fill="none" stroke="none"></path><text fill="#000000" stroke="none" font-family="Arial" font-size="13px" font-style="normal" font-weight="normal" text-decoration="none" x="229" y="485.5">+IPv6</text></g></g><g transform="translate(-62,-86) scale(1,1)"><g><path fill="none" stroke="none"></path><text fill="#000000" stroke="none" font-family="Arial" font-size="13px" font-style="normal" font-weight="normal" text-decoration="none" x="229" y="500.5">+user_agent</text></g></g><g transform="translate(-62,-86) scale(1,1)"><rect fill="#C0C0C0" stroke="none" x="615" y="399" width="117" height="120" opacity="0.2"></rect></g><g transform="translate(-62,-86) scale(1,1)"><rect fill="#ffffff" stroke="none" x="608" y="392" width="117" height="120"></rect></g><g transform="translate(-62,-86) scale(1,1)"><path fill="none" stroke="#000000" d="M 608 392 L 725 392 L 725 512 L 608 512 L 608 392 Z Z" stroke-miterlimit="10"></path></g><g transform="translate(-62,-86) scale(1,1)"><path fill="none" stroke="#000000" d="M 608 417 L 725 417" stroke-miterlimit="10"></path></g><g transform="translate(-62,-86) scale(1,1)"><path fill="none" stroke="#000000" d="M 608 485 L 725 485" stroke-miterlimit="10"></path></g><g transform="translate(-62,-86) scale(1,1)"><g><path fill="none" stroke="none"></path><text fill="#000000" stroke="none" font-family="Arial" font-size="13px" font-style="normal" font-weight="bold" text-decoration="none" x="642.5" y="411.5">Pictures</text></g></g><g transform="translate(-62,-86) scale(1,1)"><g><path fill="none" stroke="none"></path><text fill="#000000" stroke="none" font-family="Arial" font-size="13px" font-style="normal" font-weight="normal" text-decoration="none" x="613" y="434.5">+mimetype</text></g></g><g transform="translate(-62,-86) scale(1,1)"><g><path fill="none" stroke="none"></path><text fill="#000000" stroke="none" font-family="Arial" font-size="13px" font-style="normal" font-weight="normal" text-decoration="none" x="613" y="449.5">+highres_url</text></g></g><g transform="translate(-62,-86) scale(1,1)"><g><path fill="none" stroke="none"></path><text fill="#000000" stroke="none" font-family="Arial" font-size="13px" font-style="normal" font-weight="normal" text-decoration="none" x="613" y="464.5">+lowres_base64</text></g></g><g transform="translate(-62,-86) scale(1,1)"><g><path fill="none" stroke="none"></path><text fill="#000000" stroke="none" font-family="Arial" font-size="13px" font-style="normal" font-weight="normal" text-decoration="none" x="613" y="479.5">+created</text></g></g><g transform="translate(-62,-86) scale(1,1)"><path fill="none" stroke="#000000" d="M 456 320 L 288 320 L 288 368" stroke-miterlimit="10"></path></g><g transform="translate(-62,-86) scale(1,1)"><g><path fill="none" stroke="none"></path><text fill="#000000" stroke="none" font-family="Arial" font-size="13px" font-style="normal" font-weight="normal" text-decoration="none" x="295" y="341">+produces</text></g></g><g transform="translate(-62,-86) scale(1,1)"><g><path fill="none" stroke="none"></path><text fill="#000000" stroke="none" font-family="Arial" font-size="13px" font-style="normal" font-weight="normal" text-decoration="none" x="440" y="341">1</text></g></g><g transform="translate(-62,-86) scale(1,1)"><g><path fill="none" stroke="none"></path><text fill="#000000" stroke="none" font-family="Arial" font-size="13px" font-style="normal" font-weight="normal" text-decoration="none" x="265" y="353">0..*</text></g></g><g transform="translate(-62,-86) scale(1,1)"><path fill="none" stroke="#000000" d="M 564 280 L 663 269" stroke-miterlimit="10"></path></g><g transform="translate(-62,-86) scale(1,1)"><g><path fill="none" stroke="none"></path><text fill="#000000" stroke="none" font-family="Arial" font-size="13px" font-style="normal" font-weight="normal" text-decoration="none" x="590" y="266">+labels</text></g></g><g transform="translate(-62,-86) scale(1,1)"><g><path fill="none" stroke="none"></path><text fill="#000000" stroke="none" font-family="Arial" font-size="13px" font-style="normal" font-weight="normal" text-decoration="none" x="567" y="269">0..*</text></g></g><g transform="translate(-62,-86) scale(1,1)"><g><path fill="none" stroke="none"></path><text fill="#000000" stroke="none" font-family="Arial" font-size="13px" font-style="normal" font-weight="normal" text-decoration="none" x="639" y="260">0..*</text></g></g><g transform="translate(-62,-86) scale(1,1)"><path fill="none" stroke="#000000" d="M 564 345 L 608 391" stroke-miterlimit="10"></path></g><g transform="translate(-62,-86) scale(1,1)"><g><path fill="none" stroke="none"></path><text fill="#000000" stroke="none" font-family="Arial" font-size="13px" font-style="normal" font-weight="normal" text-decoration="none" x="576" y="357">+has</text></g></g><g transform="translate(-62,-86) scale(1,1)"><g><path fill="none" stroke="none"></path><text fill="#000000" stroke="none" font-family="Arial" font-size="13px" font-style="normal" font-weight="normal" text-decoration="none" x="568" y="341">1</text></g></g><g transform="translate(-62,-86) scale(1,1)"><g><path fill="none" stroke="none"></path><text fill="#000000" stroke="none" font-family="Arial" font-size="13px" font-style="normal" font-weight="normal" text-decoration="none" x="607" y="381">1..*</text></g></g><g transform="translate(-62,-86) scale(1,1)"><path fill="none" stroke="#000000" d="M 181 375 Q 216 288 455 287" stroke-miterlimit="10"></path></g><g transform="translate(-62,-86) scale(1,1)"><g><path fill="none" stroke="none"></path><text fill="#000000" stroke="none" font-family="Arial" font-size="13px" font-style="normal" font-weight="normal" text-decoration="none" x="216" y="300">+contains</text></g></g><g transform="translate(-62,-86) scale(1,1)"><g><path fill="none" stroke="none"></path><text fill="#000000" stroke="none" font-family="Arial" font-size="13px" font-style="normal" font-weight="normal" text-decoration="none" x="159" y="365">1..*</text></g></g><g transform="translate(-62,-86) scale(1,1)"><g><path fill="none" stroke="none"></path><text fill="#000000" stroke="none" font-family="Arial" font-size="13px" font-style="normal" font-weight="normal" text-decoration="none" x="431" y="301">0..*</text></g></g><g transform="translate(-62,-86) scale(1,1)"><rect fill="#C0C0C0" stroke="none" x="679" y="103" width="49" height="44" opacity="0.2"></rect></g><g transform="translate(-62,-86) scale(1,1)"><rect fill="#ffffff" stroke="none" x="672" y="96" width="49" height="44"></rect></g><g transform="translate(-62,-86) scale(1,1)"><path fill="none" stroke="#000000" d="M 672 96 L 721 96 L 721 140 L 672 140 L 672 96 Z Z" stroke-miterlimit="10"></path></g><g transform="translate(-62,-86) scale(1,1)"><path fill="none" stroke="#000000" d="M 672 121 L 721 121" stroke-miterlimit="10"></path></g><g transform="translate(-62,-86) scale(1,1)"><path fill="none" stroke="#000000" d="M 672 131 L 721 131" stroke-miterlimit="10"></path></g><g transform="translate(-62,-86) scale(1,1)"><g><path fill="none" stroke="none"></path><text fill="#000000" stroke="none" font-family="Arial" font-size="13px" font-style="normal" font-weight="bold" text-decoration="none" x="682.5" y="115.5">Tags</text></g></g><g transform="translate(-62,-86) scale(1,1)"><rect fill="#C0C0C0" stroke="none" x="847" y="175" width="85" height="57" opacity="0.2"></rect></g><g transform="translate(-62,-86) scale(1,1)"><rect fill="#ffffff" stroke="none" x="840" y="168" width="85" height="57"></rect></g><g transform="translate(-62,-86) scale(1,1)"><path fill="none" stroke="#000000" d="M 840 168 L 925 168 L 925 225 L 840 225 L 840 168 Z Z" stroke-miterlimit="10"></path></g><g transform="translate(-62,-86) scale(1,1)"><path fill="none" stroke="#000000" d="M 840 193 L 925 193" stroke-miterlimit="10"></path></g><g transform="translate(-62,-86) scale(1,1)"><path fill="none" stroke="#000000" d="M 840 216 L 925 216" stroke-miterlimit="10"></path></g><g transform="translate(-62,-86) scale(1,1)"><g><path fill="none" stroke="none"></path><text fill="#000000" stroke="none" font-family="Arial" font-size="13px" font-style="normal" font-weight="bold" text-decoration="none" x="851.5" y="187.5">Categories</text></g></g><g transform="translate(-62,-86) scale(1,1)"><g><path fill="none" stroke="none"></path><text fill="#000000" stroke="none" font-family="Arial" font-size="13px" font-style="normal" font-weight="normal" text-decoration="none" x="845" y="210.5">+main</text></g></g><g transform="translate(-62,-86) scale(1,1)"><path fill="none" stroke="#000000" d="M 840 176 L 704 176 L 704 208" stroke-miterlimit="10"></path></g><g transform="translate(-62,-86) scale(1,1)"><path fill="#FFFFFF" stroke="none" d="M 695.580964487968 187.6746502847517 L 704 208 L 712.419035512032 187.6746502847517"></path></g><g transform="translate(-62,-86) scale(1,1)"><path fill="none" stroke="#000000" d="M 695.580964487968 187.6746502847517 L 704 208 L 712.419035512032 187.6746502847517 L 695.580964487968 187.6746502847517" stroke-miterlimit="10"></path></g><g transform="translate(-62,-86) scale(1,1)"><g><path fill="none" stroke="none"></path><text fill="#000000" stroke="none" font-family="Arial" font-size="13px" font-style="normal" font-weight="normal" text-decoration="none" x="759" y="173">+is</text></g></g><g transform="translate(-62,-86) scale(1,1)"><path fill="none" stroke="#000000" d="M 699 141 L 706 207" stroke-miterlimit="10"></path></g><g transform="translate(-62,-86) scale(1,1)"><path fill="#FFFFFF" stroke="none" d="M 695.4842253758959 187.67596097977835 L 706 207 L 712.2283834849787 185.9000654227544"></path></g><g transform="translate(-62,-86) scale(1,1)"><path fill="none" stroke="#000000" d="M 695.4842253758959 187.67596097977835 L 706 207 L 712.2283834849787 185.9000654227544 L 695.4842253758959 187.67596097977835" stroke-miterlimit="10"></path></g><g transform="translate(-62,-86) scale(1,1)"><g><path fill="none" stroke="none"></path><text fill="#000000" stroke="none" font-family="Arial" font-size="13px" font-style="normal" font-weight="normal" text-decoration="none" x="679" y="164">+is</text></g></g><g transform="translate(-62,-86) scale(1,1)"><path fill="none" stroke="#000000" d="M 506 392 L 504 448 L 607 451" stroke-miterlimit="10"></path></g><g transform="translate(-62,-86) scale(1,1)"><g><path fill="none" stroke="none"></path><text fill="#000000" stroke="none" font-family="Arial" font-size="13px" font-style="normal" font-weight="normal" text-decoration="none" x="520" y="445">+shows</text></g></g><g transform="translate(-62,-86) scale(1,1)"><g><path fill="none" stroke="none"></path><text fill="#000000" stroke="none" font-family="Arial" font-size="13px" font-style="normal" font-weight="normal" text-decoration="none" x="489" y="413">1</text></g></g><g transform="translate(-62,-86) scale(1,1)"><g><path fill="none" stroke="none"></path><text fill="#000000" stroke="none" font-family="Arial" font-size="13px" font-style="normal" font-weight="normal" text-decoration="none" x="592" y="469">1</text></g></g><g transform="translate(-62,-86) scale(1,1)"><path fill="none" stroke="#000000" d="M 186 256 L 455 282" stroke-miterlimit="10"></path></g><g transform="translate(-62,-86) scale(1,1)"><g><path fill="none" stroke="none"></path><text fill="#000000" stroke="none" font-family="Arial" font-size="13px" font-style="normal" font-weight="normal" text-decoration="none" x="293" y="261">+supplies</text></g></g><g transform="translate(-62,-86) scale(1,1)"><g><path fill="none" stroke="none"></path><text fill="#000000" stroke="none" font-family="Arial" font-size="13px" font-style="normal" font-weight="normal" text-decoration="none" x="192" y="253">1</text></g></g><g transform="translate(-62,-86) scale(1,1)"><g><path fill="none" stroke="none"></path><text fill="#000000" stroke="none" font-family="Arial" font-size="13px" font-style="normal" font-weight="normal" text-decoration="none" x="431" y="268">0..*</text></g></g><g transform="translate(-62,-86) scale(1,1)"><path fill="#ffffff" stroke="none" d="M 336 520 L 565 520 L 575 530 L 575 584 L 336 584 L 336 520"></path></g><g transform="translate(-62,-86) scale(1,1)"><path fill="none" stroke="#000000" d="M 336 520 L 565 520 L 575 530 L 575 584 L 336 584 L 336 520 L 336 520" stroke-miterlimit="10"></path></g><g transform="translate(-62,-86) scale(1,1)"><path fill="none" stroke="#000000" d="M 565 520 L 565 530 L 575 530 L 565 520" stroke-miterlimit="10"></path></g><g transform="translate(-62,-86) scale(1,1)"><g><path fill="none" stroke="none"></path><text fill="#000000" stroke="none" font-family="Arial" font-size="13px" font-style="normal" font-weight="normal" text-decoration="none" x="341" y="538">Cada venta va asociada a un token.</text></g></g><g transform="translate(-62,-86) scale(1,1)"><g><path fill="none" stroke="none"></path><text fill="#000000" stroke="none" font-family="Arial" font-size="13px" font-style="normal" font-weight="normal" text-decoration="none" x="341" y="553">Circunstancia que será aprovechada en</text><text fill="#000000" stroke="none" font-family="Arial" font-size="13px" font-style="normal" font-weight="normal" text-decoration="none" x="341" y="566">el diseño del Modelo Físico de Datos</text></g></g><g transform="translate(-62,-86) scale(1,1)"><path fill="none" stroke="#000000" d="M 401 519 L 317 469" stroke-miterlimit="10" stroke-dasharray="3"></path></g></g></svg>