<svg version="1.1" xmlns="http://www.w3.org/2000/svg" xmlns:xlink="http://www.w3.org/1999/xlink" width="708" height="380"><defs></defs><g><g transform="translate(-62,-126) scale(1,1)"><rect fill="#C0C0C0" stroke="none" x="463" y="191" width="96" height="111" opacity="0.2"></rect></g><g transform="translate(-62,-126) scale(1,1)"><rect fill="#ffffff" stroke="none" x="456" y="184" width="96" height="111"></rect></g><g transform="translate(-62,-126) scale(1,1)"><path fill="none" stroke="#000000" d="M 456 184 L 552 184 L 552 295 L 456 295 L 456 184 Z Z" stroke-miterlimit="10"></path></g><g transform="translate(-62,-126) scale(1,1)"><path fill="none" stroke="#000000" d="M 456 209 L 552 209" stroke-miterlimit="10"></path></g><g transform="translate(-62,-126) scale(1,1)"><path fill="none" stroke="#000000" d="M 456 277 L 552 277" stroke-miterlimit="10"></path></g><g transform="translate(-62,-126) scale(1,1)"><g><path fill="none" stroke="none"></path><text fill="#000000" stroke="none" font-family="Arial" font-size="13px" font-style="normal" font-weight="bold" text-decoration="none" x="482" y="203.5">Articulo</text></g></g><g transform="translate(-62,-126) scale(1,1)"><g><path fill="none" stroke="none"></path><text fill="#000000" stroke="none" font-family="Arial" font-size="13px" font-style="normal" font-weight="normal" text-decoration="none" x="461" y="226.5">+Codigo</text></g></g><g transform="translate(-62,-126) scale(1,1)"><g><path fill="none" stroke="none"></path><text fill="#000000" stroke="none" font-family="Arial" font-size="13px" font-style="normal" font-weight="normal" text-decoration="none" x="461" y="241.5">+Descripcion</text></g></g><g transform="translate(-62,-126) scale(1,1)"><g><path fill="none" stroke="none"></path><text fill="#000000" stroke="none" font-family="Arial" font-size="13px" font-style="normal" font-weight="normal" text-decoration="none" x="461" y="256.5">+Nombre</text></g></g><g transform="translate(-62,-126) scale(1,1)"><g><path fill="none" stroke="none"></path><text fill="#000000" stroke="none" font-family="Arial" font-size="13px" font-style="normal" font-weight="normal" text-decoration="none" x="461" y="271.5">+Precio</text></g></g><g transform="translate(-62,-126) scale(1,1)"><rect fill="#C0C0C0" stroke="none" x="79" y="167" width="107" height="112" opacity="0.2"></rect></g><g transform="translate(-62,-126) scale(1,1)"><rect fill="#ffffff" stroke="none" x="72" y="160" width="107" height="112"></rect></g><g transform="translate(-62,-126) scale(1,1)"><path fill="none" stroke="#000000" d="M 72 160 L 179 160 L 179 272 L 72 272 L 72 160 Z Z" stroke-miterlimit="10"></path></g><g transform="translate(-62,-126) scale(1,1)"><path fill="none" stroke="#000000" d="M 72 185 L 179 185" stroke-miterlimit="10"></path></g><g transform="translate(-62,-126) scale(1,1)"><path fill="none" stroke="#000000" d="M 72 223 L 179 223" stroke-miterlimit="10"></path></g><g transform="translate(-62,-126) scale(1,1)"><g><path fill="none" stroke="none"></path><text fill="#000000" stroke="none" font-family="Arial" font-size="13px" font-style="normal" font-weight="bold" text-decoration="none" x="97" y="179.5">Proveedor</text></g></g><g transform="translate(-62,-126) scale(1,1)"><g><path fill="none" stroke="none"></path><text fill="#000000" stroke="none" font-family="Arial" font-size="13px" font-style="normal" font-weight="normal" text-decoration="none" x="77" y="202.5">+Nombre</text></g></g><g transform="translate(-62,-126) scale(1,1)"><g><path fill="none" stroke="none"></path><text fill="#000000" stroke="none" font-family="Arial" font-size="13px" font-style="normal" font-weight="normal" text-decoration="none" x="77" y="217.5">+Url de ventas</text></g></g><g transform="translate(-62,-126) scale(1,1)"><rect fill="#C0C0C0" stroke="none" x="671" y="215" width="96" height="111" opacity="0.2"></rect></g><g transform="translate(-62,-126) scale(1,1)"><rect fill="#ffffff" stroke="none" x="664" y="208" width="96" height="111"></rect></g><g transform="translate(-62,-126) scale(1,1)"><path fill="none" stroke="#000000" d="M 664 208 L 760 208 L 760 319 L 664 319 L 664 208 Z Z" stroke-miterlimit="10"></path></g><g transform="translate(-62,-126) scale(1,1)"><path fill="none" stroke="#000000" d="M 664 233 L 760 233" stroke-miterlimit="10"></path></g><g transform="translate(-62,-126) scale(1,1)"><path fill="none" stroke="#000000" d="M 664 271 L 760 271" stroke-miterlimit="10"></path></g><g transform="translate(-62,-126) scale(1,1)"><g><path fill="none" stroke="none"></path><text fill="#000000" stroke="none" font-family="Arial" font-size="13px" font-style="normal" font-weight="bold" text-decoration="none" x="684.5" y="227.5">Categoria</text></g></g><g transform="translate(-62,-126) scale(1,1)"><g><path fill="none" stroke="none"></path><text fill="#000000" stroke="none" font-family="Arial" font-size="13px" font-style="normal" font-weight="normal" text-decoration="none" x="669" y="250.5">+Codigo</text></g></g><g transform="translate(-62,-126) scale(1,1)"><g><path fill="none" stroke="none"></path><text fill="#000000" stroke="none" font-family="Arial" font-size="13px" font-style="normal" font-weight="normal" text-decoration="none" x="669" y="265.5">+Descripcion</text></g></g><g transform="translate(-62,-126) scale(1,1)"><rect fill="#C0C0C0" stroke="none" x="79" y="383" width="96" height="120" opacity="0.2"></rect></g><g transform="translate(-62,-126) scale(1,1)"><rect fill="#ffffff" stroke="none" x="72" y="376" width="96" height="120"></rect></g><g transform="translate(-62,-126) scale(1,1)"><path fill="none" stroke="#000000" d="M 72 376 L 168 376 L 168 496 L 72 496 L 72 376 Z Z" stroke-miterlimit="10"></path></g><g transform="translate(-62,-126) scale(1,1)"><path fill="none" stroke="#000000" d="M 72 401 L 168 401" stroke-miterlimit="10"></path></g><g transform="translate(-62,-126) scale(1,1)"><path fill="none" stroke="#000000" d="M 72 411 L 168 411" stroke-miterlimit="10"></path></g><g transform="translate(-62,-126) scale(1,1)"><g><path fill="none" stroke="none"></path><text fill="#000000" stroke="none" font-family="Arial" font-size="13px" font-style="normal" font-weight="bold" text-decoration="none" x="98.5" y="395.5">Fichero</text></g></g><g transform="translate(-62,-126) scale(1,1)"><rect fill="#C0C0C0" stroke="none" x="239" y="383" width="88" height="120" opacity="0.2"></rect></g><g transform="translate(-62,-126) scale(1,1)"><rect fill="#ffffff" stroke="none" x="232" y="376" width="88" height="120"></rect></g><g transform="translate(-62,-126) scale(1,1)"><path fill="none" stroke="#000000" d="M 232 376 L 320 376 L 320 496 L 232 496 L 232 376 Z Z" stroke-miterlimit="10"></path></g><g transform="translate(-62,-126) scale(1,1)"><path fill="none" stroke="#000000" d="M 232 401 L 320 401" stroke-miterlimit="10"></path></g><g transform="translate(-62,-126) scale(1,1)"><path fill="none" stroke="#000000" d="M 232 469 L 320 469" stroke-miterlimit="10"></path></g><g transform="translate(-62,-126) scale(1,1)"><g><path fill="none" stroke="none"></path><text fill="#000000" stroke="none" font-family="Arial" font-size="13px" font-style="normal" font-weight="bold" text-decoration="none" x="255.5" y="395.5">Ventas</text></g></g><g transform="translate(-62,-126) scale(1,1)"><g><path fill="none" stroke="none"></path><text fill="#000000" stroke="none" font-family="Arial" font-size="13px" font-style="normal" font-weight="normal" text-decoration="none" x="237" y="418.5">+Session</text></g></g><g transform="translate(-62,-126) scale(1,1)"><g><path fill="none" stroke="none"></path><text fill="#000000" stroke="none" font-family="Arial" font-size="13px" font-style="normal" font-weight="normal" text-decoration="none" x="237" y="433.5">+Articulo</text></g></g><g transform="translate(-62,-126) scale(1,1)"><g><path fill="none" stroke="none"></path><text fill="#000000" stroke="none" font-family="Arial" font-size="13px" font-style="normal" font-weight="normal" text-decoration="none" x="237" y="448.5">+Cantidad</text></g></g><g transform="translate(-62,-126) scale(1,1)"><g><path fill="none" stroke="none"></path><text fill="#000000" stroke="none" font-family="Arial" font-size="13px" font-style="normal" font-weight="normal" text-decoration="none" x="237" y="463.5">+Proveedor</text></g></g><g transform="translate(-62,-126) scale(1,1)"><rect fill="#C0C0C0" stroke="none" x="575" y="375" width="96" height="120" opacity="0.2"></rect></g><g transform="translate(-62,-126) scale(1,1)"><rect fill="#ffffff" stroke="none" x="568" y="368" width="96" height="120"></rect></g><g transform="translate(-62,-126) scale(1,1)"><path fill="none" stroke="#000000" d="M 568 368 L 664 368 L 664 488 L 568 488 L 568 368 Z Z" stroke-miterlimit="10"></path></g><g transform="translate(-62,-126) scale(1,1)"><path fill="none" stroke="#000000" d="M 568 393 L 664 393" stroke-miterlimit="10"></path></g><g transform="translate(-62,-126) scale(1,1)"><path fill="none" stroke="#000000" d="M 568 446 L 664 446" stroke-miterlimit="10"></path></g><g transform="translate(-62,-126) scale(1,1)"><g><path fill="none" stroke="none"></path><text fill="#000000" stroke="none" font-family="Arial" font-size="13px" font-style="normal" font-weight="bold" text-decoration="none" x="588" y="387.5">Imagenes</text></g></g><g transform="translate(-62,-126) scale(1,1)"><g><path fill="none" stroke="none"></path><text fill="#000000" stroke="none" font-family="Arial" font-size="13px" font-style="normal" font-weight="normal" text-decoration="none" x="573" y="410.5">+Nombre</text></g></g><g transform="translate(-62,-126) scale(1,1)"><g><path fill="none" stroke="none"></path><text fill="#000000" stroke="none" font-family="Arial" font-size="13px" font-style="normal" font-weight="normal" text-decoration="none" x="573" y="425.5">+Tipo</text></g></g><g transform="translate(-62,-126) scale(1,1)"><g><path fill="none" stroke="none"></path><text fill="#000000" stroke="none" font-family="Arial" font-size="13px" font-style="normal" font-weight="normal" text-decoration="none" x="573" y="440.5">+Imagen</text></g></g><g transform="translate(-62,-126) scale(1,1)"><path fill="none" stroke="#000000" d="M 500 295 L 500 312 L 288 312 L 288 376" stroke-miterlimit="10"></path></g><g transform="translate(-62,-126) scale(1,1)"><g><path fill="none" stroke="none"></path><text fill="#000000" stroke="none" font-family="Arial" font-size="13px" font-style="normal" font-weight="normal" text-decoration="none" x="344" y="308">+genera</text></g></g><g transform="translate(-62,-126) scale(1,1)"><g><path fill="none" stroke="none"></path><text fill="#000000" stroke="none" font-family="Arial" font-size="13px" font-style="normal" font-weight="normal" text-decoration="none" x="484" y="323">1</text></g></g><g transform="translate(-62,-126) scale(1,1)"><g><path fill="none" stroke="none"></path><text fill="#000000" stroke="none" font-family="Arial" font-size="13px" font-style="normal" font-weight="normal" text-decoration="none" x="265" y="361">1..*</text></g></g><g transform="translate(-62,-126) scale(1,1)"><path fill="none" stroke="#000000" d="M 553 245 L 663 257" stroke-miterlimit="10"></path></g><g transform="translate(-62,-126) scale(1,1)"><g><path fill="none" stroke="none"></path><text fill="#000000" stroke="none" font-family="Arial" font-size="13px" font-style="normal" font-weight="normal" text-decoration="none" x="577" y="243">+pertenece</text></g></g><g transform="translate(-62,-126) scale(1,1)"><g><path fill="none" stroke="none"></path><text fill="#000000" stroke="none" font-family="Arial" font-size="13px" font-style="normal" font-weight="normal" text-decoration="none" x="570" y="266">1</text></g></g><g transform="translate(-62,-126) scale(1,1)"><g><path fill="none" stroke="none"></path><text fill="#000000" stroke="none" font-family="Arial" font-size="13px" font-style="normal" font-weight="normal" text-decoration="none" x="630" y="274">1..*</text></g></g><g transform="translate(-62,-126) scale(1,1)"><path fill="none" stroke="#000000" d="M 538 296 L 580 367" stroke-miterlimit="10"></path></g><g transform="translate(-62,-126) scale(1,1)"><g><path fill="none" stroke="none"></path><text fill="#000000" stroke="none" font-family="Arial" font-size="13px" font-style="normal" font-weight="normal" text-decoration="none" x="561" y="335">+se visualiza</text></g></g><g transform="translate(-62,-126) scale(1,1)"><g><path fill="none" stroke="none"></path><text fill="#000000" stroke="none" font-family="Arial" font-size="13px" font-style="normal" font-weight="normal" text-decoration="none" x="535" y="327">1</text></g></g><g transform="translate(-62,-126) scale(1,1)"><g><path fill="none" stroke="none"></path><text fill="#000000" stroke="none" font-family="Arial" font-size="13px" font-style="normal" font-weight="normal" text-decoration="none" x="548" y="361">1..*</text></g></g><g transform="translate(-62,-126) scale(1,1)"><path fill="none" stroke="#000000" d="M 124 273 L 121 375" stroke-miterlimit="10"></path></g><g transform="translate(-62,-126) scale(1,1)"><g><path fill="none" stroke="none"></path><text fill="#000000" stroke="none" font-family="Arial" font-size="13px" font-style="normal" font-weight="normal" text-decoration="none" x="123" y="330">+aporta</text></g></g><g transform="translate(-62,-126) scale(1,1)"><g><path fill="none" stroke="none"></path><text fill="#000000" stroke="none" font-family="Arial" font-size="13px" font-style="normal" font-weight="normal" text-decoration="none" x="107" y="301">1</text></g></g><g transform="translate(-62,-126) scale(1,1)"><g><path fill="none" stroke="none"></path><text fill="#000000" stroke="none" font-family="Arial" font-size="13px" font-style="normal" font-weight="normal" text-decoration="none" x="99" y="359">1..*</text></g></g><g transform="translate(-62,-126) scale(1,1)"><path fill="none" stroke="#000000" d="M 155 375 Q 224 256 455 242" stroke-miterlimit="10"></path></g><g transform="translate(-62,-126) scale(1,1)"><g><path fill="none" stroke="none"></path><text fill="#000000" stroke="none" font-family="Arial" font-size="13px" font-style="normal" font-weight="normal" text-decoration="none" x="216" y="292">+contiene</text></g></g><g transform="translate(-62,-126) scale(1,1)"><g><path fill="none" stroke="none"></path><text fill="#000000" stroke="none" font-family="Arial" font-size="13px" font-style="normal" font-weight="normal" text-decoration="none" x="173" y="369">1</text></g></g><g transform="translate(-62,-126) scale(1,1)"><g><path fill="none" stroke="none"></path><text fill="#000000" stroke="none" font-family="Arial" font-size="13px" font-style="normal" font-weight="normal" text-decoration="none" x="424" y="262">1..*</text></g></g><g transform="translate(-62,-126) scale(1,1)"><rect fill="#C0C0C0" stroke="none" x="263" y="143" width="87" height="103" opacity="0.2"></rect></g><g transform="translate(-62,-126) scale(1,1)"><rect fill="#ffffff" stroke="none" x="256" y="136" width="87" height="103"></rect></g><g transform="translate(-62,-126) scale(1,1)"><path fill="none" stroke="#000000" d="M 256 136 L 343 136 L 343 239 L 256 239 L 256 136 Z Z" stroke-miterlimit="10"></path></g><g transform="translate(-62,-126) scale(1,1)"><path fill="none" stroke="#000000" d="M 256 161 L 343 161" stroke-miterlimit="10"></path></g><g transform="translate(-62,-126) scale(1,1)"><path fill="none" stroke="#000000" d="M 256 171 L 343 171" stroke-miterlimit="10"></path></g><g transform="translate(-62,-126) scale(1,1)"><g><path fill="none" stroke="none"></path><text fill="#000000" stroke="none" font-family="Arial" font-size="13px" font-style="normal" font-weight="bold" text-decoration="none" x="274" y="155.5">Catalogo</text></g></g><g transform="translate(-62,-126) scale(1,1)"><path fill="none" stroke="#000000" d="M 343 172 L 456 172 L 456 184" stroke-miterlimit="10"></path></g><g transform="translate(-62,-126) scale(1,1)"><g><path fill="none" stroke="none"></path><text fill="#000000" stroke="none" font-family="Arial" font-size="13px" font-style="normal" font-weight="normal" text-decoration="none" x="375" y="188">+muestra</text></g></g><g transform="translate(-62,-126) scale(1,1)"><g><path fill="none" stroke="none"></path><text fill="#000000" stroke="none" font-family="Arial" font-size="13px" font-style="normal" font-weight="normal" text-decoration="none" x="361" y="191">1</text></g></g><g transform="translate(-62,-126) scale(1,1)"><g><path fill="none" stroke="none"></path><text fill="#000000" stroke="none" font-family="Arial" font-size="13px" font-style="normal" font-weight="normal" text-decoration="none" x="433" y="169">0..*</text></g></g></g></svg>