<svg version="1.1" xmlns="http://www.w3.org/2000/svg" xmlns:xlink="http://www.w3.org/1999/xlink" width="708" height="537"><defs></defs><g><g transform="translate(-62,-86) scale(1,1)"><rect fill="#C0C0C0" stroke="none" x="463" y="191" width="107" height="207" opacity="0.2"></rect></g><g transform="translate(-62,-86) scale(1,1)"><rect fill="#ffffff" stroke="none" x="456" y="184" width="107" height="207"></rect></g><g transform="translate(-62,-86) scale(1,1)"><path fill="none" stroke="#000000" d="M 456 184 L 563 184 L 563 391 L 456 391 L 456 184 Z Z" stroke-miterlimit="10"></path></g><g transform="translate(-62,-86) scale(1,1)"><path fill="none" stroke="#000000" d="M 456 209 L 563 209" stroke-miterlimit="10"></path></g><g transform="translate(-62,-86) scale(1,1)"><path fill="none" stroke="#000000" d="M 456 367 L 563 367" stroke-miterlimit="10"></path></g><g transform="translate(-62,-86) scale(1,1)"><g><path fill="none" stroke="none"></path><text fill="#000000" stroke="none" font-family="Arial" font-size="13px" font-style="normal" font-weight="bold" text-decoration="none" x="493.5" y="203.5">Items</text></g></g><g transform="translate(-62,-86) scale(1,1)"><g><path fill="none" stroke="none"></path><text fill="#000000" stroke="none" font-family="Arial" font-size="13px" font-style="normal" font-weight="normal" text-decoration="none" x="461" y="226.5">+ref_code</text></g></g><g transform="translate(-62,-86) scale(1,1)"><g><path fill="none" stroke="none"></path><text fill="#000000" stroke="none" font-family="Arial" font-size="13px" font-style="normal" font-weight="normal" text-decoration="none" x="461" y="241.5">+description</text></g></g><g transform="translate(-62,-86) scale(1,1)"><g><path fill="none" stroke="none"></path><text fill="#000000" stroke="none" font-family="Arial" font-size="13px" font-style="normal" font-weight="normal" text-decoration="none" x="461" y="256.5">+title</text></g></g><g transform="translate(-62,-86) scale(1,1)"><g><path fill="none" stroke="none"></path><text fill="#000000" stroke="none" font-family="Arial" font-size="13px" font-style="normal" font-weight="normal" text-decoration="none" x="461" y="271.5">+price</text></g></g><g transform="translate(-62,-86) scale(1,1)"><g><path fill="none" stroke="none"></path><text fill="#000000" stroke="none" font-family="Arial" font-size="13px" font-style="normal" font-weight="normal" text-decoration="none" x="461" y="286.5">+sales_url</text></g></g><g transform="translate(-62,-86) scale(1,1)"><g><path fill="none" stroke="none"></path><text fill="#000000" stroke="none" font-family="Arial" font-size="13px" font-style="normal" font-weight="normal" text-decoration="none" x="461" y="301.5">+sales_qty</text></g></g><g transform="translate(-62,-86) scale(1,1)"><g><path fill="none" stroke="none"></path><text fill="#000000" stroke="none" font-family="Arial" font-size="13px" font-style="normal" font-weight="normal" text-decoration="none" x="461" y="316.5">+colours</text></g></g><g transform="translate(-62,-86) scale(1,1)"><g><path fill="none" stroke="none"></path><text fill="#000000" stroke="none" font-family="Arial" font-size="13px" font-style="normal" font-weight="normal" text-decoration="none" x="461" y="331.5">+created</text></g></g><g transform="translate(-62,-86) scale(1,1)"><g><path fill="none" stroke="none"></path><text fill="#000000" stroke="none" font-family="Arial" font-size="13px" font-style="normal" font-weight="normal" text-decoration="none" x="461" y="346.5">+updated</text></g></g><g transform="translate(-62,-86) scale(1,1)"><g><path fill="none" stroke="none"></path><text fill="#000000" stroke="none" font-family="Arial" font-size="13px" font-style="normal" font-weight="normal" text-decoration="none" x="461" y="361.5">+imported</text></g></g><g transform="translate(-62,-86) scale(1,1)"><rect fill="#C0C0C0" stroke="none" x="79" y="199" width="113" height="117" opacity="0.2"></rect></g><g transform="translate(-62,-86) scale(1,1)"><rect fill="#ffffff" stroke="none" x="72" y="192" width="113" height="117"></rect></g><g transform="translate(-62,-86) scale(1,1)"><path fill="none" stroke="#000000" d="M 72 192 L 185 192 L 185 309 L 72 309 L 72 192 Z Z" stroke-miterlimit="10"></path></g><g transform="translate(-62,-86) scale(1,1)"><path fill="none" stroke="#000000" d="M 72 217 L 185 217" stroke-miterlimit="10"></path></g><g transform="translate(-62,-86) scale(1,1)"><path fill="none" stroke="#000000" d="M 72 300 L 185 300" stroke-miterlimit="10"></path></g><g transform="translate(-62,-86) scale(1,1)"><g><path fill="none" stroke="none"></path><text fill="#000000" stroke="none" font-family="Arial" font-size="13px" font-style="normal" font-weight="bold" text-decoration="none" x="101.5" y="211.5">Suppliers</text></g></g><g transform="translate(-62,-86) scale(1,1)"><g><path fill="none" stroke="none"></path><text fill="#000000" stroke="none" font-family="Arial" font-size="13px" font-style="normal" font-weight="normal" text-decoration="none" x="77" y="234.5">+name</text></g></g><g transform="translate(-62,-86) scale(1,1)"><g><path fill="none" stroke="none"></path><text fill="#000000" stroke="none" font-family="Arial" font-size="13px" font-style="normal" font-weight="normal" text-decoration="none" x="77" y="249.5">+created</text></g></g><g transform="translate(-62,-86) scale(1,1)"><g><path fill="none" stroke="none"></path><text fill="#000000" stroke="none" font-family="Arial" font-size="13px" font-style="normal" font-weight="normal" text-decoration="none" x="77" y="264.5">+website_url</text></g></g><g transform="translate(-62,-86) scale(1,1)"><g><path fill="none" stroke="none"></path><text fill="#000000" stroke="none" font-family="Arial" font-size="13px" font-style="normal" font-weight="normal" text-decoration="none" x="77" y="279.5">+supplier_route</text></g></g><g transform="translate(-62,-86) scale(1,1)"><g><path fill="none" stroke="none"></path><text fill="#000000" stroke="none" font-family="Arial" font-size="13px" font-style="normal" font-weight="normal" text-decoration="none" x="77" y="294.5">+active</text></g></g><g transform="translate(-62,-86) scale(1,1)"><rect fill="#C0C0C0" stroke="none" x="671" y="215" width="96" height="111" opacity="0.2"></rect></g><g transform="translate(-62,-86) scale(1,1)"><rect fill="#ffffff" stroke="none" x="664" y="208" width="96" height="111"></rect></g><g transform="translate(-62,-86) scale(1,1)"><path fill="none" stroke="#000000" d="M 664 208 L 760 208 L 760 319 L 664 319 L 664 208 Z Z" stroke-miterlimit="10"></path></g><g transform="translate(-62,-86) scale(1,1)"><path fill="none" stroke="#000000" d="M 664 233 L 760 233" stroke-miterlimit="10"></path></g><g transform="translate(-62,-86) scale(1,1)"><path fill="none" stroke="#000000" d="M 664 271 L 760 271" stroke-miterlimit="10"></path></g><g transform="translate(-62,-86) scale(1,1)"><g><path fill="none" stroke="none"></path><text fill="#000000" stroke="none" font-family="Arial" font-size="13px" font-style="normal" font-weight="bold" text-decoration="none" x="681" y="227.5">Categories</text></g></g><g transform="translate(-62,-86) scale(1,1)"><g><path fill="none" stroke="none"></path><text fill="#000000" stroke="none" font-family="Arial" font-size="13px" font-style="normal" font-weight="normal" text-decoration="none" x="669" y="250.5">+Codigo</text></g></g><g transform="translate(-62,-86) scale(1,1)"><g><path fill="none" stroke="none"></path><text fill="#000000" stroke="none" font-family="Arial" font-size="13px" font-style="normal" font-weight="normal" text-decoration="none" x="669" y="265.5">+Descripcion</text></g></g><g transform="translate(-62,-86) scale(1,1)"><rect fill="#C0C0C0" stroke="none" x="79" y="383" width="123" height="237" opacity="0.2"></rect></g><g transform="translate(-62,-86) scale(1,1)"><rect fill="#ffffff" stroke="none" x="72" y="376" width="123" height="237"></rect></g><g transform="translate(-62,-86) scale(1,1)"><path fill="none" stroke="#000000" d="M 72 376 L 195 376 L 195 613 L 72 613 L 72 376 Z Z" stroke-miterlimit="10"></path></g><g transform="translate(-62,-86) scale(1,1)"><path fill="none" stroke="#000000" d="M 72 401 L 195 401" stroke-miterlimit="10"></path></g><g transform="translate(-62,-86) scale(1,1)"><path fill="none" stroke="#000000" d="M 72 604 L 195 604" stroke-miterlimit="10"></path></g><g transform="translate(-62,-86) scale(1,1)"><g><path fill="none" stroke="none"></path><text fill="#000000" stroke="none" font-family="Arial" font-size="13px" font-style="normal" font-weight="bold" text-decoration="none" x="93.5" y="395.5">Spreadsheets</text></g></g><g transform="translate(-62,-86) scale(1,1)"><g><path fill="none" stroke="none"></path><text fill="#000000" stroke="none" font-family="Arial" font-size="13px" font-style="normal" font-weight="normal" text-decoration="none" x="77" y="418.5">+file_url</text></g></g><g transform="translate(-62,-86) scale(1,1)"><g><path fill="none" stroke="none"></path><text fill="#000000" stroke="none" font-family="Arial" font-size="13px" font-style="normal" font-weight="normal" text-decoration="none" x="77" y="433.5">+uploaded</text></g></g><g transform="translate(-62,-86) scale(1,1)"><g><path fill="none" stroke="none"></path><text fill="#000000" stroke="none" font-family="Arial" font-size="13px" font-style="normal" font-weight="normal" text-decoration="none" x="77" y="448.5">+size</text></g></g><g transform="translate(-62,-86) scale(1,1)"><g><path fill="none" stroke="none"></path><text fill="#000000" stroke="none" font-family="Arial" font-size="13px" font-style="normal" font-weight="normal" text-decoration="none" x="77" y="463.5">+volume</text></g></g><g transform="translate(-62,-86) scale(1,1)"><g><path fill="none" stroke="none"></path><text fill="#000000" stroke="none" font-family="Arial" font-size="13px" font-style="normal" font-weight="normal" text-decoration="none" x="77" y="478.5">+imported</text></g></g><g transform="translate(-62,-86) scale(1,1)"><g><path fill="none" stroke="none"></path><text fill="#000000" stroke="none" font-family="Arial" font-size="13px" font-style="normal" font-weight="normal" text-decoration="none" x="77" y="493.5">+imported_qty</text></g></g><g transform="translate(-62,-86) scale(1,1)"><g><path fill="none" stroke="none"></path><text fill="#000000" stroke="none" font-family="Arial" font-size="13px" font-style="normal" font-weight="normal" text-decoration="none" x="77" y="508.5">+errors_qty</text></g></g><g transform="translate(-62,-86) scale(1,1)"><g><path fill="none" stroke="none"></path><text fill="#000000" stroke="none" font-family="Arial" font-size="13px" font-style="normal" font-weight="normal" text-decoration="none" x="77" y="523.5">+overwritten_qty</text></g></g><g transform="translate(-62,-86) scale(1,1)"><g><path fill="none" stroke="none"></path><text fill="#000000" stroke="none" font-family="Arial" font-size="13px" font-style="normal" font-weight="normal" text-decoration="none" x="77" y="538.5">+blanks_qty</text></g></g><g transform="translate(-62,-86) scale(1,1)"><g><path fill="none" stroke="none"></path><text fill="#000000" stroke="none" font-family="Arial" font-size="13px" font-style="normal" font-weight="normal" text-decoration="none" x="77" y="553.5">+incomplete_qty</text></g></g><g transform="translate(-62,-86) scale(1,1)"><g><path fill="none" stroke="none"></path><text fill="#000000" stroke="none" font-family="Arial" font-size="13px" font-style="normal" font-weight="normal" text-decoration="none" x="77" y="568.5">+header</text></g></g><g transform="translate(-62,-86) scale(1,1)"><g><path fill="none" stroke="none"></path><text fill="#000000" stroke="none" font-family="Arial" font-size="13px" font-style="normal" font-weight="normal" text-decoration="none" x="77" y="583.5">+start</text></g></g><g transform="translate(-62,-86) scale(1,1)"><g><path fill="none" stroke="none"></path><text fill="#000000" stroke="none" font-family="Arial" font-size="13px" font-style="normal" font-weight="normal" text-decoration="none" x="77" y="598.5">+end</text></g></g><g transform="translate(-62,-86) scale(1,1)"><rect fill="#C0C0C0" stroke="none" x="231" y="375" width="92" height="147" opacity="0.2"></rect></g><g transform="translate(-62,-86) scale(1,1)"><rect fill="#ffffff" stroke="none" x="224" y="368" width="92" height="147"></rect></g><g transform="translate(-62,-86) scale(1,1)"><path fill="none" stroke="#000000" d="M 224 368 L 316 368 L 316 515 L 224 515 L 224 368 Z Z" stroke-miterlimit="10"></path></g><g transform="translate(-62,-86) scale(1,1)"><path fill="none" stroke="#000000" d="M 224 393 L 316 393" stroke-miterlimit="10"></path></g><g transform="translate(-62,-86) scale(1,1)"><path fill="none" stroke="#000000" d="M 224 506 L 316 506" stroke-miterlimit="10"></path></g><g transform="translate(-62,-86) scale(1,1)"><g><path fill="none" stroke="none"></path><text fill="#000000" stroke="none" font-family="Arial" font-size="13px" font-style="normal" font-weight="bold" text-decoration="none" x="253.5" y="387.5">Sales</text></g></g><g transform="translate(-62,-86) scale(1,1)"><g><path fill="none" stroke="none"></path><text fill="#000000" stroke="none" font-family="Arial" font-size="13px" font-style="normal" font-weight="normal" text-decoration="none" x="229" y="410.5">+quantity</text></g></g><g transform="translate(-62,-86) scale(1,1)"><g><path fill="none" stroke="none"></path><text fill="#000000" stroke="none" font-family="Arial" font-size="13px" font-style="normal" font-weight="normal" text-decoration="none" x="229" y="425.5">+sales_url</text></g></g><g transform="translate(-62,-86) scale(1,1)"><g><path fill="none" stroke="none"></path><text fill="#000000" stroke="none" font-family="Arial" font-size="13px" font-style="normal" font-weight="normal" text-decoration="none" x="229" y="440.5">+timestamp</text></g></g><g transform="translate(-62,-86) scale(1,1)"><g><path fill="none" stroke="none"></path><text fill="#000000" stroke="none" font-family="Arial" font-size="13px" font-style="normal" font-weight="normal" text-decoration="none" x="229" y="455.5">+last_status</text></g></g><g transform="translate(-62,-86) scale(1,1)"><g><path fill="none" stroke="none"></path><text fill="#000000" stroke="none" font-family="Arial" font-size="13px" font-style="normal" font-weight="normal" text-decoration="none" x="229" y="470.5">+IPv4</text></g></g><g transform="translate(-62,-86) scale(1,1)"><g><path fill="none" stroke="none"></path><text fill="#000000" stroke="none" font-family="Arial" font-size="13px" font-style="normal" font-weight="normal" text-decoration="none" x="229" y="485.5">+IPv6</text></g></g><g transform="translate(-62,-86) scale(1,1)"><g><path fill="none" stroke="none"></path><text fill="#000000" stroke="none" font-family="Arial" font-size="13px" font-style="normal" font-weight="normal" text-decoration="none" x="229" y="500.5">+user_agent</text></g></g><g transform="translate(-62,-86) scale(1,1)"><rect fill="#C0C0C0" stroke="none" x="575" y="375" width="103" height="120" opacity="0.2"></rect></g><g transform="translate(-62,-86) scale(1,1)"><rect fill="#ffffff" stroke="none" x="568" y="368" width="103" height="120"></rect></g><g transform="translate(-62,-86) scale(1,1)"><path fill="none" stroke="#000000" d="M 568 368 L 671 368 L 671 488 L 568 488 L 568 368 Z Z" stroke-miterlimit="10"></path></g><g transform="translate(-62,-86) scale(1,1)"><path fill="none" stroke="#000000" d="M 568 393 L 671 393" stroke-miterlimit="10"></path></g><g transform="translate(-62,-86) scale(1,1)"><path fill="none" stroke="#000000" d="M 568 461 L 671 461" stroke-miterlimit="10"></path></g><g transform="translate(-62,-86) scale(1,1)"><g><path fill="none" stroke="none"></path><text fill="#000000" stroke="none" font-family="Arial" font-size="13px" font-style="normal" font-weight="bold" text-decoration="none" x="595.5" y="387.5">Pictures</text></g></g><g transform="translate(-62,-86) scale(1,1)"><g><path fill="none" stroke="none"></path><text fill="#000000" stroke="none" font-family="Arial" font-size="13px" font-style="normal" font-weight="normal" text-decoration="none" x="573" y="410.5">+mimetype</text></g></g><g transform="translate(-62,-86) scale(1,1)"><g><path fill="none" stroke="none"></path><text fill="#000000" stroke="none" font-family="Arial" font-size="13px" font-style="normal" font-weight="normal" text-decoration="none" x="573" y="425.5">+highres_url</text></g></g><g transform="translate(-62,-86) scale(1,1)"><g><path fill="none" stroke="none"></path><text fill="#000000" stroke="none" font-family="Arial" font-size="13px" font-style="normal" font-weight="normal" text-decoration="none" x="573" y="440.5">+lowres_base64</text></g></g><g transform="translate(-62,-86) scale(1,1)"><g><path fill="none" stroke="none"></path><text fill="#000000" stroke="none" font-family="Arial" font-size="13px" font-style="normal" font-weight="normal" text-decoration="none" x="573" y="455.5">+created</text></g></g><g transform="translate(-62,-86) scale(1,1)"><path fill="none" stroke="#000000" d="M 456 312 L 288 312 L 288 368" stroke-miterlimit="10"></path></g><g transform="translate(-62,-86) scale(1,1)"><g><path fill="none" stroke="none"></path><text fill="#000000" stroke="none" font-family="Arial" font-size="13px" font-style="normal" font-weight="normal" text-decoration="none" x="254" y="345">+genera</text></g></g><g transform="translate(-62,-86) scale(1,1)"><g><path fill="none" stroke="none"></path><text fill="#000000" stroke="none" font-family="Arial" font-size="13px" font-style="normal" font-weight="normal" text-decoration="none" x="431" y="306">1</text></g></g><g transform="translate(-62,-86) scale(1,1)"><g><path fill="none" stroke="none"></path><text fill="#000000" stroke="none" font-family="Arial" font-size="13px" font-style="normal" font-weight="normal" text-decoration="none" x="265" y="353">1..*</text></g></g><g transform="translate(-62,-86) scale(1,1)"><path fill="none" stroke="#000000" d="M 564 280 L 663 269" stroke-miterlimit="10"></path></g><g transform="translate(-62,-86) scale(1,1)"><g><path fill="none" stroke="none"></path><text fill="#000000" stroke="none" font-family="Arial" font-size="13px" font-style="normal" font-weight="normal" text-decoration="none" x="579" y="266">+pertenece</text></g></g><g transform="translate(-62,-86) scale(1,1)"><g><path fill="none" stroke="none"></path><text fill="#000000" stroke="none" font-family="Arial" font-size="13px" font-style="normal" font-weight="normal" text-decoration="none" x="583" y="297">1</text></g></g><g transform="translate(-62,-86) scale(1,1)"><g><path fill="none" stroke="none"></path><text fill="#000000" stroke="none" font-family="Arial" font-size="13px" font-style="normal" font-weight="normal" text-decoration="none" x="632" y="290">1..*</text></g></g><g transform="translate(-62,-86) scale(1,1)"><path fill="none" stroke="#000000" d="M 564 358 L 571 367" stroke-miterlimit="10"></path></g><g transform="translate(-62,-86) scale(1,1)"><g><path fill="none" stroke="none"></path><text fill="#000000" stroke="none" font-family="Arial" font-size="13px" font-style="normal" font-weight="normal" text-decoration="none" x="569" y="360">+se visualiza</text></g></g><g transform="translate(-62,-86) scale(1,1)"><g><path fill="none" stroke="none"></path><text fill="#000000" stroke="none" font-family="Arial" font-size="13px" font-style="normal" font-weight="normal" text-decoration="none" x="564" y="389">1</text></g></g><g transform="translate(-62,-86) scale(1,1)"><g><path fill="none" stroke="none"></path><text fill="#000000" stroke="none" font-family="Arial" font-size="13px" font-style="normal" font-weight="normal" text-decoration="none" x="537" y="364">1..*</text></g></g><g transform="translate(-62,-86) scale(1,1)"><path fill="none" stroke="#000000" d="M 129 310 L 131 375" stroke-miterlimit="10"></path></g><g transform="translate(-62,-86) scale(1,1)"><g><path fill="none" stroke="none"></path><text fill="#000000" stroke="none" font-family="Arial" font-size="13px" font-style="normal" font-weight="normal" text-decoration="none" x="130" y="347">+aporta</text></g></g><g transform="translate(-62,-86) scale(1,1)"><g><path fill="none" stroke="none"></path><text fill="#000000" stroke="none" font-family="Arial" font-size="13px" font-style="normal" font-weight="normal" text-decoration="none" x="114" y="339">1</text></g></g><g transform="translate(-62,-86) scale(1,1)"><g><path fill="none" stroke="none"></path><text fill="#000000" stroke="none" font-family="Arial" font-size="13px" font-style="normal" font-weight="normal" text-decoration="none" x="107" y="360">1..*</text></g></g><g transform="translate(-62,-86) scale(1,1)"><path fill="none" stroke="#000000" d="M 179 375 Q 224 256 455 281" stroke-miterlimit="10"></path></g><g transform="translate(-62,-86) scale(1,1)"><g><path fill="none" stroke="none"></path><text fill="#000000" stroke="none" font-family="Arial" font-size="13px" font-style="normal" font-weight="normal" text-decoration="none" x="210" y="295">+contiene</text></g></g><g transform="translate(-62,-86) scale(1,1)"><g><path fill="none" stroke="none"></path><text fill="#000000" stroke="none" font-family="Arial" font-size="13px" font-style="normal" font-weight="normal" text-decoration="none" x="195" y="366">1</text></g></g><g transform="translate(-62,-86) scale(1,1)"><g><path fill="none" stroke="none"></path><text fill="#000000" stroke="none" font-family="Arial" font-size="13px" font-style="normal" font-weight="normal" text-decoration="none" x="422" y="298">1..*</text></g></g><g transform="translate(-62,-86) scale(1,1)"><rect fill="#C0C0C0" stroke="none" x="679" y="103" width="49" height="44" opacity="0.2"></rect></g><g transform="translate(-62,-86) scale(1,1)"><rect fill="#ffffff" stroke="none" x="672" y="96" width="49" height="44"></rect></g><g transform="translate(-62,-86) scale(1,1)"><path fill="none" stroke="#000000" d="M 672 96 L 721 96 L 721 140 L 672 140 L 672 96 Z Z" stroke-miterlimit="10"></path></g><g transform="translate(-62,-86) scale(1,1)"><path fill="none" stroke="#000000" d="M 672 121 L 721 121" stroke-miterlimit="10"></path></g><g transform="translate(-62,-86) scale(1,1)"><path fill="none" stroke="#000000" d="M 672 131 L 721 131" stroke-miterlimit="10"></path></g><g transform="translate(-62,-86) scale(1,1)"><g><path fill="none" stroke="none"></path><text fill="#000000" stroke="none" font-family="Arial" font-size="13px" font-style="normal" font-weight="bold" text-decoration="none" x="682.5" y="115.5">Tags</text></g></g></g></svg>