<svg version="1.1" xmlns="http://www.w3.org/2000/svg" xmlns:xlink="http://www.w3.org/1999/xlink" width="801" height="531"><defs></defs><g><g transform="translate(-38,-14) scale(1,1)"><rect fill="#C0C0C0" stroke="none" x="255" y="39" width="95" height="104" opacity="0.2"></rect></g><g transform="translate(-38,-14) scale(1,1)"><rect fill="#f36868" stroke="none" x="248" y="32" width="95" height="104"></rect></g><g transform="translate(-38,-14) scale(1,1)"><path fill="none" stroke="#000000" d="M 248 32 L 343 32 L 343 136 L 248 136 L 248 32 Z Z" stroke-miterlimit="10"></path></g><g transform="translate(-38,-14) scale(1,1)"><path fill="none" stroke="#000000" d="M 248 57 L 343 57" stroke-miterlimit="10"></path></g><g transform="translate(-38,-14) scale(1,1)"><path fill="none" stroke="#000000" d="M 248 67 L 343 67" stroke-miterlimit="10"></path></g><g transform="translate(-38,-14) scale(1,1)"><g><path fill="none" stroke="none"></path><text fill="#000000" stroke="none" font-family="Arial" font-size="13px" font-style="normal" font-weight="bold" text-decoration="none" x="255.5" y="51.5">Spreadsheets</text></g></g><g transform="translate(-38,-14) scale(1,1)"><rect fill="#C0C0C0" stroke="none" x="351" y="463" width="138" height="79" opacity="0.2"></rect></g><g transform="translate(-38,-14) scale(1,1)"><rect fill="#ffffff" stroke="none" x="344" y="456" width="138" height="79"></rect></g><g transform="translate(-38,-14) scale(1,1)"><path fill="none" stroke="#000000" d="M 344 456 L 482 456 L 482 535 L 344 535 L 344 456 Z Z" stroke-miterlimit="10"></path></g><g transform="translate(-38,-14) scale(1,1)"><path fill="none" stroke="#000000" d="M 344 481 L 482 481" stroke-miterlimit="10"></path></g><g transform="translate(-38,-14) scale(1,1)"><path fill="none" stroke="#000000" d="M 344 491 L 482 491" stroke-miterlimit="10"></path></g><g transform="translate(-38,-14) scale(1,1)"><g><path fill="none" stroke="none"></path><text fill="#000000" stroke="none" font-family="Arial" font-size="13px" font-style="normal" font-weight="bold" text-decoration="none" x="396.5" y="475.5">Sales</text></g></g><g transform="translate(-38,-14) scale(1,1)"><rect fill="#C0C0C0" stroke="none" x="55" y="31" width="126" height="96" opacity="0.2"></rect></g><g transform="translate(-38,-14) scale(1,1)"><rect fill="#f36868" stroke="none" x="48" y="24" width="126" height="96"></rect></g><g transform="translate(-38,-14) scale(1,1)"><path fill="none" stroke="#000000" d="M 48 24 L 174 24 L 174 120 L 48 120 L 48 24 Z Z" stroke-miterlimit="10"></path></g><g transform="translate(-38,-14) scale(1,1)"><path fill="none" stroke="#000000" d="M 48 49 L 174 49" stroke-miterlimit="10"></path></g><g transform="translate(-38,-14) scale(1,1)"><path fill="none" stroke="#000000" d="M 48 59 L 174 59" stroke-miterlimit="10"></path></g><g transform="translate(-38,-14) scale(1,1)"><g><path fill="none" stroke="none"></path><text fill="#000000" stroke="none" font-family="Arial" font-size="13px" font-style="normal" font-weight="bold" text-decoration="none" x="95" y="43.5">Items</text></g></g><g transform="translate(-38,-14) scale(1,1)"><rect fill="#C0C0C0" stroke="none" x="63" y="327" width="88" height="95" opacity="0.2"></rect></g><g transform="translate(-38,-14) scale(1,1)"><rect fill="#ffffff" stroke="none" x="56" y="320" width="88" height="95"></rect></g><g transform="translate(-38,-14) scale(1,1)"><path fill="none" stroke="#000000" d="M 56 320 L 144 320 L 144 415 L 56 415 L 56 320 Z Z" stroke-miterlimit="10"></path></g><g transform="translate(-38,-14) scale(1,1)"><path fill="none" stroke="#000000" d="M 56 345 L 144 345" stroke-miterlimit="10"></path></g><g transform="translate(-38,-14) scale(1,1)"><path fill="none" stroke="#000000" d="M 56 355 L 144 355" stroke-miterlimit="10"></path></g><g transform="translate(-38,-14) scale(1,1)"><g><path fill="none" stroke="none"></path><text fill="#000000" stroke="none" font-family="Arial" font-size="13px" font-style="normal" font-weight="bold" text-decoration="none" x="86" y="339.5">Tags</text></g></g><g transform="translate(-38,-14) scale(1,1)"><rect fill="#C0C0C0" stroke="none" x="695" y="79" width="141" height="111" opacity="0.2"></rect></g><g transform="translate(-38,-14) scale(1,1)"><rect fill="#c3baba" stroke="none" x="688" y="72" width="141" height="111"></rect></g><g transform="translate(-38,-14) scale(1,1)"><path fill="none" stroke="#000000" d="M 688 72 L 829 72 L 829 183 L 688 183 L 688 72 Z Z" stroke-miterlimit="10"></path></g><g transform="translate(-38,-14) scale(1,1)"><path fill="none" stroke="#000000" d="M 688 97 L 829 97" stroke-miterlimit="10"></path></g><g transform="translate(-38,-14) scale(1,1)"><path fill="none" stroke="#000000" d="M 688 120 L 829 120" stroke-miterlimit="10"></path></g><g transform="translate(-38,-14) scale(1,1)"><g><path fill="none" stroke="none"></path><text fill="#000000" stroke="none" font-family="Arial" font-size="13px" font-style="normal" font-weight="bold" text-decoration="none" x="731.5" y="91.5">Suppliers</text></g></g><g transform="translate(-38,-14) scale(1,1)"><g><path fill="none" stroke="none"></path><text fill="#000000" stroke="none" font-family="Arial" font-size="13px" font-style="normal" font-weight="normal" text-decoration="none" x="693" y="114.5">+Lanzadera pago</text></g></g><g transform="translate(-38,-14) scale(1,1)"><rect fill="#C0C0C0" stroke="none" x="63" y="191" width="77" height="108" opacity="0.2"></rect></g><g transform="translate(-38,-14) scale(1,1)"><rect fill="#ffffff" stroke="none" x="56" y="184" width="77" height="108"></rect></g><g transform="translate(-38,-14) scale(1,1)"><path fill="none" stroke="#000000" d="M 56 184 L 133 184 L 133 292 L 56 292 L 56 184 Z Z" stroke-miterlimit="10"></path></g><g transform="translate(-38,-14) scale(1,1)"><path fill="none" stroke="#000000" d="M 56 209 L 133 209" stroke-miterlimit="10"></path></g><g transform="translate(-38,-14) scale(1,1)"><path fill="none" stroke="#000000" d="M 56 219 L 133 219" stroke-miterlimit="10"></path></g><g transform="translate(-38,-14) scale(1,1)"><g><path fill="none" stroke="none"></path><text fill="#000000" stroke="none" font-family="Arial" font-size="13px" font-style="normal" font-weight="bold" text-decoration="none" x="63.5" y="203.5">Categories</text></g></g><g transform="translate(-38,-14) scale(1,1)"><path fill="none" stroke="#000000" d="M 100 121 L 96 136 L 95 183" stroke-miterlimit="10"></path></g><g transform="translate(-38,-14) scale(1,1)"><path fill="none" stroke="#000000" d="M 91.0076129302576 172.7500807083493 L 95 183 L 99.4247434676047 172.9291685921226" stroke-miterlimit="10"></path></g><g transform="translate(-38,-14) scale(1,1)"><rect fill="#C0C0C0" stroke="none" x="463" y="327" width="87" height="117" opacity="0.2"></rect></g><g transform="translate(-38,-14) scale(1,1)"><rect fill="#ffffff" stroke="none" x="456" y="320" width="87" height="117"></rect></g><g transform="translate(-38,-14) scale(1,1)"><path fill="none" stroke="#000000" d="M 456 320 L 543 320 L 543 437 L 456 437 L 456 320 Z Z" stroke-miterlimit="10"></path></g><g transform="translate(-38,-14) scale(1,1)"><path fill="none" stroke="#000000" d="M 456 345 L 543 345" stroke-miterlimit="10"></path></g><g transform="translate(-38,-14) scale(1,1)"><path fill="none" stroke="#000000" d="M 456 368 L 543 368" stroke-miterlimit="10"></path></g><g transform="translate(-38,-14) scale(1,1)"><g><path fill="none" stroke="none"></path><text fill="#000000" stroke="none" font-family="Arial" font-size="13px" font-style="normal" font-weight="bold" text-decoration="none" x="475.5" y="339.5">Pictures</text></g></g><g transform="translate(-38,-14) scale(1,1)"><g><path fill="none" stroke="none"></path><text fill="#000000" stroke="none" font-family="Arial" font-size="13px" font-style="normal" font-weight="normal" text-decoration="none" x="461" y="362.5">+LowD</text></g></g><g transform="translate(-38,-14) scale(1,1)"><path fill="none" stroke="#000000" d="M 303 137 L 304 144 L 304 416 L 448 416 L 455 411" stroke-miterlimit="10"></path></g><g transform="translate(-38,-14) scale(1,1)"><path fill="none" stroke="#000000" d="M 449.1770238082953 420.33236027330923 L 455 411 L 444.2835588144249 413.4815092818907" stroke-miterlimit="10"></path></g><g transform="translate(-38,-14) scale(1,1)"><path fill="none" stroke="#000000" d="M 687 121 L 175 77" stroke-miterlimit="10"></path></g><g transform="translate(-38,-14) scale(1,1)"><path fill="none" stroke="#000000" d="M 455 343 L 173 121" stroke-miterlimit="10"></path></g><g transform="translate(-38,-14) scale(1,1)"><path fill="none" stroke="#000000" d="M 247 81 L 175 76" stroke-miterlimit="10"></path></g><g transform="translate(-38,-14) scale(1,1)"><path fill="none" stroke="#000000" d="M 384 455 L 146 121" stroke-miterlimit="10"></path></g><g transform="translate(-38,-14) scale(1,1)"><path fill="none" stroke="#000000" d="M 451 455 L 705 184" stroke-miterlimit="10"></path></g><g transform="translate(-38,-14) scale(1,1)"><path fill="none" stroke="#000000" d="M 102 319 L 109 121" stroke-miterlimit="10"></path></g></g></svg>