<svg version="1.1" xmlns="http://www.w3.org/2000/svg" xmlns:xlink="http://www.w3.org/1999/xlink" width="659" height="299"><defs></defs><g><g transform="translate(-46,-22) scale(1,1)"><rect fill="#C0C0C0" stroke="none" x="255" y="39" width="102" height="72" opacity="0.2"></rect></g><g transform="translate(-46,-22) scale(1,1)"><rect fill="#ffffff" stroke="none" x="248" y="32" width="102" height="72"></rect></g><g transform="translate(-46,-22) scale(1,1)"><path fill="none" stroke="#000000" d="M 248 32 L 350 32 L 350 104 L 248 104 L 248 32 Z Z" stroke-miterlimit="10"></path></g><g transform="translate(-46,-22) scale(1,1)"><path fill="none" stroke="#000000" d="M 248 57 L 350 57" stroke-miterlimit="10"></path></g><g transform="translate(-46,-22) scale(1,1)"><path fill="none" stroke="#000000" d="M 248 95 L 350 95" stroke-miterlimit="10"></path></g><g transform="translate(-46,-22) scale(1,1)"><g><path fill="none" stroke="none"></path><text fill="#000000" stroke="none" font-family="Arial" font-size="13px" font-style="normal" font-weight="bold" text-decoration="none" x="271.5" y="51.5">Categoria</text></g></g><g transform="translate(-46,-22) scale(1,1)"><g><path fill="none" stroke="none"></path><text fill="#000000" stroke="none" font-family="Arial" font-size="13px" font-style="normal" font-weight="normal" text-decoration="none" x="253" y="74.5">+ID_categoria</text></g></g><g transform="translate(-46,-22) scale(1,1)"><g><path fill="none" stroke="none"></path><text fill="#000000" stroke="none" font-family="Arial" font-size="13px" font-style="normal" font-weight="normal" text-decoration="none" x="253" y="89.5">+nom</text></g></g><g transform="translate(-46,-22) scale(1,1)"><rect fill="#C0C0C0" stroke="none" x="63" y="55" width="120" height="147" opacity="0.2"></rect></g><g transform="translate(-46,-22) scale(1,1)"><rect fill="#ffffff" stroke="none" x="56" y="48" width="120" height="147"></rect></g><g transform="translate(-46,-22) scale(1,1)"><path fill="none" stroke="#000000" d="M 56 48 L 176 48 L 176 195 L 56 195 L 56 48 Z Z" stroke-miterlimit="10"></path></g><g transform="translate(-46,-22) scale(1,1)"><path fill="none" stroke="#000000" d="M 56 73 L 176 73" stroke-miterlimit="10"></path></g><g transform="translate(-46,-22) scale(1,1)"><path fill="none" stroke="#000000" d="M 56 186 L 176 186" stroke-miterlimit="10"></path></g><g transform="translate(-46,-22) scale(1,1)"><g><path fill="none" stroke="none"></path><text fill="#000000" stroke="none" font-family="Arial" font-size="13px" font-style="normal" font-weight="bold" text-decoration="none" x="103.5" y="67.5">Item</text></g></g><g transform="translate(-46,-22) scale(1,1)"><g><path fill="none" stroke="none"></path><text fill="#000000" stroke="none" font-family="Arial" font-size="13px" font-style="normal" font-weight="normal" text-decoration="none" x="61" y="90.5">+ID</text></g></g><g transform="translate(-46,-22) scale(1,1)"><g><path fill="none" stroke="none"></path><text fill="#000000" stroke="none" font-family="Arial" font-size="13px" font-style="normal" font-weight="normal" text-decoration="none" x="61" y="105.5">+Imatge HD</text></g></g><g transform="translate(-46,-22) scale(1,1)"><g><path fill="none" stroke="none"></path><text fill="#000000" stroke="none" font-family="Arial" font-size="13px" font-style="normal" font-weight="normal" text-decoration="none" x="61" y="120.5">+Descripció</text></g></g><g transform="translate(-46,-22) scale(1,1)"><g><path fill="none" stroke="none"></path><text fill="#000000" stroke="none" font-family="Arial" font-size="13px" font-style="normal" font-weight="normal" text-decoration="none" x="61" y="135.5">+Preu</text></g></g><g transform="translate(-46,-22) scale(1,1)"><g><path fill="none" stroke="none"></path><text fill="#000000" stroke="none" font-family="Arial" font-size="13px" font-style="normal" font-weight="normal" text-decoration="none" x="61" y="150.5">+Nom</text></g></g><g transform="translate(-46,-22) scale(1,1)"><g><path fill="none" stroke="none"></path><text fill="#000000" stroke="none" font-family="Arial" font-size="13px" font-style="normal" font-weight="normal" text-decoration="none" x="61" y="165.5">+ID_categoria</text></g></g><g transform="translate(-46,-22) scale(1,1)"><g><path fill="none" stroke="none"></path><text fill="#000000" stroke="none" font-family="Arial" font-size="13px" font-style="normal" font-weight="normal" text-decoration="none" x="61" y="180.5">+ID_tag</text></g></g><g transform="translate(-46,-22) scale(1,1)"><rect fill="#C0C0C0" stroke="none" x="423" y="39" width="96" height="72" opacity="0.2"></rect></g><g transform="translate(-46,-22) scale(1,1)"><rect fill="#ffffff" stroke="none" x="416" y="32" width="96" height="72"></rect></g><g transform="translate(-46,-22) scale(1,1)"><path fill="none" stroke="#000000" d="M 416 32 L 512 32 L 512 104 L 416 104 L 416 32 Z Z" stroke-miterlimit="10"></path></g><g transform="translate(-46,-22) scale(1,1)"><path fill="none" stroke="#000000" d="M 416 57 L 512 57" stroke-miterlimit="10"></path></g><g transform="translate(-46,-22) scale(1,1)"><path fill="none" stroke="#000000" d="M 416 95 L 512 95" stroke-miterlimit="10"></path></g><g transform="translate(-46,-22) scale(1,1)"><g><path fill="none" stroke="none"></path><text fill="#000000" stroke="none" font-family="Arial" font-size="13px" font-style="normal" font-weight="bold" text-decoration="none" x="453.5" y="51.5">Tag</text></g></g><g transform="translate(-46,-22) scale(1,1)"><g><path fill="none" stroke="none"></path><text fill="#000000" stroke="none" font-family="Arial" font-size="13px" font-style="normal" font-weight="normal" text-decoration="none" x="421" y="74.5">+ID_tag</text></g></g><g transform="translate(-46,-22) scale(1,1)"><g><path fill="none" stroke="none"></path><text fill="#000000" stroke="none" font-family="Arial" font-size="13px" font-style="normal" font-weight="normal" text-decoration="none" x="421" y="89.5">+nom</text></g></g><g transform="translate(-46,-22) scale(1,1)"><rect fill="#C0C0C0" stroke="none" x="423" y="183" width="107" height="103" opacity="0.2"></rect></g><g transform="translate(-46,-22) scale(1,1)"><rect fill="#ffffff" stroke="none" x="416" y="176" width="107" height="103"></rect></g><g transform="translate(-46,-22) scale(1,1)"><path fill="none" stroke="#000000" d="M 416 176 L 523 176 L 523 279 L 416 279 L 416 176 Z Z" stroke-miterlimit="10"></path></g><g transform="translate(-46,-22) scale(1,1)"><path fill="none" stroke="#000000" d="M 416 201 L 523 201" stroke-miterlimit="10"></path></g><g transform="translate(-46,-22) scale(1,1)"><path fill="none" stroke="#000000" d="M 416 254 L 523 254" stroke-miterlimit="10"></path></g><g transform="translate(-46,-22) scale(1,1)"><g><path fill="none" stroke="none"></path><text fill="#000000" stroke="none" font-family="Arial" font-size="13px" font-style="normal" font-weight="bold" text-decoration="none" x="441" y="195.5">Proveedor</text></g></g><g transform="translate(-46,-22) scale(1,1)"><g><path fill="none" stroke="none"></path><text fill="#000000" stroke="none" font-family="Arial" font-size="13px" font-style="normal" font-weight="normal" text-decoration="none" x="421" y="218.5">+ID_proveedor</text></g></g><g transform="translate(-46,-22) scale(1,1)"><g><path fill="none" stroke="none"></path><text fill="#000000" stroke="none" font-family="Arial" font-size="13px" font-style="normal" font-weight="normal" text-decoration="none" x="421" y="233.5">+nom</text></g></g><g transform="translate(-46,-22) scale(1,1)"><g><path fill="none" stroke="none"></path><text fill="#000000" stroke="none" font-family="Arial" font-size="13px" font-style="normal" font-weight="normal" text-decoration="none" x="421" y="248.5">+url</text></g></g><g transform="translate(-46,-22) scale(1,1)"><rect fill="#C0C0C0" stroke="none" x="255" y="231" width="103" height="87" opacity="0.2"></rect></g><g transform="translate(-46,-22) scale(1,1)"><rect fill="#ffffff" stroke="none" x="248" y="224" width="103" height="87"></rect></g><g transform="translate(-46,-22) scale(1,1)"><path fill="none" stroke="#000000" d="M 248 224 L 351 224 L 351 311 L 248 311 L 248 224 Z Z" stroke-miterlimit="10"></path></g><g transform="translate(-46,-22) scale(1,1)"><path fill="none" stroke="#000000" d="M 248 249 L 351 249" stroke-miterlimit="10"></path></g><g transform="translate(-46,-22) scale(1,1)"><path fill="none" stroke="#000000" d="M 248 302 L 351 302" stroke-miterlimit="10"></path></g><g transform="translate(-46,-22) scale(1,1)"><g><path fill="none" stroke="none"></path><text fill="#000000" stroke="none" font-family="Arial" font-size="13px" font-style="normal" font-weight="bold" text-decoration="none" x="278" y="243.5">Fichero</text></g></g><g transform="translate(-46,-22) scale(1,1)"><g><path fill="none" stroke="none"></path><text fill="#000000" stroke="none" font-family="Arial" font-size="13px" font-style="normal" font-weight="normal" text-decoration="none" x="253" y="266.5">+ID_fichero</text></g></g><g transform="translate(-46,-22) scale(1,1)"><g><path fill="none" stroke="none"></path><text fill="#000000" stroke="none" font-family="Arial" font-size="13px" font-style="normal" font-weight="normal" text-decoration="none" x="253" y="281.5">+ID_proveedor</text></g></g><g transform="translate(-46,-22) scale(1,1)"><g><path fill="none" stroke="none"></path><text fill="#000000" stroke="none" font-family="Arial" font-size="13px" font-style="normal" font-weight="normal" text-decoration="none" x="253" y="296.5">+tipoArchivo</text></g></g><g transform="translate(-46,-22) scale(1,1)"><rect fill="#C0C0C0" stroke="none" x="591" y="87" width="111" height="87" opacity="0.2"></rect></g><g transform="translate(-46,-22) scale(1,1)"><rect fill="#ffffff" stroke="none" x="584" y="80" width="111" height="87"></rect></g><g transform="translate(-46,-22) scale(1,1)"><path fill="none" stroke="#000000" d="M 584 80 L 695 80 L 695 167 L 584 167 L 584 80 Z Z" stroke-miterlimit="10"></path></g><g transform="translate(-46,-22) scale(1,1)"><path fill="none" stroke="#000000" d="M 584 105 L 695 105" stroke-miterlimit="10"></path></g><g transform="translate(-46,-22) scale(1,1)"><path fill="none" stroke="#000000" d="M 584 158 L 695 158" stroke-miterlimit="10"></path></g><g transform="translate(-46,-22) scale(1,1)"><g><path fill="none" stroke="none"></path><text fill="#000000" stroke="none" font-family="Arial" font-size="13px" font-style="normal" font-weight="bold" text-decoration="none" x="619" y="99.5">Ventas</text></g></g><g transform="translate(-46,-22) scale(1,1)"><g><path fill="none" stroke="none"></path><text fill="#000000" stroke="none" font-family="Arial" font-size="13px" font-style="normal" font-weight="normal" text-decoration="none" x="589" y="122.5">+ID_proveedor</text></g></g><g transform="translate(-46,-22) scale(1,1)"><g><path fill="none" stroke="none"></path><text fill="#000000" stroke="none" font-family="Arial" font-size="13px" font-style="normal" font-weight="normal" text-decoration="none" x="589" y="137.5">+item</text></g></g><g transform="translate(-46,-22) scale(1,1)"><g><path fill="none" stroke="none"></path><text fill="#000000" stroke="none" font-family="Arial" font-size="13px" font-style="normal" font-weight="normal" text-decoration="none" x="589" y="152.5">+ganancias</text></g></g><g transform="translate(-46,-22) scale(1,1)"><path fill="none" stroke="#000000" d="M 247 83 L 177 103" stroke-miterlimit="10" stroke-dasharray="3"></path></g><g transform="translate(-46,-22) scale(1,1)"><path fill="none" stroke="#000000" d="M 185.61521178185617 96.16054637023053 L 177 103 L 187.92809871352966 104.2556506310878" stroke-miterlimit="10"></path></g><g transform="translate(-46,-22) scale(1,1)"><path fill="none" stroke="#000000" d="M 177 170 L 247 226" stroke-miterlimit="10" stroke-dasharray="3"></path></g><g transform="translate(-46,-22) scale(1,1)"><path fill="none" stroke="#000000" d="M 236.4346192883948 222.93850846500584 L 247 226 L 241.693949077946 216.36434622806684" stroke-miterlimit="10"></path></g><g transform="translate(-46,-22) scale(1,1)"><path fill="none" stroke="#000000" d="M 415 68 L 351 68" stroke-miterlimit="10" stroke-dasharray="3"></path></g><g transform="translate(-46,-22) scale(1,1)"><path fill="none" stroke="#000000" d="M 361.16267485762415 63.790482243984016 L 351 68 L 361.16267485762415 72.20951775601598" stroke-miterlimit="10"></path></g><g transform="translate(-46,-22) scale(1,1)"><path fill="none" stroke="#000000" d="M 177 121 L 583 123" stroke-miterlimit="10"></path></g><g transform="translate(-46,-22) scale(1,1)"><path fill="none" stroke="#000000" d="M 572.816712157556 127.15940485141003 L 583 123 L 572.8581847357011 118.74047148796562" stroke-miterlimit="10"></path></g></g></svg>