<svg version="1.1" xmlns="http://www.w3.org/2000/svg" xmlns:xlink="http://www.w3.org/1999/xlink" width="790" height="417"><defs></defs><g><g transform="translate(-14,-6) scale(1,1)"><rect fill="#C0C0C0" stroke="none" x="31" y="31" width="123" height="87" opacity="0.2"></rect></g><g transform="translate(-14,-6) scale(1,1)"><rect fill="#ffffff" stroke="none" x="24" y="24" width="123" height="87"></rect></g><g transform="translate(-14,-6) scale(1,1)"><path fill="none" stroke="#000000" d="M 24 24 L 147 24 L 147 111 L 24 111 L 24 24 Z Z" stroke-miterlimit="10"></path></g><g transform="translate(-14,-6) scale(1,1)"><path fill="none" stroke="#000000" d="M 24 49 L 147 49" stroke-miterlimit="10"></path></g><g transform="translate(-14,-6) scale(1,1)"><path fill="none" stroke="#000000" d="M 24 87 L 147 87" stroke-miterlimit="10"></path></g><g transform="translate(-14,-6) scale(1,1)"><g><path fill="none" stroke="none"></path><text fill="#000000" stroke="none" font-family="Arial" font-size="13px" font-style="normal" font-weight="bold" text-decoration="none" x="65" y="43.5">Search</text></g></g><g transform="translate(-14,-6) scale(1,1)"><g><path fill="none" stroke="none"></path><text fill="#000000" stroke="none" font-family="Arial" font-size="13px" font-style="normal" font-weight="normal" text-decoration="none" x="29" y="66.5">+Color</text></g></g><g transform="translate(-14,-6) scale(1,1)"><g><path fill="none" stroke="none"></path><text fill="#000000" stroke="none" font-family="Arial" font-size="13px" font-style="normal" font-weight="normal" text-decoration="none" x="29" y="81.5">+Price</text></g></g><g transform="translate(-14,-6) scale(1,1)"><rect fill="#C0C0C0" stroke="none" x="231" y="143" width="97" height="72" opacity="0.2"></rect></g><g transform="translate(-14,-6) scale(1,1)"><rect fill="#ffffff" stroke="none" x="224" y="136" width="97" height="72"></rect></g><g transform="translate(-14,-6) scale(1,1)"><path fill="none" stroke="#000000" d="M 224 136 L 321 136 L 321 208 L 224 208 L 224 136 Z Z" stroke-miterlimit="10"></path></g><g transform="translate(-14,-6) scale(1,1)"><path fill="none" stroke="#000000" d="M 224 161 L 321 161" stroke-miterlimit="10"></path></g><g transform="translate(-14,-6) scale(1,1)"><path fill="none" stroke="#000000" d="M 224 199 L 321 199" stroke-miterlimit="10"></path></g><g transform="translate(-14,-6) scale(1,1)"><g><path fill="none" stroke="none"></path><text fill="#000000" stroke="none" font-family="Arial" font-size="13px" font-style="normal" font-weight="bold" text-decoration="none" x="243.5" y="155.5">Catalogue</text></g></g><g transform="translate(-14,-6) scale(1,1)"><g><path fill="none" stroke="none"></path><text fill="#000000" stroke="none" font-family="Arial" font-size="13px" font-style="normal" font-weight="normal" text-decoration="none" x="229" y="178.5">+Best Sellers</text></g></g><g transform="translate(-14,-6) scale(1,1)"><g><path fill="none" stroke="none"></path><text fill="#000000" stroke="none" font-family="Arial" font-size="13px" font-style="normal" font-weight="normal" text-decoration="none" x="229" y="193.5">+Newer</text></g></g><g transform="translate(-14,-6) scale(1,1)"><rect fill="#C0C0C0" stroke="none" x="431" y="151" width="123" height="102" opacity="0.2"></rect></g><g transform="translate(-14,-6) scale(1,1)"><rect fill="#ffffff" stroke="none" x="424" y="144" width="123" height="102"></rect></g><g transform="translate(-14,-6) scale(1,1)"><path fill="none" stroke="#000000" d="M 424 144 L 547 144 L 547 246 L 424 246 L 424 144 Z Z" stroke-miterlimit="10"></path></g><g transform="translate(-14,-6) scale(1,1)"><path fill="none" stroke="#000000" d="M 424 169 L 547 169" stroke-miterlimit="10"></path></g><g transform="translate(-14,-6) scale(1,1)"><path fill="none" stroke="#000000" d="M 424 237 L 547 237" stroke-miterlimit="10"></path></g><g transform="translate(-14,-6) scale(1,1)"><g><path fill="none" stroke="none"></path><text fill="#000000" stroke="none" font-family="Arial" font-size="13px" font-style="normal" font-weight="bold" text-decoration="none" x="459.5" y="163.5">Brochure</text></g></g><g transform="translate(-14,-6) scale(1,1)"><g><path fill="none" stroke="none"></path><text fill="#000000" stroke="none" font-family="Arial" font-size="13px" font-style="normal" font-weight="normal" text-decoration="none" x="429" y="186.5">+Carousel</text></g></g><g transform="translate(-14,-6) scale(1,1)"><g><path fill="none" stroke="none"></path><text fill="#000000" stroke="none" font-family="Arial" font-size="13px" font-style="normal" font-weight="normal" text-decoration="none" x="429" y="201.5">+Thumbnails</text></g></g><g transform="translate(-14,-6) scale(1,1)"><g><path fill="none" stroke="none"></path><text fill="#000000" stroke="none" font-family="Arial" font-size="13px" font-style="normal" font-weight="normal" text-decoration="none" x="429" y="216.5">+Last update</text></g></g><g transform="translate(-14,-6) scale(1,1)"><g><path fill="none" stroke="none"></path><text fill="#000000" stroke="none" font-family="Arial" font-size="13px" font-style="normal" font-weight="normal" text-decoration="none" x="429" y="231.5">+Social networks</text></g></g><g transform="translate(-14,-6) scale(1,1)"><rect fill="#C0C0C0" stroke="none" x="455" y="335" width="74" height="57" opacity="0.2"></rect></g><g transform="translate(-14,-6) scale(1,1)"><rect fill="#ffffff" stroke="none" x="448" y="328" width="74" height="57"></rect></g><g transform="translate(-14,-6) scale(1,1)"><path fill="none" stroke="#000000" d="M 448 328 L 522 328 L 522 385 L 448 385 L 448 328 Z Z" stroke-miterlimit="10"></path></g><g transform="translate(-14,-6) scale(1,1)"><path fill="none" stroke="#000000" d="M 448 353 L 522 353" stroke-miterlimit="10"></path></g><g transform="translate(-14,-6) scale(1,1)"><path fill="none" stroke="#000000" d="M 448 376 L 522 376" stroke-miterlimit="10"></path></g><g transform="translate(-14,-6) scale(1,1)"><g><path fill="none" stroke="none"></path><text fill="#000000" stroke="none" font-family="Arial" font-size="13px" font-style="normal" font-weight="bold" text-decoration="none" x="462.5" y="347.5">Compra</text></g></g><g transform="translate(-14,-6) scale(1,1)"><g><path fill="none" stroke="none"></path><text fill="#000000" stroke="none" font-family="Arial" font-size="13px" font-style="normal" font-weight="normal" text-decoration="none" x="453" y="370.5">+quantity</text></g></g><g transform="translate(-14,-6) scale(1,1)"><rect fill="#C0C0C0" stroke="none" x="191" y="31" width="136" height="72" opacity="0.2"></rect></g><g transform="translate(-14,-6) scale(1,1)"><rect fill="#ffffff" stroke="none" x="184" y="24" width="136" height="72"></rect></g><g transform="translate(-14,-6) scale(1,1)"><path fill="none" stroke="#000000" d="M 184 24 L 320 24 L 320 96 L 184 96 L 184 24 Z Z" stroke-miterlimit="10"></path></g><g transform="translate(-14,-6) scale(1,1)"><path fill="none" stroke="#000000" d="M 184 49 L 320 49" stroke-miterlimit="10"></path></g><g transform="translate(-14,-6) scale(1,1)"><path fill="none" stroke="#000000" d="M 184 87 L 320 87" stroke-miterlimit="10"></path></g><g transform="translate(-14,-6) scale(1,1)"><g><path fill="none" stroke="none"></path><text fill="#000000" stroke="none" font-family="Arial" font-size="13px" font-style="normal" font-weight="bold" text-decoration="none" x="221" y="43.5">Categories</text></g></g><g transform="translate(-14,-6) scale(1,1)"><g><path fill="none" stroke="none"></path><text fill="#000000" stroke="none" font-family="Arial" font-size="13px" font-style="normal" font-weight="normal" text-decoration="none" x="189" y="66.5">+ID</text></g></g><g transform="translate(-14,-6) scale(1,1)"><g><path fill="none" stroke="none"></path><text fill="#000000" stroke="none" font-family="Arial" font-size="13px" font-style="normal" font-weight="normal" text-decoration="none" x="189" y="81.5">+Tag or category</text></g></g><g transform="translate(-14,-6) scale(1,1)"><rect fill="#C0C0C0" stroke="none" x="71" y="167" width="89" height="72" opacity="0.2"></rect></g><g transform="translate(-14,-6) scale(1,1)"><rect fill="#ffffff" stroke="none" x="64" y="160" width="89" height="72"></rect></g><g transform="translate(-14,-6) scale(1,1)"><path fill="none" stroke="#000000" d="M 64 160 L 153 160 L 153 232 L 64 232 L 64 160 Z Z" stroke-miterlimit="10"></path></g><g transform="translate(-14,-6) scale(1,1)"><path fill="none" stroke="#000000" d="M 64 185 L 153 185" stroke-miterlimit="10"></path></g><g transform="translate(-14,-6) scale(1,1)"><path fill="none" stroke="#000000" d="M 64 223 L 153 223" stroke-miterlimit="10"></path></g><g transform="translate(-14,-6) scale(1,1)"><g><path fill="none" stroke="none"></path><text fill="#000000" stroke="none" font-family="Arial" font-size="13px" font-style="normal" font-weight="bold" text-decoration="none" x="81.5" y="179.5">Suppliers</text></g></g><g transform="translate(-14,-6) scale(1,1)"><g><path fill="none" stroke="none"></path><text fill="#000000" stroke="none" font-family="Arial" font-size="13px" font-style="normal" font-weight="normal" text-decoration="none" x="69" y="202.5">+Id</text></g></g><g transform="translate(-14,-6) scale(1,1)"><g><path fill="none" stroke="none"></path><text fill="#000000" stroke="none" font-family="Arial" font-size="13px" font-style="normal" font-weight="normal" text-decoration="none" x="69" y="217.5">+URL</text></g></g><g transform="translate(-14,-6) scale(1,1)"><rect fill="#C0C0C0" stroke="none" x="399" y="23" width="129" height="57" opacity="0.2"></rect></g><g transform="translate(-14,-6) scale(1,1)"><rect fill="#ffffff" stroke="none" x="392" y="16" width="129" height="57"></rect></g><g transform="translate(-14,-6) scale(1,1)"><path fill="none" stroke="#000000" d="M 392 16 L 521 16 L 521 73 L 392 73 L 392 16 Z Z" stroke-miterlimit="10"></path></g><g transform="translate(-14,-6) scale(1,1)"><path fill="none" stroke="#000000" d="M 392 41 L 521 41" stroke-miterlimit="10"></path></g><g transform="translate(-14,-6) scale(1,1)"><path fill="none" stroke="#000000" d="M 392 64 L 521 64" stroke-miterlimit="10"></path></g><g transform="translate(-14,-6) scale(1,1)"><g><path fill="none" stroke="none"></path><text fill="#000000" stroke="none" font-family="Arial" font-size="13px" font-style="normal" font-weight="bold" text-decoration="none" x="446" y="35.5">404</text></g></g><g transform="translate(-14,-6) scale(1,1)"><g><path fill="none" stroke="none"></path><text fill="#000000" stroke="none" font-family="Arial" font-size="13px" font-style="normal" font-weight="normal" text-decoration="none" x="397" y="58.5">+Suggested items</text></g></g><g transform="translate(-14,-6) scale(1,1)"><rect fill="#C0C0C0" stroke="none" x="639" y="55" width="118" height="87" opacity="0.2"></rect></g><g transform="translate(-14,-6) scale(1,1)"><rect fill="#ffffff" stroke="none" x="632" y="48" width="118" height="87"></rect></g><g transform="translate(-14,-6) scale(1,1)"><path fill="none" stroke="#000000" d="M 632 48 L 750 48 L 750 135 L 632 135 L 632 48 Z Z" stroke-miterlimit="10"></path></g><g transform="translate(-14,-6) scale(1,1)"><path fill="none" stroke="#000000" d="M 632 73 L 750 73" stroke-miterlimit="10"></path></g><g transform="translate(-14,-6) scale(1,1)"><path fill="none" stroke="#000000" d="M 632 126 L 750 126" stroke-miterlimit="10"></path></g><g transform="translate(-14,-6) scale(1,1)"><g><path fill="none" stroke="none"></path><text fill="#000000" stroke="none" font-family="Arial" font-size="13px" font-style="normal" font-weight="bold" text-decoration="none" x="642" y="67.5">Suggested items</text></g></g><g transform="translate(-14,-6) scale(1,1)"><g><path fill="none" stroke="none"></path><text fill="#000000" stroke="none" font-family="Arial" font-size="13px" font-style="normal" font-weight="normal" text-decoration="none" x="637" y="90.5">+by description</text></g></g><g transform="translate(-14,-6) scale(1,1)"><g><path fill="none" stroke="none"></path><text fill="#000000" stroke="none" font-family="Arial" font-size="13px" font-style="normal" font-weight="normal" text-decoration="none" x="637" y="105.5">+same supplier</text></g></g><g transform="translate(-14,-6) scale(1,1)"><g><path fill="none" stroke="none"></path><text fill="#000000" stroke="none" font-family="Arial" font-size="13px" font-style="normal" font-weight="normal" text-decoration="none" x="637" y="120.5">+same category</text></g></g><g transform="translate(-14,-6) scale(1,1)"><path fill="none" stroke="#000000" d="M 148 64 L 183 63" stroke-miterlimit="10"></path></g><g transform="translate(-14,-6) scale(1,1)"><path fill="none" stroke="#000000" d="M 172.96169351038094 67.4980443328709 L 183 63 L 172.7212477597107 59.082443059412185" stroke-miterlimit="10"></path></g><g transform="translate(-14,-6) scale(1,1)"><path fill="none" stroke="#000000" d="M 154 189 L 223 179" stroke-miterlimit="10"></path></g><g transform="translate(-14,-6) scale(1,1)"><path fill="none" stroke="#000000" d="M 213.5461683396131 184.62361689102897 L 223 179 L 212.33863388630255 176.29162916318614" stroke-miterlimit="10"></path></g><g transform="translate(-14,-6) scale(1,1)"><path fill="none" stroke="#000000" d="M 213 97 L 147 159" stroke-miterlimit="10"></path></g><g transform="translate(-14,-6) scale(1,1)"><path fill="none" stroke="#000000" d="M 151.52489246431415 148.9737669991969 L 147 159 L 157.28919949028065 155.10996480103222" stroke-miterlimit="10"></path></g><g transform="translate(-14,-6) scale(1,1)"><path fill="none" stroke="#000000" d="M 276 295 L 435 74" stroke-miterlimit="10"></path></g><g transform="translate(-14,-6) scale(1,1)"><path fill="none" stroke="#000000" d="M 432.48189929051466 84.70790216694613 L 435 74 L 425.64780367808254 79.79106414714201" stroke-miterlimit="10"></path></g><g transform="translate(-14,-6) scale(1,1)"><g><path fill="none" stroke="none"></path><text fill="#000000" stroke="none" font-family="Arial" font-size="13px" font-style="normal" font-weight="normal" text-decoration="none" x="340" y="133">+no encuentra</text></g></g><g transform="translate(-14,-6) scale(1,1)"><g><path fill="none" stroke="none"></path><text fill="#000000" stroke="none" font-family="Arial" font-size="13px" font-style="normal" font-weight="normal" text-decoration="none" x="295" y="291">1</text></g></g><g transform="translate(-14,-6) scale(1,1)"><g><path fill="none" stroke="none"></path><text fill="#000000" stroke="none" font-family="Arial" font-size="13px" font-style="normal" font-weight="normal" text-decoration="none" x="429" y="105">1</text></g></g><g transform="translate(-14,-6) scale(1,1)"><path fill="none" stroke="#000000" d="M 522 57 L 631 79" stroke-miterlimit="10"></path></g><g transform="translate(-14,-6) scale(1,1)"><path fill="none" stroke="#000000" d="M 620.2053749408636 81.11567243037871 L 631 79 L 621.8710410980282 72.86305374260863" stroke-miterlimit="10"></path></g><g transform="translate(-14,-6) scale(1,1)"><g><path fill="none" stroke="none"></path><text fill="#000000" stroke="none" font-family="Arial" font-size="13px" font-style="normal" font-weight="normal" text-decoration="none" x="537" y="80">1</text></g></g><g transform="translate(-14,-6) scale(1,1)"><g><path fill="none" stroke="none"></path><text fill="#000000" stroke="none" font-family="Arial" font-size="13px" font-style="normal" font-weight="normal" text-decoration="none" x="597" y="93">1..*</text></g></g><g transform="translate(-14,-6) scale(1,1)"><path fill="none" stroke="#000000" d="M 631 121 L 548 163" stroke-miterlimit="10"></path></g><g transform="translate(-14,-6) scale(1,1)"><path fill="none" stroke="#000000" d="M 555.1671844327781 154.65545283993532 L 548 163 L 558.9684505972448 162.16747883161938" stroke-miterlimit="10"></path></g><g transform="translate(-14,-6) scale(1,1)"><rect fill="#C0C0C0" stroke="none" x="631" y="175" width="170" height="44" opacity="0.2"></rect></g><g transform="translate(-14,-6) scale(1,1)"><rect fill="#ffffff" stroke="none" x="624" y="168" width="170" height="44"></rect></g><g transform="translate(-14,-6) scale(1,1)"><path fill="none" stroke="#000000" d="M 624 168 L 794 168 L 794 212 L 624 212 L 624 168 Z Z" stroke-miterlimit="10"></path></g><g transform="translate(-14,-6) scale(1,1)"><path fill="none" stroke="#000000" d="M 624 193 L 794 193" stroke-miterlimit="10"></path></g><g transform="translate(-14,-6) scale(1,1)"><path fill="none" stroke="#000000" d="M 624 203 L 794 203" stroke-miterlimit="10"></path></g><g transform="translate(-14,-6) scale(1,1)"><g><path fill="none" stroke="none"></path><text fill="#000000" stroke="none" font-family="Arial" font-size="13px" font-style="normal" font-weight="bold" text-decoration="none" x="636" y="187.5">Proceso compra Supplier</text></g></g><g transform="translate(-14,-6) scale(1,1)"><path fill="none" stroke="#000000" d="M 523 328 L 678 213" stroke-miterlimit="10"></path></g><g transform="translate(-14,-6) scale(1,1)"><path fill="none" stroke="#000000" d="M 672.3466040674365 222.43605396496199 L 678 213 L 667.3301476530851 215.67474314561875" stroke-miterlimit="10"></path></g><g transform="translate(-14,-6) scale(1,1)"><rect fill="#C0C0C0" stroke="none" x="615" y="287" width="73" height="57" opacity="0.2"></rect></g><g transform="translate(-14,-6) scale(1,1)"><rect fill="#ffffff" stroke="none" x="608" y="280" width="73" height="57"></rect></g><g transform="translate(-14,-6) scale(1,1)"><path fill="none" stroke="#000000" d="M 608 280 L 681 280 L 681 337 L 608 337 L 608 280 Z Z" stroke-miterlimit="10"></path></g><g transform="translate(-14,-6) scale(1,1)"><path fill="none" stroke="#000000" d="M 608 305 L 681 305" stroke-miterlimit="10"></path></g><g transform="translate(-14,-6) scale(1,1)"><path fill="none" stroke="#000000" d="M 608 328 L 681 328" stroke-miterlimit="10"></path></g><g transform="translate(-14,-6) scale(1,1)"><g><path fill="none" stroke="none"></path><text fill="#000000" stroke="none" font-family="Arial" font-size="13px" font-style="normal" font-weight="bold" text-decoration="none" x="627" y="299.5">Token</text></g></g><g transform="translate(-14,-6) scale(1,1)"><g><path fill="none" stroke="none"></path><text fill="#000000" stroke="none" font-family="Arial" font-size="13px" font-style="normal" font-weight="normal" text-decoration="none" x="613" y="322.5">+ID</text></g></g><g transform="translate(-14,-6) scale(1,1)"><path fill="none" stroke="#000000" d="M 696 213 L 660 279" stroke-miterlimit="10"></path></g><g transform="translate(-14,-6) scale(1,1)"><path fill="none" stroke="#000000" d="M 661.1709015068762 268.0624961869175 L 660 279 L 668.5619355110981 272.0939692801294" stroke-miterlimit="10"></path></g><g transform="translate(-14,-6) scale(1,1)"><path fill="none" stroke="#000000" d="M 485 247 L 485 327" stroke-miterlimit="10"></path></g><g transform="translate(-14,-6) scale(1,1)"><path fill="none" stroke="#000000" d="M 480.790482243984 316.83732514237585 L 485 327 L 489.209517756016 316.83732514237585" stroke-miterlimit="10"></path></g><g transform="translate(-14,-6) scale(1,1)"><g><path fill="none" stroke="none"></path><text fill="#000000" stroke="none" font-family="Arial" font-size="13px" font-style="normal" font-weight="normal" text-decoration="none" x="474" y="293">+permite</text></g></g><g transform="translate(-14,-6) scale(1,1)"><g><path fill="none" stroke="none"></path><text fill="#000000" stroke="none" font-family="Arial" font-size="13px" font-style="normal" font-weight="normal" text-decoration="none" x="469" y="275">1</text></g></g><g transform="translate(-14,-6) scale(1,1)"><g><path fill="none" stroke="none"></path><text fill="#000000" stroke="none" font-family="Arial" font-size="13px" font-style="normal" font-weight="normal" text-decoration="none" x="469" y="312">1</text></g></g><g transform="translate(-14,-6) scale(1,1)"><rect fill="#C0C0C0" stroke="none" x="175" y="303" width="133" height="117" opacity="0.2"></rect></g><g transform="translate(-14,-6) scale(1,1)"><rect fill="#ffffff" stroke="none" x="168" y="296" width="133" height="117"></rect></g><g transform="translate(-14,-6) scale(1,1)"><path fill="none" stroke="#000000" d="M 168 296 L 301 296 L 301 413 L 168 413 L 168 296 Z Z" stroke-miterlimit="10"></path></g><g transform="translate(-14,-6) scale(1,1)"><path fill="none" stroke="#000000" d="M 168 321 L 301 321" stroke-miterlimit="10"></path></g><g transform="translate(-14,-6) scale(1,1)"><path fill="none" stroke="#000000" d="M 168 404 L 301 404" stroke-miterlimit="10"></path></g><g transform="translate(-14,-6) scale(1,1)"><g><path fill="none" stroke="none"></path><text fill="#000000" stroke="none" font-family="Arial" font-size="13px" font-style="normal" font-weight="bold" text-decoration="none" x="222" y="315.5">Item</text></g></g><g transform="translate(-14,-6) scale(1,1)"><g><path fill="none" stroke="none"></path><text fill="#000000" stroke="none" font-family="Arial" font-size="13px" font-style="normal" font-weight="normal" text-decoration="none" x="173" y="338.5">+ID</text></g></g><g transform="translate(-14,-6) scale(1,1)"><g><path fill="none" stroke="none"></path><text fill="#000000" stroke="none" font-family="Arial" font-size="13px" font-style="normal" font-weight="normal" text-decoration="none" x="173" y="353.5">+Image</text></g></g><g transform="translate(-14,-6) scale(1,1)"><g><path fill="none" stroke="none"></path><text fill="#000000" stroke="none" font-family="Arial" font-size="13px" font-style="normal" font-weight="normal" text-decoration="none" x="173" y="368.5">+Short description</text></g></g><g transform="translate(-14,-6) scale(1,1)"><g><path fill="none" stroke="none"></path><text fill="#000000" stroke="none" font-family="Arial" font-size="13px" font-style="normal" font-weight="normal" text-decoration="none" x="173" y="383.5">+Price</text></g></g><g transform="translate(-14,-6) scale(1,1)"><g><path fill="none" stroke="none"></path><text fill="#000000" stroke="none" font-family="Arial" font-size="13px" font-style="normal" font-weight="normal" text-decoration="none" x="173" y="398.5">+Supplier</text></g></g><g transform="translate(-14,-6) scale(1,1)"><path fill="none" stroke="#000000" d="M 246 295 L 264 209" stroke-miterlimit="10"></path></g><g transform="translate(-14,-6) scale(1,1)"><path fill="#FFFFFF" stroke="none" d="M 266.0382788907677 219.80950596296847 L 264 209 L 257.7978058579198 218.08475579330263 L 259.49301060930077 230.5333937555631"></path></g><g transform="translate(-14,-6) scale(1,1)"><path fill="none" stroke="#000000" d="M 266.0382788907677 219.80950596296847 L 264 209 L 257.7978058579198 218.08475579330263 L 259.49301060930077 230.5333937555631 L 266.0382788907677 219.80950596296847" stroke-miterlimit="10"></path></g><g transform="translate(-14,-6) scale(1,1)"><g><path fill="none" stroke="none"></path><text fill="#000000" stroke="none" font-family="Arial" font-size="13px" font-style="normal" font-weight="normal" text-decoration="none" x="225" y="261">+contiene</text></g></g><g transform="translate(-14,-6) scale(1,1)"><g><path fill="none" stroke="none"></path><text fill="#000000" stroke="none" font-family="Arial" font-size="13px" font-style="normal" font-weight="normal" text-decoration="none" x="252" y="283">1..*</text></g></g><g transform="translate(-14,-6) scale(1,1)"><g><path fill="none" stroke="none"></path><text fill="#000000" stroke="none" font-family="Arial" font-size="13px" font-style="normal" font-weight="normal" text-decoration="none" x="268" y="239">1</text></g></g><g transform="translate(-14,-6) scale(1,1)"><path fill="none" stroke="#000000" d="M 302 311 L 423 234" stroke-miterlimit="10"></path></g><g transform="translate(-14,-6) scale(1,1)"><path fill="none" stroke="#000000" d="M 548 163 L 631 121" stroke-miterlimit="10"></path></g><g transform="translate(-14,-6) scale(1,1)"><path fill="none" stroke="#000000" d="M 302 311 L 423 234" stroke-miterlimit="10"></path></g><g transform="translate(-14,-6) scale(1,1)"><path fill="none" stroke="#000000" d="M 416.68612952743604 243.00749907886117 L 423 234 L 412.1661556931222 235.90468305351084" stroke-miterlimit="10"></path></g><g transform="translate(-14,-6) scale(1,1)"><g><path fill="none" stroke="none"></path><text fill="#000000" stroke="none" font-family="Arial" font-size="13px" font-style="normal" font-weight="normal" text-decoration="none" x="323" y="266">+despliega</text></g></g><g transform="translate(-14,-6) scale(1,1)"><g><path fill="none" stroke="none"></path><text fill="#000000" stroke="none" font-family="Arial" font-size="13px" font-style="normal" font-weight="normal" text-decoration="none" x="323" y="316">1</text></g></g><g transform="translate(-14,-6) scale(1,1)"><g><path fill="none" stroke="none"></path><text fill="#000000" stroke="none" font-family="Arial" font-size="13px" font-style="normal" font-weight="normal" text-decoration="none" x="408" y="263">1</text></g></g></g></svg>