<svg version="1.1" xmlns="http://www.w3.org/2000/svg" xmlns:xlink="http://www.w3.org/1999/xlink" width="676" height="416"><defs></defs><g><g transform="translate(-70,-2) scale(1,1)"><rect fill="#C0C0C0" stroke="none" x="327" y="279" width="113" height="95" opacity="0.2"></rect></g><g transform="translate(-70,-2) scale(1,1)"><rect fill="#ffffff" stroke="none" x="320" y="272" width="113" height="95"></rect></g><g transform="translate(-70,-2) scale(1,1)"><path fill="none" stroke="#000000" d="M 320 272 L 433 272 L 433 367 L 320 367 L 320 272 Z Z" stroke-miterlimit="10"></path></g><g transform="translate(-70,-2) scale(1,1)"><path fill="none" stroke="#000000" d="M 320 297 L 433 297" stroke-miterlimit="10"></path></g><g transform="translate(-70,-2) scale(1,1)"><path fill="none" stroke="#000000" d="M 320 335 L 433 335" stroke-miterlimit="10"></path></g><g transform="translate(-70,-2) scale(1,1)"><g><path fill="none" stroke="none"></path><text fill="#000000" stroke="none" font-family="Arial" font-size="13px" font-style="normal" font-weight="bold" text-decoration="none" x="336.5" y="291.5">Spreadsheets</text></g></g><g transform="translate(-70,-2) scale(1,1)"><g><path fill="none" stroke="none"></path><text fill="#000000" stroke="none" font-family="Arial" font-size="13px" font-style="normal" font-weight="normal" text-decoration="none" x="325" y="314.5">+actual_price</text></g></g><g transform="translate(-70,-2) scale(1,1)"><g><path fill="none" stroke="none"></path><text fill="#000000" stroke="none" font-family="Arial" font-size="13px" font-style="normal" font-weight="normal" text-decoration="none" x="325" y="329.5">+token_generator</text></g></g><g transform="translate(-70,-2) scale(1,1)"><rect fill="#C0C0C0" stroke="none" x="87" y="191" width="95" height="96" opacity="0.2"></rect></g><g transform="translate(-70,-2) scale(1,1)"><rect fill="#ffffff" stroke="none" x="80" y="184" width="95" height="96"></rect></g><g transform="translate(-70,-2) scale(1,1)"><path fill="none" stroke="#000000" d="M 80 184 L 175 184 L 175 280 L 80 280 L 80 184 Z Z" stroke-miterlimit="10"></path></g><g transform="translate(-70,-2) scale(1,1)"><path fill="none" stroke="#000000" d="M 80 209 L 175 209" stroke-miterlimit="10"></path></g><g transform="translate(-70,-2) scale(1,1)"><path fill="none" stroke="#000000" d="M 80 247 L 175 247" stroke-miterlimit="10"></path></g><g transform="translate(-70,-2) scale(1,1)"><g><path fill="none" stroke="none"></path><text fill="#000000" stroke="none" font-family="Arial" font-size="13px" font-style="normal" font-weight="bold" text-decoration="none" x="96.5" y="203.5">Categories</text></g></g><g transform="translate(-70,-2) scale(1,1)"><g><path fill="none" stroke="none"></path><text fill="#000000" stroke="none" font-family="Arial" font-size="13px" font-style="normal" font-weight="normal" text-decoration="none" x="85" y="226.5">+codeCat</text></g></g><g transform="translate(-70,-2) scale(1,1)"><g><path fill="none" stroke="none"></path><text fill="#000000" stroke="none" font-family="Arial" font-size="13px" font-style="normal" font-weight="normal" text-decoration="none" x="85" y="241.5">+url_friendly</text></g></g><g transform="translate(-70,-2) scale(1,1)"><rect fill="#C0C0C0" stroke="none" x="87" y="31" width="95" height="117" opacity="0.2"></rect></g><g transform="translate(-70,-2) scale(1,1)"><rect fill="#ffffff" stroke="none" x="80" y="24" width="95" height="117"></rect></g><g transform="translate(-70,-2) scale(1,1)"><path fill="none" stroke="#000000" d="M 80 24 L 175 24 L 175 141 L 80 141 L 80 24 Z Z" stroke-miterlimit="10"></path></g><g transform="translate(-70,-2) scale(1,1)"><path fill="none" stroke="#000000" d="M 80 49 L 175 49" stroke-miterlimit="10"></path></g><g transform="translate(-70,-2) scale(1,1)"><path fill="none" stroke="#000000" d="M 80 132 L 175 132" stroke-miterlimit="10"></path></g><g transform="translate(-70,-2) scale(1,1)"><g><path fill="none" stroke="none"></path><text fill="#000000" stroke="none" font-family="Arial" font-size="13px" font-style="normal" font-weight="bold" text-decoration="none" x="111.5" y="43.5">Items</text></g></g><g transform="translate(-70,-2) scale(1,1)"><g><path fill="none" stroke="none"></path><text fill="#000000" stroke="none" font-family="Arial" font-size="13px" font-style="normal" font-weight="normal" text-decoration="none" x="85" y="66.5">+codeItem</text></g></g><g transform="translate(-70,-2) scale(1,1)"><g><path fill="none" stroke="none"></path><text fill="#000000" stroke="none" font-family="Arial" font-size="13px" font-style="normal" font-weight="normal" text-decoration="none" x="85" y="81.5">+name</text></g></g><g transform="translate(-70,-2) scale(1,1)"><g><path fill="none" stroke="none"></path><text fill="#000000" stroke="none" font-family="Arial" font-size="13px" font-style="normal" font-weight="normal" text-decoration="none" x="85" y="96.5">+description</text></g></g><g transform="translate(-70,-2) scale(1,1)"><g><path fill="none" stroke="none"></path><text fill="#000000" stroke="none" font-family="Arial" font-size="13px" font-style="normal" font-weight="normal" text-decoration="none" x="85" y="111.5">+HD_Picture</text></g></g><g transform="translate(-70,-2) scale(1,1)"><g><path fill="none" stroke="none"></path><text fill="#000000" stroke="none" font-family="Arial" font-size="13px" font-style="normal" font-weight="normal" text-decoration="none" x="85" y="126.5">+price</text></g></g><g transform="translate(-70,-2) scale(1,1)"><rect fill="#C0C0C0" stroke="none" x="623" y="31" width="96" height="95" opacity="0.2"></rect></g><g transform="translate(-70,-2) scale(1,1)"><rect fill="#ffffff" stroke="none" x="616" y="24" width="96" height="95"></rect></g><g transform="translate(-70,-2) scale(1,1)"><path fill="none" stroke="#000000" d="M 616 24 L 712 24 L 712 119 L 616 119 L 616 24 Z Z" stroke-miterlimit="10"></path></g><g transform="translate(-70,-2) scale(1,1)"><path fill="none" stroke="#000000" d="M 616 49 L 712 49" stroke-miterlimit="10"></path></g><g transform="translate(-70,-2) scale(1,1)"><path fill="none" stroke="#000000" d="M 616 87 L 712 87" stroke-miterlimit="10"></path></g><g transform="translate(-70,-2) scale(1,1)"><g><path fill="none" stroke="none"></path><text fill="#000000" stroke="none" font-family="Arial" font-size="13px" font-style="normal" font-weight="bold" text-decoration="none" x="637" y="43.5">Suppliers</text></g></g><g transform="translate(-70,-2) scale(1,1)"><g><path fill="none" stroke="none"></path><text fill="#000000" stroke="none" font-family="Arial" font-size="13px" font-style="normal" font-weight="normal" text-decoration="none" x="621" y="66.5">+codeSupplier</text></g></g><g transform="translate(-70,-2) scale(1,1)"><g><path fill="none" stroke="none"></path><text fill="#000000" stroke="none" font-family="Arial" font-size="13px" font-style="normal" font-weight="normal" text-decoration="none" x="621" y="81.5">+excel</text></g></g><g transform="translate(-70,-2) scale(1,1)"><rect fill="#C0C0C0" stroke="none" x="639" y="247" width="104" height="96" opacity="0.2"></rect></g><g transform="translate(-70,-2) scale(1,1)"><rect fill="#ffffff" stroke="none" x="632" y="240" width="104" height="96"></rect></g><g transform="translate(-70,-2) scale(1,1)"><path fill="none" stroke="#000000" d="M 632 240 L 736 240 L 736 336 L 632 336 L 632 240 Z Z" stroke-miterlimit="10"></path></g><g transform="translate(-70,-2) scale(1,1)"><path fill="none" stroke="#000000" d="M 632 265 L 736 265" stroke-miterlimit="10"></path></g><g transform="translate(-70,-2) scale(1,1)"><path fill="none" stroke="#000000" d="M 632 303 L 736 303" stroke-miterlimit="10"></path></g><g transform="translate(-70,-2) scale(1,1)"><g><path fill="none" stroke="none"></path><text fill="#000000" stroke="none" font-family="Arial" font-size="13px" font-style="normal" font-weight="bold" text-decoration="none" x="668.5" y="259.5">sales</text></g></g><g transform="translate(-70,-2) scale(1,1)"><g><path fill="none" stroke="none"></path><text fill="#000000" stroke="none" font-family="Arial" font-size="13px" font-style="normal" font-weight="normal" text-decoration="none" x="637" y="282.5">+overlay_frame</text></g></g><g transform="translate(-70,-2) scale(1,1)"><g><path fill="none" stroke="none"></path><text fill="#000000" stroke="none" font-family="Arial" font-size="13px" font-style="normal" font-weight="normal" text-decoration="none" x="637" y="297.5">+SaleToken</text></g></g><g transform="translate(-70,-2) scale(1,1)"><rect fill="#C0C0C0" stroke="none" x="87" y="319" width="96" height="96" opacity="0.2"></rect></g><g transform="translate(-70,-2) scale(1,1)"><rect fill="#ffffff" stroke="none" x="80" y="312" width="96" height="96"></rect></g><g transform="translate(-70,-2) scale(1,1)"><path fill="none" stroke="#000000" d="M 80 312 L 176 312 L 176 408 L 80 408 L 80 312 Z Z" stroke-miterlimit="10"></path></g><g transform="translate(-70,-2) scale(1,1)"><path fill="none" stroke="#000000" d="M 80 337 L 176 337" stroke-miterlimit="10"></path></g><g transform="translate(-70,-2) scale(1,1)"><path fill="none" stroke="#000000" d="M 80 360 L 176 360" stroke-miterlimit="10"></path></g><g transform="translate(-70,-2) scale(1,1)"><g><path fill="none" stroke="none"></path><text fill="#000000" stroke="none" font-family="Arial" font-size="13px" font-style="normal" font-weight="bold" text-decoration="none" x="114" y="331.5">Tags</text></g></g><g transform="translate(-70,-2) scale(1,1)"><g><path fill="none" stroke="none"></path><text fill="#000000" stroke="none" font-family="Arial" font-size="13px" font-style="normal" font-weight="normal" text-decoration="none" x="85" y="354.5">+codeTag</text></g></g><g transform="translate(-70,-2) scale(1,1)"><path fill="none" stroke="#000000" d="M 176 129 L 326 271" stroke-miterlimit="10" stroke-dasharray="3"></path></g><g transform="translate(-70,-2) scale(1,1)"><path fill="none" stroke="#000000" d="M 315.7258511042675 267.07038621893713 L 326 271 L 321.51373619694095 260.9564230928736" stroke-miterlimit="10"></path></g><g transform="translate(-70,-2) scale(1,1)"><path fill="none" stroke="#000000" d="M 664 24 L 664 12 L 560 12 L 560 80 L 175 80" stroke-miterlimit="10" stroke-dasharray="3"></path></g><g transform="translate(-70,-2) scale(1,1)"><path fill="none" stroke="#000000" d="M 185.16267485762415 75.79048224398402 L 175 80 L 185.16267485762415 84.20951775601598" stroke-miterlimit="10"></path></g><g transform="translate(-70,-2) scale(1,1)"><path fill="none" stroke="#000000" d="M 127 142 L 127 183" stroke-miterlimit="10" stroke-dasharray="3"></path></g><g transform="translate(-70,-2) scale(1,1)"><path fill="none" stroke="#000000" d="M 122.79048224398402 172.83732514237585 L 127 183 L 131.209517756016 172.83732514237585" stroke-miterlimit="10"></path></g><g transform="translate(-70,-2) scale(1,1)"><path fill="none" stroke="#000000" d="M 127 281 L 128 311" stroke-miterlimit="10" stroke-dasharray="3"></path></g><g transform="translate(-70,-2) scale(1,1)"><path fill="none" stroke="#000000" d="M 123.45425113032024 300.9832057416654 L 128 311 L 131.86861329449724 300.7027270028595" stroke-miterlimit="10"></path></g><g transform="translate(-70,-2) scale(1,1)"><rect fill="#C0C0C0" stroke="none" x="375" y="135" width="103" height="87" opacity="0.2"></rect></g><g transform="translate(-70,-2) scale(1,1)"><rect fill="#ffffff" stroke="none" x="368" y="128" width="103" height="87"></rect></g><g transform="translate(-70,-2) scale(1,1)"><path fill="none" stroke="#000000" d="M 368 128 L 471 128 L 471 215 L 368 215 L 368 128 Z Z" stroke-miterlimit="10"></path></g><g transform="translate(-70,-2) scale(1,1)"><path fill="none" stroke="#000000" d="M 368 153 L 471 153" stroke-miterlimit="10"></path></g><g transform="translate(-70,-2) scale(1,1)"><path fill="none" stroke="#000000" d="M 368 206 L 471 206" stroke-miterlimit="10"></path></g><g transform="translate(-70,-2) scale(1,1)"><g><path fill="none" stroke="none"></path><text fill="#000000" stroke="none" font-family="Arial" font-size="13px" font-style="normal" font-weight="bold" text-decoration="none" x="401" y="147.5">Prices</text></g></g><g transform="translate(-70,-2) scale(1,1)"><g><path fill="none" stroke="none"></path><text fill="#000000" stroke="none" font-family="Arial" font-size="13px" font-style="normal" font-weight="normal" text-decoration="none" x="373" y="170.5">+price</text></g></g><g transform="translate(-70,-2) scale(1,1)"><g><path fill="none" stroke="none"></path><text fill="#000000" stroke="none" font-family="Arial" font-size="13px" font-style="normal" font-weight="normal" text-decoration="none" x="373" y="185.5">+actual_price</text></g></g><g transform="translate(-70,-2) scale(1,1)"><g><path fill="none" stroke="none"></path><text fill="#000000" stroke="none" font-family="Arial" font-size="13px" font-style="normal" font-weight="normal" text-decoration="none" x="373" y="200.5">+discount</text></g></g><g transform="translate(-70,-2) scale(1,1)"><path fill="none" stroke="#000000" d="M 615 91 L 472 149" stroke-miterlimit="10" stroke-dasharray="3"></path></g><g transform="translate(-70,-2) scale(1,1)"><path fill="none" stroke="#000000" d="M 479.8353595024835 141.2794338635796 L 472 149 L 482.9997005069026 149.08117116757847" stroke-miterlimit="10"></path></g><g transform="translate(-70,-2) scale(1,1)"><path fill="none" stroke="#000000" d="M 472 194 L 631 265" stroke-miterlimit="10" stroke-dasharray="3"></path></g><g transform="translate(-70,-2) scale(1,1)"><path fill="none" stroke="#000000" d="M 620.0040911924676 264.70001750645577 L 631 265 L 623.4368379723073 257.0125986614626" stroke-miterlimit="10"></path></g><g transform="translate(-70,-2) scale(1,1)"><path fill="none" stroke="#000000" d="M 434 313 L 631 293" stroke-miterlimit="10" stroke-dasharray="3"></path></g><g transform="translate(-70,-2) scale(1,1)"><path fill="none" stroke="#000000" d="M 621.3144732135064 298.2144578690517 L 631 293 L 620.4641198104885 289.8384768493245" stroke-miterlimit="10"></path></g><g transform="translate(-70,-2) scale(1,1)"><path fill="none" stroke="#000000" d="M 367 155 L 176 97" stroke-miterlimit="10" stroke-dasharray="3"></path></g><g transform="translate(-70,-2) scale(1,1)"><path fill="none" stroke="#000000" d="M 186.94734570814774 95.92500142032685 L 176 97 L 184.5010811716775 103.98080360077192" stroke-miterlimit="10"></path></g></g></svg>