<svg version="1.1" xmlns="http://www.w3.org/2000/svg" xmlns:xlink="http://www.w3.org/1999/xlink" width="869" height="580"><defs></defs><g><g transform="translate(-46,2) scale(1,1)"><rect fill="#C0C0C0" stroke="none" x="159" y="503" width="128" height="72" opacity="0.2"></rect></g><g transform="translate(-46,2) scale(1,1)"><rect fill="#ffffff" stroke="none" x="152" y="496" width="128" height="72"></rect></g><g transform="translate(-46,2) scale(1,1)"><path fill="none" stroke="#000000" d="M 152 496 L 280 496 L 280 568 L 152 568 L 152 496 Z Z" stroke-miterlimit="10"></path></g><g transform="translate(-46,2) scale(1,1)"><path fill="none" stroke="#000000" d="M 152 521 L 280 521" stroke-miterlimit="10"></path></g><g transform="translate(-46,2) scale(1,1)"><path fill="none" stroke="#000000" d="M 152 531 L 280 531" stroke-miterlimit="10"></path></g><g transform="translate(-46,2) scale(1,1)"><g><path fill="none" stroke="none"></path><text fill="#000000" stroke="none" font-family="Arial" font-size="13px" font-style="normal" font-weight="bold" text-decoration="none" x="163.5" y="515.5">Categorized items</text></g></g><g transform="translate(-46,2) scale(1,1)"><rect fill="#C0C0C0" stroke="none" x="255" y="39" width="80" height="104" opacity="0.2"></rect></g><g transform="translate(-46,2) scale(1,1)"><rect fill="#f36868" stroke="none" x="248" y="32" width="80" height="104"></rect></g><g transform="translate(-46,2) scale(1,1)"><path fill="none" stroke="#000000" d="M 248 32 L 328 32 L 328 136 L 248 136 L 248 32 Z Z" stroke-miterlimit="10"></path></g><g transform="translate(-46,2) scale(1,1)"><path fill="none" stroke="#000000" d="M 248 57 L 328 57" stroke-miterlimit="10"></path></g><g transform="translate(-46,2) scale(1,1)"><path fill="none" stroke="#000000" d="M 248 67 L 328 67" stroke-miterlimit="10"></path></g><g transform="translate(-46,2) scale(1,1)"><g><path fill="none" stroke="none"></path><text fill="#000000" stroke="none" font-family="Arial" font-size="13px" font-style="normal" font-weight="bold" text-decoration="none" x="263" y="51.5">brochure</text></g></g><g transform="translate(-46,2) scale(1,1)"><rect fill="#C0C0C0" stroke="none" x="351" y="463" width="138" height="79" opacity="0.2"></rect></g><g transform="translate(-46,2) scale(1,1)"><rect fill="#ffffff" stroke="none" x="344" y="456" width="138" height="79"></rect></g><g transform="translate(-46,2) scale(1,1)"><path fill="none" stroke="#000000" d="M 344 456 L 482 456 L 482 535 L 344 535 L 344 456 Z Z" stroke-miterlimit="10"></path></g><g transform="translate(-46,2) scale(1,1)"><path fill="none" stroke="#000000" d="M 344 481 L 482 481" stroke-miterlimit="10"></path></g><g transform="translate(-46,2) scale(1,1)"><path fill="none" stroke="#000000" d="M 344 491 L 482 491" stroke-miterlimit="10"></path></g><g transform="translate(-46,2) scale(1,1)"><g><path fill="none" stroke="none"></path><text fill="#000000" stroke="none" font-family="Arial" font-size="13px" font-style="normal" font-weight="bold" text-decoration="none" x="356" y="475.5">Registros de ventas</text></g></g><g transform="translate(-46,2) scale(1,1)"><rect fill="#C0C0C0" stroke="none" x="63" y="31" width="126" height="96" opacity="0.2"></rect></g><g transform="translate(-46,2) scale(1,1)"><rect fill="#f36868" stroke="none" x="56" y="24" width="126" height="96"></rect></g><g transform="translate(-46,2) scale(1,1)"><path fill="none" stroke="#000000" d="M 56 24 L 182 24 L 182 120 L 56 120 L 56 24 Z Z" stroke-miterlimit="10"></path></g><g transform="translate(-46,2) scale(1,1)"><path fill="none" stroke="#000000" d="M 56 49 L 182 49" stroke-miterlimit="10"></path></g><g transform="translate(-46,2) scale(1,1)"><path fill="none" stroke="#000000" d="M 56 59 L 182 59" stroke-miterlimit="10"></path></g><g transform="translate(-46,2) scale(1,1)"><g><path fill="none" stroke="none"></path><text fill="#000000" stroke="none" font-family="Arial" font-size="13px" font-style="normal" font-weight="bold" text-decoration="none" x="90" y="43.5">Catalogue</text></g></g><g transform="translate(-46,2) scale(1,1)"><rect fill="#C0C0C0" stroke="none" x="63" y="327" width="88" height="95" opacity="0.2"></rect></g><g transform="translate(-46,2) scale(1,1)"><rect fill="#ffffff" stroke="none" x="56" y="320" width="88" height="95"></rect></g><g transform="translate(-46,2) scale(1,1)"><path fill="none" stroke="#000000" d="M 56 320 L 144 320 L 144 415 L 56 415 L 56 320 Z Z" stroke-miterlimit="10"></path></g><g transform="translate(-46,2) scale(1,1)"><path fill="none" stroke="#000000" d="M 56 345 L 144 345" stroke-miterlimit="10"></path></g><g transform="translate(-46,2) scale(1,1)"><path fill="none" stroke="#000000" d="M 56 355 L 144 355" stroke-miterlimit="10"></path></g><g transform="translate(-46,2) scale(1,1)"><g><path fill="none" stroke="none"></path><text fill="#000000" stroke="none" font-family="Arial" font-size="13px" font-style="normal" font-weight="bold" text-decoration="none" x="86" y="339.5">Tags</text></g></g><g transform="translate(-46,2) scale(1,1)"><rect fill="#C0C0C0" stroke="none" x="471" y="87" width="120" height="95" opacity="0.2"></rect></g><g transform="translate(-46,2) scale(1,1)"><rect fill="#f19b9b" stroke="none" x="464" y="80" width="120" height="95"></rect></g><g transform="translate(-46,2) scale(1,1)"><path fill="none" stroke="#000000" d="M 464 80 L 584 80 L 584 175 L 464 175 L 464 80 Z Z" stroke-miterlimit="10"></path></g><g transform="translate(-46,2) scale(1,1)"><path fill="none" stroke="#000000" d="M 464 105 L 584 105" stroke-miterlimit="10"></path></g><g transform="translate(-46,2) scale(1,1)"><path fill="none" stroke="#000000" d="M 464 115 L 584 115" stroke-miterlimit="10"></path></g><g transform="translate(-46,2) scale(1,1)"><g><path fill="none" stroke="none"></path><text fill="#000000" stroke="none" font-family="Arial" font-size="13px" font-style="normal" font-weight="bold" text-decoration="none" x="481" y="99.5">Overlay frames</text></g></g><g transform="translate(-46,2) scale(1,1)"><rect fill="#C0C0C0" stroke="none" x="359" y="255" width="89" height="63" opacity="0.2"></rect></g><g transform="translate(-46,2) scale(1,1)"><rect fill="#ffffff" stroke="none" x="352" y="248" width="89" height="63"></rect></g><g transform="translate(-46,2) scale(1,1)"><path fill="none" stroke="#000000" d="M 352 248 L 441 248 L 441 311 L 352 311 L 352 248 Z Z" stroke-miterlimit="10"></path></g><g transform="translate(-46,2) scale(1,1)"><path fill="none" stroke="#000000" d="M 352 273 L 441 273" stroke-miterlimit="10"></path></g><g transform="translate(-46,2) scale(1,1)"><path fill="none" stroke="#000000" d="M 352 296 L 441 296" stroke-miterlimit="10"></path></g><g transform="translate(-46,2) scale(1,1)"><g><path fill="none" stroke="none"></path><text fill="#000000" stroke="none" font-family="Arial" font-size="13px" font-style="normal" font-weight="bold" text-decoration="none" x="363.5" y="267.5">full features</text></g></g><g transform="translate(-46,2) scale(1,1)"><g><path fill="none" stroke="none"></path><text fill="#000000" stroke="none" font-family="Arial" font-size="13px" font-style="normal" font-weight="normal" text-decoration="none" x="357" y="290.5">+Nom friendly</text></g></g><g transform="translate(-46,2) scale(1,1)"><rect fill="#C0C0C0" stroke="none" x="351" y="327" width="96" height="72" opacity="0.2"></rect></g><g transform="translate(-46,2) scale(1,1)"><rect fill="#ffffff" stroke="none" x="344" y="320" width="96" height="72"></rect></g><g transform="translate(-46,2) scale(1,1)"><path fill="none" stroke="#000000" d="M 344 320 L 440 320 L 440 392 L 344 392 L 344 320 Z Z" stroke-miterlimit="10"></path></g><g transform="translate(-46,2) scale(1,1)"><path fill="none" stroke="#000000" d="M 344 345 L 440 345" stroke-miterlimit="10"></path></g><g transform="translate(-46,2) scale(1,1)"><path fill="none" stroke="#000000" d="M 344 383 L 440 383" stroke-miterlimit="10"></path></g><g transform="translate(-46,2) scale(1,1)"><g><path fill="none" stroke="none"></path><text fill="#000000" stroke="none" font-family="Arial" font-size="13px" font-style="normal" font-weight="bold" text-decoration="none" x="355.5" y="339.5">HR Carousel</text></g></g><g transform="translate(-46,2) scale(1,1)"><g><path fill="none" stroke="none"></path><text fill="#000000" stroke="none" font-family="Arial" font-size="13px" font-style="normal" font-weight="normal" text-decoration="none" x="349" y="362.5">+HR</text></g></g><g transform="translate(-46,2) scale(1,1)"><g><path fill="none" stroke="none"></path><text fill="#000000" stroke="none" font-family="Arial" font-size="13px" font-style="normal" font-weight="normal" text-decoration="none" x="349" y="377.5">+zoom</text></g></g><g transform="translate(-46,2) scale(1,1)"><path fill="none" stroke="#000000" d="M 302 137 L 304 144 L 304 280 L 351 279" stroke-miterlimit="10"></path></g><g transform="translate(-46,2) scale(1,1)"><path fill="none" stroke="#000000" d="M 340.9291685921226 283.4247434676047 L 351 279 L 340.7500807083493 275.0076129302576" stroke-miterlimit="10"></path></g><g transform="translate(-46,2) scale(1,1)"><path fill="none" stroke="#000000" d="M 302 137 L 304 144 L 304 352 L 343 354" stroke-miterlimit="10"></path></g><g transform="translate(-46,2) scale(1,1)"><path fill="none" stroke="#000000" d="M 332.6350725839661 357.6835145799017 L 343 354 L 333.06625139956805 349.27552767566414" stroke-miterlimit="10"></path></g><g transform="translate(-46,2) scale(1,1)"><path fill="none" stroke="#6cd800" d="M 329 109 L 360 128 L 463 127" stroke-miterlimit="10"></path></g><g transform="translate(-46,2) scale(1,1)"><path fill="none" stroke="#6cd800" d="M 452.8786712517165 131.30798147270514 L 463 127 L 452.7969368948946 122.88934272004622" stroke-miterlimit="10"></path></g><g transform="translate(-46,2) scale(1,1)"><g><path fill="none" stroke="none"></path><text fill="#6cd800" stroke="none" font-family="Arial" font-size="13px" font-style="normal" font-weight="normal" text-decoration="none" x="360" y="124">+buying an item</text></g></g><g transform="translate(-46,2) scale(1,1)"><rect fill="#C0C0C0" stroke="none" x="695" y="79" width="141" height="111" opacity="0.2"></rect></g><g transform="translate(-46,2) scale(1,1)"><rect fill="#c3baba" stroke="none" x="688" y="72" width="141" height="111"></rect></g><g transform="translate(-46,2) scale(1,1)"><path fill="none" stroke="#000000" d="M 688 72 L 829 72 L 829 183 L 688 183 L 688 72 Z Z" stroke-miterlimit="10"></path></g><g transform="translate(-46,2) scale(1,1)"><path fill="none" stroke="#000000" d="M 688 97 L 829 97" stroke-miterlimit="10"></path></g><g transform="translate(-46,2) scale(1,1)"><path fill="none" stroke="#000000" d="M 688 150 L 829 150" stroke-miterlimit="10"></path></g><g transform="translate(-46,2) scale(1,1)"><g><path fill="none" stroke="none"></path><text fill="#000000" stroke="none" font-family="Arial" font-size="13px" font-style="normal" font-weight="bold" text-decoration="none" x="732" y="91.5">Proveïdor</text></g></g><g transform="translate(-46,2) scale(1,1)"><g><path fill="none" stroke="none"></path><text fill="#000000" stroke="none" font-family="Arial" font-size="13px" font-style="normal" font-weight="normal" text-decoration="none" x="693" y="114.5">+Productos</text></g></g><g transform="translate(-46,2) scale(1,1)"><g><path fill="none" stroke="none"></path><text fill="#000000" stroke="none" font-family="Arial" font-size="13px" font-style="normal" font-weight="normal" text-decoration="none" x="693" y="129.5">+Lanzadera pago</text></g></g><g transform="translate(-46,2) scale(1,1)"><g><path fill="none" stroke="none"></path><text fill="#000000" stroke="none" font-family="Arial" font-size="13px" font-style="normal" font-weight="normal" text-decoration="none" x="693" y="144.5">+Actualizacion precios</text></g></g><g transform="translate(-46,2) scale(1,1)"><path fill="none" stroke="#a49c9c" d="M 585 128 L 616 128 L 687 128" stroke-miterlimit="10"></path></g><g transform="translate(-46,2) scale(1,1)"><path fill="#a49c9c" stroke="none" d="M 676.8373251423759 132.209517756016 L 687 128 L 676.8373251423758 123.79048224398402 L 665 128"></path></g><g transform="translate(-46,2) scale(1,1)"><path fill="none" stroke="#a49c9c" d="M 676.8373251423759 132.209517756016 L 687 128 L 676.8373251423758 123.79048224398402 L 665 128 L 676.8373251423759 132.209517756016" stroke-miterlimit="10"></path></g><g transform="translate(-46,2) scale(1,1)"><rect fill="#C0C0C0" stroke="none" x="599" y="215" width="126" height="103" opacity="0.2"></rect></g><g transform="translate(-46,2) scale(1,1)"><rect fill="#008ed6" stroke="none" x="592" y="208" width="126" height="103"></rect></g><g transform="translate(-46,2) scale(1,1)"><path fill="none" stroke="#000000" d="M 592 208 L 718 208 L 718 311 L 592 311 L 592 208 Z Z" stroke-miterlimit="10"></path></g><g transform="translate(-46,2) scale(1,1)"><path fill="none" stroke="#000000" d="M 592 233 L 718 233" stroke-miterlimit="10"></path></g><g transform="translate(-46,2) scale(1,1)"><path fill="none" stroke="#000000" d="M 592 301 L 718 301" stroke-miterlimit="10"></path></g><g transform="translate(-46,2) scale(1,1)"><g><path fill="none" stroke="none"></path><text fill="#000000" stroke="none" font-family="Arial" font-size="13px" font-style="normal" font-weight="bold" text-decoration="none" x="628.5" y="227.5">page 404</text></g></g><g transform="translate(-46,2) scale(1,1)"><g><path fill="none" stroke="none"></path><text fill="#000000" stroke="none" font-family="Arial" font-size="13px" font-style="normal" font-weight="normal" text-decoration="none" x="597" y="250.5">+Search</text></g></g><g transform="translate(-46,2) scale(1,1)"><g><path fill="none" stroke="none"></path><text fill="#000000" stroke="none" font-family="Arial" font-size="13px" font-style="normal" font-weight="normal" text-decoration="none" x="597" y="265.5">+Categorized items</text></g></g><g transform="translate(-46,2) scale(1,1)"><g><path fill="none" stroke="none"></path><text fill="#000000" stroke="none" font-family="Arial" font-size="13px" font-style="normal" font-weight="normal" text-decoration="none" x="597" y="280.5">+proveedores lista</text></g></g><g transform="translate(-46,2) scale(1,1)"><g><path fill="none" stroke="none"></path><text fill="#000000" stroke="none" font-family="Arial" font-size="13px" font-style="normal" font-weight="normal" text-decoration="none" x="597" y="295.5">+Carrusel productes</text></g></g><g transform="translate(-46,2) scale(1,1)"><path fill="none" stroke="#0000ff" d="M 522 176 L 520 256 L 591 258" stroke-miterlimit="10"></path></g><g transform="translate(-46,2) scale(1,1)"><path fill="none" stroke="#0000ff" d="M 580.7228238043909 261.92168961602107 L 591 258 L 580.9598856994386 253.50599234183326" stroke-miterlimit="10"></path></g><g transform="translate(-46,2) scale(1,1)"><path fill="none" stroke="#0000d1" d="M 650 312 L 648 336 L 904 336 L 904 8 L 288 8 L 288 31" stroke-miterlimit="10"></path></g><g transform="translate(-46,2) scale(1,1)"><path fill="none" stroke="#0000d1" d="M 283.790482243984 20.837325142375846 L 288 31 L 292.209517756016 20.837325142375846" stroke-miterlimit="10"></path></g><g transform="translate(-46,2) scale(1,1)"><rect fill="#C0C0C0" stroke="none" x="63" y="191" width="77" height="108" opacity="0.2"></rect></g><g transform="translate(-46,2) scale(1,1)"><rect fill="#ffffff" stroke="none" x="56" y="184" width="77" height="108"></rect></g><g transform="translate(-46,2) scale(1,1)"><path fill="none" stroke="#000000" d="M 56 184 L 133 184 L 133 292 L 56 292 L 56 184 Z Z" stroke-miterlimit="10"></path></g><g transform="translate(-46,2) scale(1,1)"><path fill="none" stroke="#000000" d="M 56 209 L 133 209" stroke-miterlimit="10"></path></g><g transform="translate(-46,2) scale(1,1)"><path fill="none" stroke="#000000" d="M 56 219 L 133 219" stroke-miterlimit="10"></path></g><g transform="translate(-46,2) scale(1,1)"><g><path fill="none" stroke="none"></path><text fill="#000000" stroke="none" font-family="Arial" font-size="13px" font-style="normal" font-weight="bold" text-decoration="none" x="63.5" y="203.5">Categories</text></g></g><g transform="translate(-46,2) scale(1,1)"><path fill="none" stroke="#000000" d="M 101 121 L 96 136 L 95 183" stroke-miterlimit="10"></path></g><g transform="translate(-46,2) scale(1,1)"><path fill="none" stroke="#000000" d="M 91.0076129302576 172.7500807083493 L 95 183 L 99.4247434676047 172.9291685921226" stroke-miterlimit="10"></path></g><g transform="translate(-46,2) scale(1,1)"><path fill="none" stroke="#000000" d="M 98 319 L 97 293" stroke-miterlimit="10"></path></g><g transform="translate(-46,2) scale(1,1)"><path fill="none" stroke="#000000" d="M 101.59699098118583 302.99338150572146 L 97 293 L 93.18417566617 303.31695132552977" stroke-miterlimit="10"></path></g><g transform="translate(-46,2) scale(1,1)"><path fill="none" stroke="#000000" d="M 755 184 L 752 256 L 719 257" stroke-miterlimit="10"></path></g><g transform="translate(-46,2) scale(1,1)"><path fill="none" stroke="#000000" d="M 729.0305093940523 252.48459511274683 L 719 257 L 729.2855146268693 260.8997677957101" stroke-miterlimit="10"></path></g><g transform="translate(-46,2) scale(1,1)"><path fill="none" stroke="#0000ff" d="M 120 23 L 120 8 L 904 8 L 904 336 L 648 336 L 650 312" stroke-miterlimit="10"></path></g><g transform="translate(-46,2) scale(1,1)"><path fill="none" stroke="#0000ff" d="M 653.3510128538653 322.47715194378844 L 650 312 L 644.9610587258368 321.77798909978605" stroke-miterlimit="10"></path></g><g transform="translate(-46,2) scale(1,1)"><path fill="none" stroke="#000000" d="M 302 137 L 304 144 L 304 496 L 343 496" stroke-miterlimit="10"></path></g><g transform="translate(-46,2) scale(1,1)"><path fill="none" stroke="#000000" d="M 332.83732514237585 500.209517756016 L 343 496 L 332.83732514237585 491.790482243984" stroke-miterlimit="10"></path></g><g transform="translate(-46,2) scale(1,1)"><path fill="none" stroke="#000000" d="M 216 495 L 216 112 L 183 98" stroke-miterlimit="10"></path></g><g transform="translate(-46,2) scale(1,1)"><path fill="none" stroke="#000000" d="M 193.9995998440009 98.09382575262543 L 183 98 L 190.71154681410013 105.8442364659629" stroke-miterlimit="10"></path></g><g transform="translate(-46,2) scale(1,1)"><path fill="none" stroke="#000000" d="M 216 495 L 216 112 L 247 100" stroke-miterlimit="10"></path></g><g transform="translate(-46,2) scale(1,1)"><path fill="none" stroke="#000000" d="M 239.0422247191813 107.5943276581927 L 247 100 L 236.0030025501138 99.74300372143502" stroke-miterlimit="10"></path></g><g transform="translate(-46,2) scale(1,1)"><rect fill="#C0C0C0" stroke="none" x="463" y="327" width="87" height="117" opacity="0.2"></rect></g><g transform="translate(-46,2) scale(1,1)"><rect fill="#ffffff" stroke="none" x="456" y="320" width="87" height="117"></rect></g><g transform="translate(-46,2) scale(1,1)"><path fill="none" stroke="#000000" d="M 456 320 L 543 320 L 543 437 L 456 437 L 456 320 Z Z" stroke-miterlimit="10"></path></g><g transform="translate(-46,2) scale(1,1)"><path fill="none" stroke="#000000" d="M 456 345 L 543 345" stroke-miterlimit="10"></path></g><g transform="translate(-46,2) scale(1,1)"><path fill="none" stroke="#000000" d="M 456 428 L 543 428" stroke-miterlimit="10"></path></g><g transform="translate(-46,2) scale(1,1)"><g><path fill="none" stroke="none"></path><text fill="#000000" stroke="none" font-family="Arial" font-size="13px" font-style="normal" font-weight="bold" text-decoration="none" x="479" y="339.5">Galeria</text></g></g><g transform="translate(-46,2) scale(1,1)"><g><path fill="none" stroke="none"></path><text fill="#000000" stroke="none" font-family="Arial" font-size="13px" font-style="normal" font-weight="normal" text-decoration="none" x="461" y="362.5">+LowD</text></g></g><g transform="translate(-46,2) scale(1,1)"><g><path fill="none" stroke="none"></path><text fill="#000000" stroke="none" font-family="Arial" font-size="13px" font-style="normal" font-weight="normal" text-decoration="none" x="461" y="377.5">+Image1</text></g></g><g transform="translate(-46,2) scale(1,1)"><g><path fill="none" stroke="none"></path><text fill="#000000" stroke="none" font-family="Arial" font-size="13px" font-style="normal" font-weight="normal" text-decoration="none" x="461" y="392.5">+Image2</text></g></g><g transform="translate(-46,2) scale(1,1)"><g><path fill="none" stroke="none"></path><text fill="#000000" stroke="none" font-family="Arial" font-size="13px" font-style="normal" font-weight="normal" text-decoration="none" x="461" y="407.5">+Image3</text></g></g><g transform="translate(-46,2) scale(1,1)"><g><path fill="none" stroke="none"></path><text fill="#000000" stroke="none" font-family="Arial" font-size="13px" font-style="normal" font-weight="normal" text-decoration="none" x="461" y="422.5">+Image4</text></g></g><g transform="translate(-46,2) scale(1,1)"><path fill="none" stroke="#000000" d="M 302 137 L 304 144 L 304 416 L 448 416 L 455 411" stroke-miterlimit="10"></path></g><g transform="translate(-46,2) scale(1,1)"><path fill="none" stroke="#000000" d="M 449.1770238082953 420.33236027330923 L 455 411 L 444.2835588144249 413.4815092818907" stroke-miterlimit="10"></path></g></g></svg>