<svg version="1.1" xmlns="http://www.w3.org/2000/svg" xmlns:xlink="http://www.w3.org/1999/xlink" width="728" height="355"><defs></defs><g><g transform="translate(-46,-30) scale(1,1)"><rect fill="#C0C0C0" stroke="none" x="367" y="47" width="140" height="72" opacity="0.2"></rect></g><g transform="translate(-46,-30) scale(1,1)"><rect fill="#ffffff" stroke="none" x="360" y="40" width="140" height="72"></rect></g><g transform="translate(-46,-30) scale(1,1)"><path fill="none" stroke="#000000" d="M 360 40 L 500 40 L 500 112 L 360 112 L 360 40 Z Z" stroke-miterlimit="10"></path></g><g transform="translate(-46,-30) scale(1,1)"><path fill="none" stroke="#000000" d="M 360 65 L 500 65" stroke-miterlimit="10"></path></g><g transform="translate(-46,-30) scale(1,1)"><path fill="none" stroke="#000000" d="M 360 103 L 500 103" stroke-miterlimit="10"></path></g><g transform="translate(-46,-30) scale(1,1)"><g><path fill="none" stroke="none"></path><text fill="#000000" stroke="none" font-family="Arial" font-size="13px" font-style="normal" font-weight="bold" text-decoration="none" x="399" y="59.5">Categories</text></g></g><g transform="translate(-46,-30) scale(1,1)"><g><path fill="none" stroke="none"></path><text fill="#000000" stroke="none" font-family="Arial" font-size="13px" font-style="normal" font-weight="normal" text-decoration="none" x="365" y="82.5">+ID_categoria: number</text></g></g><g transform="translate(-46,-30) scale(1,1)"><g><path fill="none" stroke="none"></path><text fill="#000000" stroke="none" font-family="Arial" font-size="13px" font-style="normal" font-weight="normal" text-decoration="none" x="365" y="97.5">+nom: string</text></g></g><g transform="translate(-46,-30) scale(1,1)"><rect fill="#C0C0C0" stroke="none" x="63" y="55" width="140" height="147" opacity="0.2"></rect></g><g transform="translate(-46,-30) scale(1,1)"><rect fill="#ffffff" stroke="none" x="56" y="48" width="140" height="147"></rect></g><g transform="translate(-46,-30) scale(1,1)"><path fill="none" stroke="#000000" d="M 56 48 L 196 48 L 196 195 L 56 195 L 56 48 Z Z" stroke-miterlimit="10"></path></g><g transform="translate(-46,-30) scale(1,1)"><path fill="none" stroke="#000000" d="M 56 73 L 196 73" stroke-miterlimit="10"></path></g><g transform="translate(-46,-30) scale(1,1)"><path fill="none" stroke="#000000" d="M 56 186 L 196 186" stroke-miterlimit="10"></path></g><g transform="translate(-46,-30) scale(1,1)"><g><path fill="none" stroke="none"></path><text fill="#000000" stroke="none" font-family="Arial" font-size="13px" font-style="normal" font-weight="bold" text-decoration="none" x="110" y="67.5">Items</text></g></g><g transform="translate(-46,-30) scale(1,1)"><g><path fill="none" stroke="none"></path><text fill="#000000" stroke="none" font-family="Arial" font-size="13px" font-style="normal" font-weight="normal" text-decoration="none" x="61" y="90.5">+ID: number</text></g></g><g transform="translate(-46,-30) scale(1,1)"><g><path fill="none" stroke="none"></path><text fill="#000000" stroke="none" font-family="Arial" font-size="13px" font-style="normal" font-weight="normal" text-decoration="none" x="61" y="105.5">+Imatge HD: string</text></g></g><g transform="translate(-46,-30) scale(1,1)"><g><path fill="none" stroke="none"></path><text fill="#000000" stroke="none" font-family="Arial" font-size="13px" font-style="normal" font-weight="normal" text-decoration="none" x="61" y="120.5">+Descripció: string</text></g></g><g transform="translate(-46,-30) scale(1,1)"><g><path fill="none" stroke="none"></path><text fill="#000000" stroke="none" font-family="Arial" font-size="13px" font-style="normal" font-weight="normal" text-decoration="none" x="61" y="135.5">+Preu: number</text></g></g><g transform="translate(-46,-30) scale(1,1)"><g><path fill="none" stroke="none"></path><text fill="#000000" stroke="none" font-family="Arial" font-size="13px" font-style="normal" font-weight="normal" text-decoration="none" x="61" y="150.5">+Nom: string</text></g></g><g transform="translate(-46,-30) scale(1,1)"><g><path fill="none" stroke="none"></path><text fill="#000000" stroke="none" font-family="Arial" font-size="13px" font-style="normal" font-weight="normal" text-decoration="none" x="61" y="165.5">+ID_categoria: number</text></g></g><g transform="translate(-46,-30) scale(1,1)"><g><path fill="none" stroke="none"></path><text fill="#000000" stroke="none" font-family="Arial" font-size="13px" font-style="normal" font-weight="normal" text-decoration="none" x="61" y="180.5">+ID_tag: number</text></g></g><g transform="translate(-46,-30) scale(1,1)"><rect fill="#C0C0C0" stroke="none" x="647" y="47" width="105" height="72" opacity="0.2"></rect></g><g transform="translate(-46,-30) scale(1,1)"><rect fill="#ffffff" stroke="none" x="640" y="40" width="105" height="72"></rect></g><g transform="translate(-46,-30) scale(1,1)"><path fill="none" stroke="#000000" d="M 640 40 L 745 40 L 745 112 L 640 112 L 640 40 Z Z" stroke-miterlimit="10"></path></g><g transform="translate(-46,-30) scale(1,1)"><path fill="none" stroke="#000000" d="M 640 65 L 745 65" stroke-miterlimit="10"></path></g><g transform="translate(-46,-30) scale(1,1)"><path fill="none" stroke="#000000" d="M 640 103 L 745 103" stroke-miterlimit="10"></path></g><g transform="translate(-46,-30) scale(1,1)"><g><path fill="none" stroke="none"></path><text fill="#000000" stroke="none" font-family="Arial" font-size="13px" font-style="normal" font-weight="bold" text-decoration="none" x="678.5" y="59.5">Tags</text></g></g><g transform="translate(-46,-30) scale(1,1)"><g><path fill="none" stroke="none"></path><text fill="#000000" stroke="none" font-family="Arial" font-size="13px" font-style="normal" font-weight="normal" text-decoration="none" x="645" y="82.5">+ID_tag: number</text></g></g><g transform="translate(-46,-30) scale(1,1)"><g><path fill="none" stroke="none"></path><text fill="#000000" stroke="none" font-family="Arial" font-size="13px" font-style="normal" font-weight="normal" text-decoration="none" x="645" y="97.5">+nom: string</text></g></g><g transform="translate(-46,-30) scale(1,1)"><rect fill="#C0C0C0" stroke="none" x="63" y="279" width="142" height="103" opacity="0.2"></rect></g><g transform="translate(-46,-30) scale(1,1)"><rect fill="#ffffff" stroke="none" x="56" y="272" width="142" height="103"></rect></g><g transform="translate(-46,-30) scale(1,1)"><path fill="none" stroke="#000000" d="M 56 272 L 198 272 L 198 375 L 56 375 L 56 272 Z Z" stroke-miterlimit="10"></path></g><g transform="translate(-46,-30) scale(1,1)"><path fill="none" stroke="#000000" d="M 56 297 L 198 297" stroke-miterlimit="10"></path></g><g transform="translate(-46,-30) scale(1,1)"><path fill="none" stroke="#000000" d="M 56 350 L 198 350" stroke-miterlimit="10"></path></g><g transform="translate(-46,-30) scale(1,1)"><g><path fill="none" stroke="none"></path><text fill="#000000" stroke="none" font-family="Arial" font-size="13px" font-style="normal" font-weight="bold" text-decoration="none" x="100" y="291.5">Suppliers</text></g></g><g transform="translate(-46,-30) scale(1,1)"><g><path fill="none" stroke="none"></path><text fill="#000000" stroke="none" font-family="Arial" font-size="13px" font-style="normal" font-weight="normal" text-decoration="none" x="61" y="314.5">+ID_proveedor: number</text></g></g><g transform="translate(-46,-30) scale(1,1)"><g><path fill="none" stroke="none"></path><text fill="#000000" stroke="none" font-family="Arial" font-size="13px" font-style="normal" font-weight="normal" text-decoration="none" x="61" y="329.5">+nom: string</text></g></g><g transform="translate(-46,-30) scale(1,1)"><g><path fill="none" stroke="none"></path><text fill="#000000" stroke="none" font-family="Arial" font-size="13px" font-style="normal" font-weight="normal" text-decoration="none" x="61" y="344.5">+url: string</text></g></g><g transform="translate(-46,-30) scale(1,1)"><rect fill="#C0C0C0" stroke="none" x="647" y="167" width="124" height="87" opacity="0.2"></rect></g><g transform="translate(-46,-30) scale(1,1)"><rect fill="#ffffff" stroke="none" x="640" y="160" width="124" height="87"></rect></g><g transform="translate(-46,-30) scale(1,1)"><path fill="none" stroke="#000000" d="M 640 160 L 764 160 L 764 247 L 640 247 L 640 160 Z Z" stroke-miterlimit="10"></path></g><g transform="translate(-46,-30) scale(1,1)"><path fill="none" stroke="#000000" d="M 640 185 L 764 185" stroke-miterlimit="10"></path></g><g transform="translate(-46,-30) scale(1,1)"><path fill="none" stroke="#000000" d="M 640 208 L 764 208" stroke-miterlimit="10"></path></g><g transform="translate(-46,-30) scale(1,1)"><g><path fill="none" stroke="none"></path><text fill="#000000" stroke="none" font-family="Arial" font-size="13px" font-style="normal" font-weight="bold" text-decoration="none" x="685.5" y="179.5">Sales</text></g></g><g transform="translate(-46,-30) scale(1,1)"><g><path fill="none" stroke="none"></path><text fill="#000000" stroke="none" font-family="Arial" font-size="13px" font-style="normal" font-weight="normal" text-decoration="none" x="645" y="202.5">+ID_ventas: number</text></g></g><g transform="translate(-46,-30) scale(1,1)"><path fill="none" stroke="#000000" d="M 360 101 L 196 101" stroke-miterlimit="10" stroke-dasharray="3"></path></g><g transform="translate(-46,-30) scale(1,1)"><path fill="none" stroke="#000000" d="M 206.16267485762415 96.79048224398402 L 196 101 L 206.16267485762415 105.20951775601598" stroke-miterlimit="10"></path></g><g transform="translate(-46,-30) scale(1,1)"><g><path fill="none" stroke="none"></path><text fill="#000000" stroke="none" font-family="Arial" font-size="13px" font-style="normal" font-weight="normal" text-decoration="none" x="270" y="123">+n</text></g></g><g transform="translate(-46,-30) scale(1,1)"><path fill="none" stroke="#000000" d="M 640 104 L 500 104" stroke-miterlimit="10" stroke-dasharray="3"></path></g><g transform="translate(-46,-30) scale(1,1)"><path fill="none" stroke="#000000" d="M 510.16267485762415 99.79048224398402 L 500 104 L 510.16267485762415 108.20951775601598" stroke-miterlimit="10"></path></g><g transform="translate(-46,-30) scale(1,1)"><g><path fill="none" stroke="none"></path><text fill="#000000" stroke="none" font-family="Arial" font-size="13px" font-style="normal" font-weight="normal" text-decoration="none" x="562" y="126">+n</text></g></g><g transform="translate(-46,-30) scale(1,1)"><path fill="none" stroke="#000000" d="M 196 194 L 640 194" stroke-miterlimit="10"></path></g><g transform="translate(-46,-30) scale(1,1)"><path fill="none" stroke="#000000" d="M 629.8373251423759 198.209517756016 L 640 194 L 629.8373251423758 189.790482243984" stroke-miterlimit="10"></path></g><g transform="translate(-46,-30) scale(1,1)"><g><path fill="none" stroke="none"></path><text fill="#000000" stroke="none" font-family="Arial" font-size="13px" font-style="normal" font-weight="normal" text-decoration="none" x="214" y="186">+1</text></g></g><g transform="translate(-46,-30) scale(1,1)"><g><path fill="none" stroke="none"></path><text fill="#000000" stroke="none" font-family="Arial" font-size="13px" font-style="normal" font-weight="normal" text-decoration="none" x="607" y="186">+n</text></g></g><g transform="translate(-46,-30) scale(1,1)"><path fill="none" stroke="#000000" d="M 126 272 L 126 195" stroke-miterlimit="10"></path></g><g transform="translate(-46,-30) scale(1,1)"><path fill="none" stroke="#000000" d="M 130.209517756016 205.16267485762415 L 126 195 L 121.79048224398402 205.16267485762415" stroke-miterlimit="10"></path></g><g transform="translate(-46,-30) scale(1,1)"><g><path fill="none" stroke="none"></path><text fill="#000000" stroke="none" font-family="Arial" font-size="13px" font-style="normal" font-weight="normal" text-decoration="none" x="104" y="253">+1</text></g></g><g transform="translate(-46,-30) scale(1,1)"><g><path fill="none" stroke="none"></path><text fill="#000000" stroke="none" font-family="Arial" font-size="13px" font-style="normal" font-weight="normal" text-decoration="none" x="104" y="227">+1</text></g></g></g></svg>