<svg version="1.1" xmlns="http://www.w3.org/2000/svg" xmlns:xlink="http://www.w3.org/1999/xlink" width="645" height="496"><defs></defs><g><g transform="translate(-46,-102) scale(1,1)"><rect fill="#C0C0C0" stroke="none" x="287" y="119" width="102" height="102" opacity="0.2"></rect></g><g transform="translate(-46,-102) scale(1,1)"><rect fill="#ffffff" stroke="none" x="280" y="112" width="102" height="102"></rect></g><g transform="translate(-46,-102) scale(1,1)"><path fill="none" stroke="#000000" d="M 280 112 L 382 112 L 382 214 L 280 214 L 280 112 Z Z" stroke-miterlimit="10"></path></g><g transform="translate(-46,-102) scale(1,1)"><path fill="none" stroke="#000000" d="M 280 137 L 382 137" stroke-miterlimit="10"></path></g><g transform="translate(-46,-102) scale(1,1)"><path fill="none" stroke="#000000" d="M 280 205 L 382 205" stroke-miterlimit="10"></path></g><g transform="translate(-46,-102) scale(1,1)"><g><path fill="none" stroke="none"></path><text fill="#000000" stroke="none" font-family="Arial" font-size="13px" font-style="normal" font-weight="bold" text-decoration="none" x="315" y="131.5">Items</text></g></g><g transform="translate(-46,-102) scale(1,1)"><g><path fill="none" stroke="none"></path><text fill="#000000" stroke="none" font-family="Arial" font-size="13px" font-style="normal" font-weight="normal" text-decoration="none" x="285" y="154.5">+name</text></g></g><g transform="translate(-46,-102) scale(1,1)"><g><path fill="none" stroke="none"></path><text fill="#000000" stroke="none" font-family="Arial" font-size="13px" font-style="normal" font-weight="normal" text-decoration="none" x="285" y="169.5">+id</text></g></g><g transform="translate(-46,-102) scale(1,1)"><g><path fill="none" stroke="none"></path><text fill="#000000" stroke="none" font-family="Arial" font-size="13px" font-style="normal" font-weight="normal" text-decoration="none" x="285" y="184.5">+description</text></g></g><g transform="translate(-46,-102) scale(1,1)"><g><path fill="none" stroke="none"></path><text fill="#000000" stroke="none" font-family="Arial" font-size="13px" font-style="normal" font-weight="normal" text-decoration="none" x="285" y="199.5">+disponibility</text></g></g><g transform="translate(-46,-102) scale(1,1)"><rect fill="#C0C0C0" stroke="none" x="63" y="239" width="73" height="72" opacity="0.2"></rect></g><g transform="translate(-46,-102) scale(1,1)"><rect fill="#ffffff" stroke="none" x="56" y="232" width="73" height="72"></rect></g><g transform="translate(-46,-102) scale(1,1)"><path fill="none" stroke="#000000" d="M 56 232 L 129 232 L 129 304 L 56 304 L 56 232 Z Z" stroke-miterlimit="10"></path></g><g transform="translate(-46,-102) scale(1,1)"><path fill="none" stroke="#000000" d="M 56 257 L 129 257" stroke-miterlimit="10"></path></g><g transform="translate(-46,-102) scale(1,1)"><path fill="none" stroke="#000000" d="M 56 295 L 129 295" stroke-miterlimit="10"></path></g><g transform="translate(-46,-102) scale(1,1)"><g><path fill="none" stroke="none"></path><text fill="#000000" stroke="none" font-family="Arial" font-size="13px" font-style="normal" font-weight="bold" text-decoration="none" x="65.5" y="251.5">Suppliers</text></g></g><g transform="translate(-46,-102) scale(1,1)"><g><path fill="none" stroke="none"></path><text fill="#000000" stroke="none" font-family="Arial" font-size="13px" font-style="normal" font-weight="normal" text-decoration="none" x="61" y="274.5">+name</text></g></g><g transform="translate(-46,-102) scale(1,1)"><g><path fill="none" stroke="none"></path><text fill="#000000" stroke="none" font-family="Arial" font-size="13px" font-style="normal" font-weight="normal" text-decoration="none" x="61" y="289.5">+items</text></g></g><g transform="translate(-46,-102) scale(1,1)"><rect fill="#C0C0C0" stroke="none" x="487" y="215" width="73" height="57" opacity="0.2"></rect></g><g transform="translate(-46,-102) scale(1,1)"><rect fill="#ffffff" stroke="none" x="480" y="208" width="73" height="57"></rect></g><g transform="translate(-46,-102) scale(1,1)"><path fill="none" stroke="#000000" d="M 480 208 L 553 208 L 553 265 L 480 265 L 480 208 Z Z" stroke-miterlimit="10"></path></g><g transform="translate(-46,-102) scale(1,1)"><path fill="none" stroke="#000000" d="M 480 233 L 553 233" stroke-miterlimit="10"></path></g><g transform="translate(-46,-102) scale(1,1)"><path fill="none" stroke="#000000" d="M 480 256 L 553 256" stroke-miterlimit="10"></path></g><g transform="translate(-46,-102) scale(1,1)"><g><path fill="none" stroke="none"></path><text fill="#000000" stroke="none" font-family="Arial" font-size="13px" font-style="normal" font-weight="bold" text-decoration="none" x="500" y="227.5">Sales</text></g></g><g transform="translate(-46,-102) scale(1,1)"><g><path fill="none" stroke="none"></path><text fill="#000000" stroke="none" font-family="Arial" font-size="13px" font-style="normal" font-weight="normal" text-decoration="none" x="485" y="250.5">+id</text></g></g><g transform="translate(-46,-102) scale(1,1)"><rect fill="#C0C0C0" stroke="none" x="447" y="439" width="79" height="57" opacity="0.2"></rect></g><g transform="translate(-46,-102) scale(1,1)"><rect fill="#ffffff" stroke="none" x="440" y="432" width="79" height="57"></rect></g><g transform="translate(-46,-102) scale(1,1)"><path fill="none" stroke="#000000" d="M 440 432 L 519 432 L 519 489 L 440 489 L 440 432 Z Z" stroke-miterlimit="10"></path></g><g transform="translate(-46,-102) scale(1,1)"><path fill="none" stroke="#000000" d="M 440 457 L 519 457" stroke-miterlimit="10"></path></g><g transform="translate(-46,-102) scale(1,1)"><path fill="none" stroke="#000000" d="M 440 480 L 519 480" stroke-miterlimit="10"></path></g><g transform="translate(-46,-102) scale(1,1)"><g><path fill="none" stroke="none"></path><text fill="#000000" stroke="none" font-family="Arial" font-size="13px" font-style="normal" font-weight="bold" text-decoration="none" x="448.5" y="451.5">Categories</text></g></g><g transform="translate(-46,-102) scale(1,1)"><g><path fill="none" stroke="none"></path><text fill="#000000" stroke="none" font-family="Arial" font-size="13px" font-style="normal" font-weight="normal" text-decoration="none" x="445" y="474.5">+name</text></g></g><g transform="translate(-46,-102) scale(1,1)"><rect fill="#C0C0C0" stroke="none" x="319" y="551" width="49" height="44" opacity="0.2"></rect></g><g transform="translate(-46,-102) scale(1,1)"><rect fill="#ffffff" stroke="none" x="312" y="544" width="49" height="44"></rect></g><g transform="translate(-46,-102) scale(1,1)"><path fill="none" stroke="#000000" d="M 312 544 L 361 544 L 361 588 L 312 588 L 312 544 Z Z" stroke-miterlimit="10"></path></g><g transform="translate(-46,-102) scale(1,1)"><path fill="none" stroke="#000000" d="M 312 569 L 361 569" stroke-miterlimit="10"></path></g><g transform="translate(-46,-102) scale(1,1)"><path fill="none" stroke="#000000" d="M 312 579 L 361 579" stroke-miterlimit="10"></path></g><g transform="translate(-46,-102) scale(1,1)"><g><path fill="none" stroke="none"></path><text fill="#000000" stroke="none" font-family="Arial" font-size="13px" font-style="normal" font-weight="bold" text-decoration="none" x="322.5" y="563.5">Tags</text></g></g><g transform="translate(-46,-102) scale(1,1)"><rect fill="#C0C0C0" stroke="none" x="63" y="119" width="131" height="57" opacity="0.2"></rect></g><g transform="translate(-46,-102) scale(1,1)"><rect fill="#ffffff" stroke="none" x="56" y="112" width="131" height="57"></rect></g><g transform="translate(-46,-102) scale(1,1)"><path fill="none" stroke="#000000" d="M 56 112 L 187 112 L 187 169 L 56 169 L 56 112 Z Z" stroke-miterlimit="10"></path></g><g transform="translate(-46,-102) scale(1,1)"><path fill="none" stroke="#000000" d="M 56 137 L 187 137" stroke-miterlimit="10"></path></g><g transform="translate(-46,-102) scale(1,1)"><path fill="none" stroke="#000000" d="M 56 147 L 187 147" stroke-miterlimit="10"></path></g><g transform="translate(-46,-102) scale(1,1)"><g><path fill="none" stroke="none"></path><text fill="#000000" stroke="none" font-family="Arial" font-size="13px" font-style="normal" font-weight="bold" text-decoration="none" x="81.5" y="131.5">Spreadsheets</text></g></g><g transform="translate(-46,-102) scale(1,1)"><rect fill="#C0C0C0" stroke="none" x="519" y="311" width="89" height="72" opacity="0.2"></rect></g><g transform="translate(-46,-102) scale(1,1)"><rect fill="#ffffff" stroke="none" x="512" y="304" width="89" height="72"></rect></g><g transform="translate(-46,-102) scale(1,1)"><path fill="none" stroke="#000000" d="M 512 304 L 601 304 L 601 376 L 512 376 L 512 304 Z Z" stroke-miterlimit="10"></path></g><g transform="translate(-46,-102) scale(1,1)"><path fill="none" stroke="#000000" d="M 512 329 L 601 329" stroke-miterlimit="10"></path></g><g transform="translate(-46,-102) scale(1,1)"><path fill="none" stroke="#000000" d="M 512 367 L 601 367" stroke-miterlimit="10"></path></g><g transform="translate(-46,-102) scale(1,1)"><g><path fill="none" stroke="none"></path><text fill="#000000" stroke="none" font-family="Arial" font-size="13px" font-style="normal" font-weight="bold" text-decoration="none" x="532.5" y="323.5">Pictures</text></g></g><g transform="translate(-46,-102) scale(1,1)"><g><path fill="none" stroke="none"></path><text fill="#000000" stroke="none" font-family="Arial" font-size="13px" font-style="normal" font-weight="normal" text-decoration="none" x="517" y="346.5">+size</text></g></g><g transform="translate(-46,-102) scale(1,1)"><g><path fill="none" stroke="none"></path><text fill="#000000" stroke="none" font-family="Arial" font-size="13px" font-style="normal" font-weight="normal" text-decoration="none" x="517" y="361.5">+resolution</text></g></g><g transform="translate(-46,-102) scale(1,1)"><rect fill="#C0C0C0" stroke="none" x="615" y="159" width="73" height="72" opacity="0.2"></rect></g><g transform="translate(-46,-102) scale(1,1)"><rect fill="#ffffff" stroke="none" x="608" y="152" width="73" height="72"></rect></g><g transform="translate(-46,-102) scale(1,1)"><path fill="none" stroke="#000000" d="M 608 152 L 681 152 L 681 224 L 608 224 L 608 152 Z Z" stroke-miterlimit="10"></path></g><g transform="translate(-46,-102) scale(1,1)"><path fill="none" stroke="#000000" d="M 608 177 L 681 177" stroke-miterlimit="10"></path></g><g transform="translate(-46,-102) scale(1,1)"><path fill="none" stroke="#000000" d="M 608 200 L 681 200" stroke-miterlimit="10"></path></g><g transform="translate(-46,-102) scale(1,1)"><g><path fill="none" stroke="none"></path><text fill="#000000" stroke="none" font-family="Arial" font-size="13px" font-style="normal" font-weight="bold" text-decoration="none" x="623.5" y="171.5">Tokens</text></g></g><g transform="translate(-46,-102) scale(1,1)"><g><path fill="none" stroke="none"></path><text fill="#000000" stroke="none" font-family="Arial" font-size="13px" font-style="normal" font-weight="normal" text-decoration="none" x="613" y="194.5">+name</text></g></g><g transform="translate(-46,-102) scale(1,1)"><path fill="none" stroke="#000000" d="M 362 547 L 439 490" stroke-miterlimit="10" stroke-dasharray="3"></path></g><g transform="translate(-46,-102) scale(1,1)"><path fill="none" stroke="#000000" d="M 433.33640072411026 499.42993336361087 L 439 490 L 428.32726071854864 492.66320037364164" stroke-miterlimit="10"></path></g><g transform="translate(-46,-102) scale(1,1)"><path fill="none" stroke="#000000" d="M 188 147 L 279 157" stroke-miterlimit="10" stroke-dasharray="3"></path></g><g transform="translate(-46,-102) scale(1,1)"><path fill="none" stroke="#000000" d="M 268.4383199659164 160.07423402779287 L 279 157 L 269.35795269917014 151.70557615518368" stroke-miterlimit="10"></path></g><g transform="translate(-46,-102) scale(1,1)"><path fill="none" stroke="#000000" d="M 114 170 L 100 231" stroke-miterlimit="10" stroke-dasharray="3"></path></g><g transform="translate(-46,-102) scale(1,1)"><path fill="none" stroke="#000000" d="M 98.17046554802296 220.1532122870857 L 100 231 L 106.37616092848526 222.03648663669998" stroke-miterlimit="10"></path></g><g transform="translate(-46,-102) scale(1,1)"><path fill="none" stroke="#000000" d="M 554 222 L 607 202" stroke-miterlimit="10"></path></g><g transform="translate(-46,-102) scale(1,1)"><path fill="none" stroke="#000000" d="M 598.9779847070815 209.52643811109758 L 607 202 L 596.0055831610572 201.64957401413312" stroke-miterlimit="10"></path></g><g transform="translate(-46,-102) scale(1,1)"><path fill="none" stroke="#000000" d="M 383 184 L 479 221" stroke-miterlimit="10"></path></g><g transform="translate(-46,-102) scale(1,1)"><path fill="none" stroke="#000000" d="M 468.00339002779197 221.27307346838208 L 479 221 L 471.031130417333 213.41731461984315" stroke-miterlimit="10"></path></g><g transform="translate(-46,-102) scale(1,1)"><g><path fill="none" stroke="none"></path><text fill="#000000" stroke="none" font-family="Arial" font-size="13px" font-style="normal" font-weight="normal" text-decoration="none" x="444" y="231">1..*</text></g></g><g transform="translate(-46,-102) scale(1,1)"><path fill="#ffffff" stroke="none" d="M 368 504 L 441 504 L 451 514 L 451 527 L 368 527 L 368 504"></path></g><g transform="translate(-46,-102) scale(1,1)"><path fill="none" stroke="#000000" d="M 368 504 L 441 504 L 451 514 L 451 527 L 368 527 L 368 504 L 368 504" stroke-miterlimit="10"></path></g><g transform="translate(-46,-102) scale(1,1)"><path fill="none" stroke="#000000" d="M 441 504 L 441 514 L 451 514 L 441 504" stroke-miterlimit="10"></path></g><g transform="translate(-46,-102) scale(1,1)"><g><path fill="none" stroke="none"></path><text fill="#000000" stroke="none" font-family="Arial" font-size="13px" font-style="normal" font-weight="normal" text-decoration="none" x="373" y="522">pertenece</text></g></g></g></svg>