<svg version="1.1" xmlns="http://www.w3.org/2000/svg" xmlns:xlink="http://www.w3.org/1999/xlink" width="765" height="600"><defs></defs><g><g transform="translate(-46,2) scale(1,1)"><rect fill="#C0C0C0" stroke="none" x="287" y="119" width="102" height="102" opacity="0.2"></rect></g><g transform="translate(-46,2) scale(1,1)"><rect fill="#ffffff" stroke="none" x="280" y="112" width="102" height="102"></rect></g><g transform="translate(-46,2) scale(1,1)"><path fill="none" stroke="#000000" d="M 280 112 L 382 112 L 382 214 L 280 214 L 280 112 Z Z" stroke-miterlimit="10"></path></g><g transform="translate(-46,2) scale(1,1)"><path fill="none" stroke="#000000" d="M 280 137 L 382 137" stroke-miterlimit="10"></path></g><g transform="translate(-46,2) scale(1,1)"><path fill="none" stroke="#000000" d="M 280 205 L 382 205" stroke-miterlimit="10"></path></g><g transform="translate(-46,2) scale(1,1)"><g><path fill="none" stroke="none"></path><text fill="#000000" stroke="none" font-family="Arial" font-size="13px" font-style="normal" font-weight="bold" text-decoration="none" x="315" y="131.5">Items</text></g></g><g transform="translate(-46,2) scale(1,1)"><g><path fill="none" stroke="none"></path><text fill="#000000" stroke="none" font-family="Arial" font-size="13px" font-style="normal" font-weight="normal" text-decoration="none" x="285" y="154.5">+Name</text></g></g><g transform="translate(-46,2) scale(1,1)"><g><path fill="none" stroke="none"></path><text fill="#000000" stroke="none" font-family="Arial" font-size="13px" font-style="normal" font-weight="normal" text-decoration="none" x="285" y="169.5">+ID</text></g></g><g transform="translate(-46,2) scale(1,1)"><g><path fill="none" stroke="none"></path><text fill="#000000" stroke="none" font-family="Arial" font-size="13px" font-style="normal" font-weight="normal" text-decoration="none" x="285" y="184.5">+Description</text></g></g><g transform="translate(-46,2) scale(1,1)"><g><path fill="none" stroke="none"></path><text fill="#000000" stroke="none" font-family="Arial" font-size="13px" font-style="normal" font-weight="normal" text-decoration="none" x="285" y="199.5">+Disponibility</text></g></g><g transform="translate(-46,2) scale(1,1)"><rect fill="#C0C0C0" stroke="none" x="271" y="255" width="134" height="87" opacity="0.2"></rect></g><g transform="translate(-46,2) scale(1,1)"><rect fill="#ffffff" stroke="none" x="264" y="248" width="134" height="87"></rect></g><g transform="translate(-46,2) scale(1,1)"><path fill="none" stroke="#000000" d="M 264 248 L 398 248 L 398 335 L 264 335 L 264 248 Z Z" stroke-miterlimit="10"></path></g><g transform="translate(-46,2) scale(1,1)"><path fill="none" stroke="#000000" d="M 264 273 L 398 273" stroke-miterlimit="10"></path></g><g transform="translate(-46,2) scale(1,1)"><path fill="none" stroke="#000000" d="M 264 326 L 398 326" stroke-miterlimit="10"></path></g><g transform="translate(-46,2) scale(1,1)"><g><path fill="none" stroke="none"></path><text fill="#000000" stroke="none" font-family="Arial" font-size="13px" font-style="normal" font-weight="bold" text-decoration="none" x="305" y="267.5">Brochure</text></g></g><g transform="translate(-46,2) scale(1,1)"><g><path fill="none" stroke="none"></path><text fill="#000000" stroke="none" font-family="Arial" font-size="13px" font-style="normal" font-weight="normal" text-decoration="none" x="269" y="290.5">+Carrousel</text></g></g><g transform="translate(-46,2) scale(1,1)"><g><path fill="none" stroke="none"></path><text fill="#000000" stroke="none" font-family="Arial" font-size="13px" font-style="normal" font-weight="normal" text-decoration="none" x="269" y="305.5">+Price</text></g></g><g transform="translate(-46,2) scale(1,1)"><g><path fill="none" stroke="none"></path><text fill="#000000" stroke="none" font-family="Arial" font-size="13px" font-style="normal" font-weight="normal" text-decoration="none" x="269" y="320.5">+Description</text></g></g><g transform="translate(-46,2) scale(1,1)"><rect fill="#C0C0C0" stroke="none" x="231" y="399" width="88" height="85" opacity="0.2"></rect></g><g transform="translate(-46,2) scale(1,1)"><rect fill="#ffffff" stroke="none" x="224" y="392" width="88" height="85"></rect></g><g transform="translate(-46,2) scale(1,1)"><path fill="none" stroke="#000000" d="M 224 392 L 312 392 L 312 477 L 224 477 L 224 392 Z Z" stroke-miterlimit="10"></path></g><g transform="translate(-46,2) scale(1,1)"><path fill="none" stroke="#000000" d="M 224 417 L 312 417" stroke-miterlimit="10"></path></g><g transform="translate(-46,2) scale(1,1)"><path fill="none" stroke="#000000" d="M 224 455 L 312 455" stroke-miterlimit="10"></path></g><g transform="translate(-46,2) scale(1,1)"><g><path fill="none" stroke="none"></path><text fill="#000000" stroke="none" font-family="Arial" font-size="13px" font-style="normal" font-weight="bold" text-decoration="none" x="239" y="411.5">Catalogue</text></g></g><g transform="translate(-46,2) scale(1,1)"><g><path fill="none" stroke="none"></path><text fill="#000000" stroke="none" font-family="Arial" font-size="13px" font-style="normal" font-weight="normal" text-decoration="none" x="229" y="434.5">+Items</text></g></g><g transform="translate(-46,2) scale(1,1)"><g><path fill="none" stroke="none"></path><text fill="#000000" stroke="none" font-family="Arial" font-size="13px" font-style="normal" font-weight="normal" text-decoration="none" x="229" y="449.5">+Price</text></g></g><g transform="translate(-46,2) scale(1,1)"><rect fill="#C0C0C0" stroke="none" x="63" y="239" width="73" height="72" opacity="0.2"></rect></g><g transform="translate(-46,2) scale(1,1)"><rect fill="#ffffff" stroke="none" x="56" y="232" width="73" height="72"></rect></g><g transform="translate(-46,2) scale(1,1)"><path fill="none" stroke="#000000" d="M 56 232 L 129 232 L 129 304 L 56 304 L 56 232 Z Z" stroke-miterlimit="10"></path></g><g transform="translate(-46,2) scale(1,1)"><path fill="none" stroke="#000000" d="M 56 257 L 129 257" stroke-miterlimit="10"></path></g><g transform="translate(-46,2) scale(1,1)"><path fill="none" stroke="#000000" d="M 56 295 L 129 295" stroke-miterlimit="10"></path></g><g transform="translate(-46,2) scale(1,1)"><g><path fill="none" stroke="none"></path><text fill="#000000" stroke="none" font-family="Arial" font-size="13px" font-style="normal" font-weight="bold" text-decoration="none" x="65.5" y="251.5">Suppliers</text></g></g><g transform="translate(-46,2) scale(1,1)"><g><path fill="none" stroke="none"></path><text fill="#000000" stroke="none" font-family="Arial" font-size="13px" font-style="normal" font-weight="normal" text-decoration="none" x="61" y="274.5">+Name</text></g></g><g transform="translate(-46,2) scale(1,1)"><g><path fill="none" stroke="none"></path><text fill="#000000" stroke="none" font-family="Arial" font-size="13px" font-style="normal" font-weight="normal" text-decoration="none" x="61" y="289.5">+Items</text></g></g><g transform="translate(-46,2) scale(1,1)"><rect fill="#C0C0C0" stroke="none" x="487" y="215" width="73" height="57" opacity="0.2"></rect></g><g transform="translate(-46,2) scale(1,1)"><rect fill="#ffffff" stroke="none" x="480" y="208" width="73" height="57"></rect></g><g transform="translate(-46,2) scale(1,1)"><path fill="none" stroke="#000000" d="M 480 208 L 553 208 L 553 265 L 480 265 L 480 208 Z Z" stroke-miterlimit="10"></path></g><g transform="translate(-46,2) scale(1,1)"><path fill="none" stroke="#000000" d="M 480 233 L 553 233" stroke-miterlimit="10"></path></g><g transform="translate(-46,2) scale(1,1)"><path fill="none" stroke="#000000" d="M 480 256 L 553 256" stroke-miterlimit="10"></path></g><g transform="translate(-46,2) scale(1,1)"><g><path fill="none" stroke="none"></path><text fill="#000000" stroke="none" font-family="Arial" font-size="13px" font-style="normal" font-weight="bold" text-decoration="none" x="500" y="227.5">Sales</text></g></g><g transform="translate(-46,2) scale(1,1)"><g><path fill="none" stroke="none"></path><text fill="#000000" stroke="none" font-family="Arial" font-size="13px" font-style="normal" font-weight="normal" text-decoration="none" x="485" y="250.5">+ID</text></g></g><g transform="translate(-46,2) scale(1,1)"><rect fill="#C0C0C0" stroke="none" x="647" y="447" width="73" height="57" opacity="0.2"></rect></g><g transform="translate(-46,2) scale(1,1)"><rect fill="#ffffff" stroke="none" x="640" y="440" width="73" height="57"></rect></g><g transform="translate(-46,2) scale(1,1)"><path fill="none" stroke="#000000" d="M 640 440 L 713 440 L 713 497 L 640 497 L 640 440 Z Z" stroke-miterlimit="10"></path></g><g transform="translate(-46,2) scale(1,1)"><path fill="none" stroke="#000000" d="M 640 465 L 713 465" stroke-miterlimit="10"></path></g><g transform="translate(-46,2) scale(1,1)"><path fill="none" stroke="#000000" d="M 640 488 L 713 488" stroke-miterlimit="10"></path></g><g transform="translate(-46,2) scale(1,1)"><g><path fill="none" stroke="none"></path><text fill="#000000" stroke="none" font-family="Arial" font-size="13px" font-style="normal" font-weight="bold" text-decoration="none" x="656" y="459.5">Search</text></g></g><g transform="translate(-46,2) scale(1,1)"><g><path fill="none" stroke="none"></path><text fill="#000000" stroke="none" font-family="Arial" font-size="13px" font-style="normal" font-weight="normal" text-decoration="none" x="645" y="482.5">+URL</text></g></g><g transform="translate(-46,2) scale(1,1)"><rect fill="#C0C0C0" stroke="none" x="447" y="439" width="79" height="57" opacity="0.2"></rect></g><g transform="translate(-46,2) scale(1,1)"><rect fill="#ffffff" stroke="none" x="440" y="432" width="79" height="57"></rect></g><g transform="translate(-46,2) scale(1,1)"><path fill="none" stroke="#000000" d="M 440 432 L 519 432 L 519 489 L 440 489 L 440 432 Z Z" stroke-miterlimit="10"></path></g><g transform="translate(-46,2) scale(1,1)"><path fill="none" stroke="#000000" d="M 440 457 L 519 457" stroke-miterlimit="10"></path></g><g transform="translate(-46,2) scale(1,1)"><path fill="none" stroke="#000000" d="M 440 480 L 519 480" stroke-miterlimit="10"></path></g><g transform="translate(-46,2) scale(1,1)"><g><path fill="none" stroke="none"></path><text fill="#000000" stroke="none" font-family="Arial" font-size="13px" font-style="normal" font-weight="bold" text-decoration="none" x="448.5" y="451.5">Categories</text></g></g><g transform="translate(-46,2) scale(1,1)"><g><path fill="none" stroke="none"></path><text fill="#000000" stroke="none" font-family="Arial" font-size="13px" font-style="normal" font-weight="normal" text-decoration="none" x="445" y="474.5">+Name</text></g></g><g transform="translate(-46,2) scale(1,1)"><rect fill="#C0C0C0" stroke="none" x="319" y="551" width="49" height="44" opacity="0.2"></rect></g><g transform="translate(-46,2) scale(1,1)"><rect fill="#ffffff" stroke="none" x="312" y="544" width="49" height="44"></rect></g><g transform="translate(-46,2) scale(1,1)"><path fill="none" stroke="#000000" d="M 312 544 L 361 544 L 361 588 L 312 588 L 312 544 Z Z" stroke-miterlimit="10"></path></g><g transform="translate(-46,2) scale(1,1)"><path fill="none" stroke="#000000" d="M 312 569 L 361 569" stroke-miterlimit="10"></path></g><g transform="translate(-46,2) scale(1,1)"><path fill="none" stroke="#000000" d="M 312 579 L 361 579" stroke-miterlimit="10"></path></g><g transform="translate(-46,2) scale(1,1)"><g><path fill="none" stroke="none"></path><text fill="#000000" stroke="none" font-family="Arial" font-size="13px" font-style="normal" font-weight="bold" text-decoration="none" x="322.5" y="563.5">Tags</text></g></g><g transform="translate(-46,2) scale(1,1)"><rect fill="#C0C0C0" stroke="none" x="471" y="119" width="73" height="72" opacity="0.2"></rect></g><g transform="translate(-46,2) scale(1,1)"><rect fill="#ffffff" stroke="none" x="464" y="112" width="73" height="72"></rect></g><g transform="translate(-46,2) scale(1,1)"><path fill="none" stroke="#000000" d="M 464 112 L 537 112 L 537 184 L 464 184 L 464 112 Z Z" stroke-miterlimit="10"></path></g><g transform="translate(-46,2) scale(1,1)"><path fill="none" stroke="#000000" d="M 464 137 L 537 137" stroke-miterlimit="10"></path></g><g transform="translate(-46,2) scale(1,1)"><path fill="none" stroke="#000000" d="M 464 175 L 537 175" stroke-miterlimit="10"></path></g><g transform="translate(-46,2) scale(1,1)"><g><path fill="none" stroke="none"></path><text fill="#000000" stroke="none" font-family="Arial" font-size="13px" font-style="normal" font-weight="bold" text-decoration="none" x="490" y="131.5">404</text></g></g><g transform="translate(-46,2) scale(1,1)"><g><path fill="none" stroke="none"></path><text fill="#000000" stroke="none" font-family="Arial" font-size="13px" font-style="normal" font-weight="normal" text-decoration="none" x="469" y="154.5">+Search</text></g></g><g transform="translate(-46,2) scale(1,1)"><g><path fill="none" stroke="none"></path><text fill="#000000" stroke="none" font-family="Arial" font-size="13px" font-style="normal" font-weight="normal" text-decoration="none" x="469" y="169.5">+URL</text></g></g><g transform="translate(-46,2) scale(1,1)"><rect fill="#C0C0C0" stroke="none" x="63" y="119" width="131" height="57" opacity="0.2"></rect></g><g transform="translate(-46,2) scale(1,1)"><rect fill="#ffffff" stroke="none" x="56" y="112" width="131" height="57"></rect></g><g transform="translate(-46,2) scale(1,1)"><path fill="none" stroke="#000000" d="M 56 112 L 187 112 L 187 169 L 56 169 L 56 112 Z Z" stroke-miterlimit="10"></path></g><g transform="translate(-46,2) scale(1,1)"><path fill="none" stroke="#000000" d="M 56 137 L 187 137" stroke-miterlimit="10"></path></g><g transform="translate(-46,2) scale(1,1)"><path fill="none" stroke="#000000" d="M 56 160 L 187 160" stroke-miterlimit="10"></path></g><g transform="translate(-46,2) scale(1,1)"><g><path fill="none" stroke="none"></path><text fill="#000000" stroke="none" font-family="Arial" font-size="13px" font-style="normal" font-weight="bold" text-decoration="none" x="68" y="131.5">Configuration Files</text></g></g><g transform="translate(-46,2) scale(1,1)"><g><path fill="none" stroke="none"></path><text fill="#000000" stroke="none" font-family="Arial" font-size="13px" font-style="normal" font-weight="normal" text-decoration="none" x="61" y="154.5">+Files</text></g></g><g transform="translate(-46,2) scale(1,1)"><rect fill="#C0C0C0" stroke="none" x="519" y="311" width="89" height="72" opacity="0.2"></rect></g><g transform="translate(-46,2) scale(1,1)"><rect fill="#ffffff" stroke="none" x="512" y="304" width="89" height="72"></rect></g><g transform="translate(-46,2) scale(1,1)"><path fill="none" stroke="#000000" d="M 512 304 L 601 304 L 601 376 L 512 376 L 512 304 Z Z" stroke-miterlimit="10"></path></g><g transform="translate(-46,2) scale(1,1)"><path fill="none" stroke="#000000" d="M 512 329 L 601 329" stroke-miterlimit="10"></path></g><g transform="translate(-46,2) scale(1,1)"><path fill="none" stroke="#000000" d="M 512 367 L 601 367" stroke-miterlimit="10"></path></g><g transform="translate(-46,2) scale(1,1)"><g><path fill="none" stroke="none"></path><text fill="#000000" stroke="none" font-family="Arial" font-size="13px" font-style="normal" font-weight="bold" text-decoration="none" x="532.5" y="323.5">Pictures</text></g></g><g transform="translate(-46,2) scale(1,1)"><g><path fill="none" stroke="none"></path><text fill="#000000" stroke="none" font-family="Arial" font-size="13px" font-style="normal" font-weight="normal" text-decoration="none" x="517" y="346.5">+Size</text></g></g><g transform="translate(-46,2) scale(1,1)"><g><path fill="none" stroke="none"></path><text fill="#000000" stroke="none" font-family="Arial" font-size="13px" font-style="normal" font-weight="normal" text-decoration="none" x="517" y="361.5">+Resolution</text></g></g><g transform="translate(-46,2) scale(1,1)"><rect fill="#C0C0C0" stroke="none" x="615" y="159" width="73" height="72" opacity="0.2"></rect></g><g transform="translate(-46,2) scale(1,1)"><rect fill="#ffffff" stroke="none" x="608" y="152" width="73" height="72"></rect></g><g transform="translate(-46,2) scale(1,1)"><path fill="none" stroke="#000000" d="M 608 152 L 681 152 L 681 224 L 608 224 L 608 152 Z Z" stroke-miterlimit="10"></path></g><g transform="translate(-46,2) scale(1,1)"><path fill="none" stroke="#000000" d="M 608 177 L 681 177" stroke-miterlimit="10"></path></g><g transform="translate(-46,2) scale(1,1)"><path fill="none" stroke="#000000" d="M 608 200 L 681 200" stroke-miterlimit="10"></path></g><g transform="translate(-46,2) scale(1,1)"><g><path fill="none" stroke="none"></path><text fill="#000000" stroke="none" font-family="Arial" font-size="13px" font-style="normal" font-weight="bold" text-decoration="none" x="624" y="171.5">Buyers</text></g></g><g transform="translate(-46,2) scale(1,1)"><g><path fill="none" stroke="none"></path><text fill="#000000" stroke="none" font-family="Arial" font-size="13px" font-style="normal" font-weight="normal" text-decoration="none" x="613" y="194.5">+Name</text></g></g><g transform="translate(-46,2) scale(1,1)"><path fill="none" stroke="#000000" d="M 331 247 L 331 215" stroke-miterlimit="10"></path></g><g transform="translate(-46,2) scale(1,1)"><rect fill="#C0C0C0" stroke="none" x="759" y="159" width="49" height="44" opacity="0.2"></rect></g><g transform="translate(-46,2) scale(1,1)"><rect fill="#ffffff" stroke="none" x="752" y="152" width="49" height="44"></rect></g><g transform="translate(-46,2) scale(1,1)"><path fill="none" stroke="#000000" d="M 752 152 L 801 152 L 801 196 L 752 196 L 752 152 Z Z" stroke-miterlimit="10"></path></g><g transform="translate(-46,2) scale(1,1)"><path fill="none" stroke="#000000" d="M 752 177 L 801 177" stroke-miterlimit="10"></path></g><g transform="translate(-46,2) scale(1,1)"><path fill="none" stroke="#000000" d="M 752 187 L 801 187" stroke-miterlimit="10"></path></g><g transform="translate(-46,2) scale(1,1)"><g><path fill="none" stroke="none"></path><text fill="#000000" stroke="none" font-family="Arial" font-size="13px" font-style="normal" font-weight="bold" text-decoration="none" x="759" y="171.5">Token</text></g></g><g transform="translate(-46,2) scale(1,1)"><path fill="none" stroke="#000000" d="M 682 184 L 751 177" stroke-miterlimit="10"></path></g><g transform="translate(-46,2) scale(1,1)"><g><path fill="none" stroke="none"></path><text fill="#000000" stroke="none" font-family="Arial" font-size="13px" font-style="normal" font-weight="normal" text-decoration="none" x="701" y="201">1</text></g></g><g transform="translate(-46,2) scale(1,1)"><g><path fill="none" stroke="none"></path><text fill="#000000" stroke="none" font-family="Arial" font-size="13px" font-style="normal" font-weight="normal" text-decoration="none" x="727" y="198">1</text></g></g><g transform="translate(-46,2) scale(1,1)"><path fill="none" stroke="#000000" d="M 362 547 L 439 490" stroke-miterlimit="10" stroke-dasharray="3"></path></g><g transform="translate(-46,2) scale(1,1)"><path fill="none" stroke="#000000" d="M 433.33640072411026 499.42993336361087 L 439 490 L 428.32726071854864 492.66320037364164" stroke-miterlimit="10"></path></g><g transform="translate(-46,2) scale(1,1)"><path fill="none" stroke="#000000" d="M 188 147 L 279 157" stroke-miterlimit="10" stroke-dasharray="3"></path></g><g transform="translate(-46,2) scale(1,1)"><path fill="none" stroke="#000000" d="M 268.4383199659164 160.07423402779287 L 279 157 L 269.35795269917014 151.70557615518368" stroke-miterlimit="10"></path></g><g transform="translate(-46,2) scale(1,1)"><path fill="none" stroke="#000000" d="M 114 170 L 100 231" stroke-miterlimit="10" stroke-dasharray="3"></path></g><g transform="translate(-46,2) scale(1,1)"><path fill="none" stroke="#000000" d="M 98.17046554802296 220.1532122870857 L 100 231 L 106.37616092848526 222.03648663669998" stroke-miterlimit="10"></path></g><g transform="translate(-46,2) scale(1,1)"><rect fill="#C0C0C0" stroke="none" x="271" y="15" width="88" height="72" opacity="0.2"></rect></g><g transform="translate(-46,2) scale(1,1)"><rect fill="#ffffff" stroke="none" x="264" y="8" width="88" height="72"></rect></g><g transform="translate(-46,2) scale(1,1)"><path fill="none" stroke="#000000" d="M 264 8 L 352 8 L 352 80 L 264 80 L 264 8 Z Z" stroke-miterlimit="10"></path></g><g transform="translate(-46,2) scale(1,1)"><path fill="none" stroke="#000000" d="M 264 33 L 352 33" stroke-miterlimit="10"></path></g><g transform="translate(-46,2) scale(1,1)"><path fill="none" stroke="#000000" d="M 264 71 L 352 71" stroke-miterlimit="10"></path></g><g transform="translate(-46,2) scale(1,1)"><g><path fill="none" stroke="none"></path><text fill="#000000" stroke="none" font-family="Arial" font-size="13px" font-style="normal" font-weight="bold" text-decoration="none" x="272" y="27.5">Suggestions</text></g></g><g transform="translate(-46,2) scale(1,1)"><g><path fill="none" stroke="none"></path><text fill="#000000" stroke="none" font-family="Arial" font-size="13px" font-style="normal" font-weight="normal" text-decoration="none" x="269" y="50.5">+Pictures</text></g></g><g transform="translate(-46,2) scale(1,1)"><g><path fill="none" stroke="none"></path><text fill="#000000" stroke="none" font-family="Arial" font-size="13px" font-style="normal" font-weight="normal" text-decoration="none" x="269" y="65.5">+Cache</text></g></g><g transform="translate(-46,2) scale(1,1)"><rect fill="#C0C0C0" stroke="none" x="423" y="23" width="73" height="57" opacity="0.2"></rect></g><g transform="translate(-46,2) scale(1,1)"><rect fill="#ffffff" stroke="none" x="416" y="16" width="73" height="57"></rect></g><g transform="translate(-46,2) scale(1,1)"><path fill="none" stroke="#000000" d="M 416 16 L 489 16 L 489 73 L 416 73 L 416 16 Z Z" stroke-miterlimit="10"></path></g><g transform="translate(-46,2) scale(1,1)"><path fill="none" stroke="#000000" d="M 416 41 L 489 41" stroke-miterlimit="10"></path></g><g transform="translate(-46,2) scale(1,1)"><path fill="none" stroke="#000000" d="M 416 64 L 489 64" stroke-miterlimit="10"></path></g><g transform="translate(-46,2) scale(1,1)"><g><path fill="none" stroke="none"></path><text fill="#000000" stroke="none" font-family="Arial" font-size="13px" font-style="normal" font-weight="bold" text-decoration="none" x="436.5" y="35.5">Items</text></g></g><g transform="translate(-46,2) scale(1,1)"><g><path fill="none" stroke="none"></path><text fill="#000000" stroke="none" font-family="Arial" font-size="13px" font-style="normal" font-weight="normal" text-decoration="none" x="421" y="58.5">+ID</text></g></g><g transform="translate(-46,2) scale(1,1)"><path fill="none" stroke="#000000" d="M 463 128 L 353 68" stroke-miterlimit="10" stroke-dasharray="3"></path></g><g transform="translate(-46,2) scale(1,1)"><path fill="none" stroke="#000000" d="M 363.9375038130825 69.17090150687629 L 353 68 L 359.9060307198706 76.56193551109814" stroke-miterlimit="10"></path></g><g transform="translate(-46,2) scale(1,1)"><path fill="none" stroke="#000000" d="M 483 111 L 466 74" stroke-miterlimit="10" stroke-dasharray="3"></path></g><g transform="translate(-46,2) scale(1,1)"><path fill="none" stroke="#000000" d="M 474.0680098056163 81.47711293056878 L 466 74 L 466.41782718732804 84.99206170113366" stroke-miterlimit="10"></path></g><g transform="translate(-46,2) scale(1,1)"><path fill="none" stroke="#000000" d="M 287 391 L 311 336" stroke-miterlimit="10"></path></g><g transform="translate(-46,2) scale(1,1)"><g><path fill="none" stroke="none"></path><text fill="#000000" stroke="none" font-family="Arial" font-size="13px" font-style="normal" font-weight="normal" text-decoration="none" x="311" y="367">*</text></g></g><g transform="translate(-46,2) scale(1,1)"><path fill="none" stroke="#000000" d="M 554 222 L 607 202" stroke-miterlimit="10"></path></g><g transform="translate(-46,2) scale(1,1)"><path fill="none" stroke="#000000" d="M 598.9779847070815 209.52643811109758 L 607 202 L 596.0055831610572 201.64957401413312" stroke-miterlimit="10"></path></g><g transform="translate(-46,2) scale(1,1)"><path fill="none" stroke="#000000" d="M 383 158 L 463 151" stroke-miterlimit="10"></path></g><g transform="translate(-46,2) scale(1,1)"><g><path fill="none" stroke="none"></path><text fill="#000000" stroke="none" font-family="Arial" font-size="13px" font-style="normal" font-weight="normal" text-decoration="none" x="403" y="175">*</text></g></g><g transform="translate(-46,2) scale(1,1)"><g><path fill="none" stroke="none"></path><text fill="#000000" stroke="none" font-family="Arial" font-size="13px" font-style="normal" font-weight="normal" text-decoration="none" x="439" y="172">1</text></g></g><g transform="translate(-46,2) scale(1,1)"><path fill="none" stroke="#000000" d="M 383 184 L 479 221" stroke-miterlimit="10"></path></g><g transform="translate(-46,2) scale(1,1)"><path fill="none" stroke="#000000" d="M 468.00339002779197 221.27307346838208 L 479 221 L 471.031130417333 213.41731461984315" stroke-miterlimit="10"></path></g><g transform="translate(-46,2) scale(1,1)"><g><path fill="none" stroke="none"></path><text fill="#000000" stroke="none" font-family="Arial" font-size="13px" font-style="normal" font-weight="normal" text-decoration="none" x="444" y="231">1..*</text></g></g><g transform="translate(-46,2) scale(1,1)"><path fill="none" stroke="#000000" d="M 439 455 L 313 440" stroke-miterlimit="10"></path></g><g transform="translate(-46,2) scale(1,1)"><path fill="none" stroke="#000000" d="M 323.58903622661694 437.02135739112697 L 313 440 L 322.59379770953615 445.38136093460554" stroke-miterlimit="10"></path></g><g transform="translate(-46,2) scale(1,1)"><path fill="none" stroke="#000000" d="M 130 304 L 223 392" stroke-miterlimit="10"></path></g><g transform="translate(-46,2) scale(1,1)"><g><path fill="none" stroke="none"></path><text fill="#000000" stroke="none" font-family="Arial" font-size="13px" font-style="normal" font-weight="normal" text-decoration="none" x="135" y="334">*</text></g></g><g transform="translate(-46,2) scale(1,1)"><g><path fill="none" stroke="none"></path><text fill="#000000" stroke="none" font-family="Arial" font-size="13px" font-style="normal" font-weight="normal" text-decoration="none" x="195" y="393">1</text></g></g><g transform="translate(-46,2) scale(1,1)"><path fill="none" stroke="#000000" d="M 639 466 L 520 462" stroke-miterlimit="10"></path></g><g transform="translate(-46,2) scale(1,1)"><path fill="none" stroke="#000000" d="M 530.2983550263968 458.134268018824 L 520 462 L 530.0155219723711 466.5485513760925" stroke-miterlimit="10"></path></g><g transform="translate(-46,2) scale(1,1)"><g><path fill="none" stroke="none"></path><text fill="#000000" stroke="none" font-family="Arial" font-size="13px" font-style="normal" font-weight="normal" text-decoration="none" x="540" y="457">*</text></g></g><g transform="translate(-46,2) scale(1,1)"><path fill="#ffffff" stroke="none" d="M 144 336 L 208 336 L 218 346 L 218 359 L 144 359 L 144 336"></path></g><g transform="translate(-46,2) scale(1,1)"><path fill="none" stroke="#000000" d="M 144 336 L 208 336 L 218 346 L 218 359 L 144 359 L 144 336 L 144 336" stroke-miterlimit="10"></path></g><g transform="translate(-46,2) scale(1,1)"><path fill="none" stroke="#000000" d="M 208 336 L 208 346 L 218 346 L 208 336" stroke-miterlimit="10"></path></g><g transform="translate(-46,2) scale(1,1)"><g><path fill="none" stroke="none"></path><text fill="#000000" stroke="none" font-family="Arial" font-size="13px" font-style="normal" font-weight="normal" text-decoration="none" x="149" y="354">contiene</text></g></g><g transform="translate(-46,2) scale(1,1)"><path fill="#ffffff" stroke="none" d="M 368 504 L 441 504 L 451 514 L 451 527 L 368 527 L 368 504"></path></g><g transform="translate(-46,2) scale(1,1)"><path fill="none" stroke="#000000" d="M 368 504 L 441 504 L 451 514 L 451 527 L 368 527 L 368 504 L 368 504" stroke-miterlimit="10"></path></g><g transform="translate(-46,2) scale(1,1)"><path fill="none" stroke="#000000" d="M 441 504 L 441 514 L 451 514 L 441 504" stroke-miterlimit="10"></path></g><g transform="translate(-46,2) scale(1,1)"><g><path fill="none" stroke="none"></path><text fill="#000000" stroke="none" font-family="Arial" font-size="13px" font-style="normal" font-weight="normal" text-decoration="none" x="373" y="522">pertenece</text></g></g><g transform="translate(-46,2) scale(1,1)"><path fill="none" stroke="#000000" d="M 511 355 L 313 419" stroke-miterlimit="10"></path></g><g transform="translate(-46,2) scale(1,1)"><g><path fill="none" stroke="none"></path><text fill="#000000" stroke="none" font-family="Arial" font-size="13px" font-style="normal" font-weight="normal" text-decoration="none" x="476" y="356">1..*</text></g></g><g transform="translate(-46,2) scale(1,1)"><path fill="#ffffff" stroke="none" d="M 384 368 L 448 368 L 458 378 L 458 391 L 384 391 L 384 368"></path></g><g transform="translate(-46,2) scale(1,1)"><path fill="none" stroke="#000000" d="M 384 368 L 448 368 L 458 378 L 458 391 L 384 391 L 384 368 L 384 368" stroke-miterlimit="10"></path></g><g transform="translate(-46,2) scale(1,1)"><path fill="none" stroke="#000000" d="M 448 368 L 448 378 L 458 378 L 448 368" stroke-miterlimit="10"></path></g><g transform="translate(-46,2) scale(1,1)"><g><path fill="none" stroke="none"></path><text fill="#000000" stroke="none" font-family="Arial" font-size="13px" font-style="normal" font-weight="normal" text-decoration="none" x="389" y="386">contiene</text></g></g></g></svg>